SplineFontDB: 1.0
FontName: DBThaiTextItalic
FullName: DBThaiTextItalic
FamilyName: DBThaiText
Weight: Medium
Copyright: Typeface (c) The Monotype Corporation plc. Data (c) The Monotype Corporation plc/Type Solutions Inc. 1990-1992. All Rights Reserved
Version: 001.000
ItalicAngle: -18
UnderlinePosition: -477
UnderlineWidth: 205
Ascent: 1638
Descent: 410
FSType: 0
PfmFamily: 17
TTFWeight: 500
TTFWidth: 5
Panose: 2 0 6 3 0 0 0 0 0 0
LineGap: 184
VLineGap: 0

LangName: 1033 "" "" "" "PfaEdit : DBThaiTextItalic : 13-0-2003" 
Encoding: compacted
DisplaySize: -36
AntiAlias: 1
BeginChars: 257 257
StartChar: .notdef
Encoding: 0 -1
OldEncoding: 0
Width: 1024
Flags: W
Fore
127 0 m 1
 127 1720 l 1
 897 1720 l 1
 897 0 l 1
 127 0 l 1
256 127 m 1
 768 127 l 1
 768 1593 l 1
 256 1593 l 1
 256 127 l 1
EndSplineSet
EndChar
StartChar: exclam
Encoding: 3 33
OldEncoding: 33
Width: 342
Flags: W
Fore
152 205 m 1
 100 205 l 1
 156 455 l 1
 299 895 l 1
 401 895 l 1
 258 455 l 1
 152 205 l 1
47 127 m 1
 152 127 l 1
 111 0 l 1
 8 0 l 1
 47 127 l 1
EndSplineSet
EndChar
StartChar: quotedbl
Encoding: 4 34
OldEncoding: 34
Width: 436
Flags: W
Fore
436 758 m 0
 420 701.333 390 657.667 346 627 c 0
 306.667 599 264.333 581 219 573 c 1
 203 573 195 576 195 582 c 2
 195 584 l 1
 205 594 l 1
 224.333 600.667 250.333 612.333 283 629 c 0
 313 645 334 666 346 692 c 1
 330 688 l 1
 305 684 l 1
 265.667 688 246 705.667 246 737 c 0
 246 747 248 758 252 770 c 0
 260 794 273.667 814.333 293 831 c 0
 312.333 847.667 336.333 856 365 856 c 0
 416.333 856 442 835.667 442 795 c 0
 442 784.333 440 772 436 758 c 0
211 758 m 0
 195 701.333 165 657.667 121 627 c 0
 81.6667 599 39.3333 581 -6 573 c 1
 -22.6667 573 -31 576 -31 582 c 2
 -31 584 l 1
 -25 590 -21.3333 593.333 -20 594 c 0
 0 600.667 25.6667 612.333 57 629 c 0
 87.6667 645 109 666 121 692 c 1
 104 688 l 1
 80 684 l 1
 40 688 20 705.667 20 737 c 0
 20 745 22.3333 756 27 770 c 0
 35 794 48.6667 814.333 68 831 c 0
 87.3333 847.667 111 856 139 856 c 0
 191 856 217 835.667 217 795 c 0
 217 784.333 215 772 211 758 c 0
EndSplineSet
EndChar
StartChar: numbersign
Encoding: 5 35
OldEncoding: 35
Width: 684
Flags: W
Fore
397 858 m 1
 492 858 l 1
 369 618 l 1
 522 618 l 1
 643 858 l 1
 739 858 l 1
 618 618 l 1
 731 618 l 1
 698 520 l 1
 567 520 l 1
 473 332 l 1
 598 332 l 1
 565 233 l 1
 422 233 l 1
 291 -25 l 1
 199 -25 l 1
 328 233 l 1
 176 233 l 1
 43 -25 l 1
 -49 -25 l 1
 80 233 l 1
 -43 233 l 1
 -10 332 l 1
 131 332 l 1
 227 520 l 1
 96 520 l 1
 129 618 l 1
 274 618 l 1
 397 858 l 1
322 520 m 1
 227 332 l 1
 379 332 l 1
 471 520 l 1
 322 520 l 1
EndSplineSet
EndChar
StartChar: dollar
Encoding: 6 36
OldEncoding: 36
Width: 684
Flags: W
Fore
688 639 m 1
 592 639 l 1
 597.333 659.667 600 678.667 600 696 c 0
 600 714 596.667 729.667 590 743 c 0
 577.333 775 548 791 502 791 c 1
 403 489 l 1
 463.667 470.333 506 454 530 440 c 1
 558 427.333 578.667 404.333 592 371 c 0
 597.333 357.667 600 342 600 324 c 0
 600 293.333 594.667 262.333 584 231 c 0
 562.667 167.667 524.333 113.333 469 68 c 0
 414.333 22 359.667 -5.33333 305 -14 c 2
 236 -27 l 1
 195 -154 l 1
 119 -154 l 1
 160 -29 l 1
 110.667 -17.6667 73.6667 -7.33333 49 2 c 0
 21 13.3333 -1.33333 39.3333 -18 80 c 0
 -25.3333 96.6667 -29 115.667 -29 137 c 0
 -29 167.667 -20.6667 207.333 -4 256 c 1
 88 256 l 1
 80 218.667 76 188.667 76 166 c 2
 76 160 l 2
 76 140 83.3333 120 98 100 c 1
 114.667 82.6667 144.667 68.3333 188 57 c 1
 297 391 l 1
 236 414 l 2
 209.333 423.333 188 433.333 172 444 c 0
 154.667 454.667 141.667 467.667 133 483 c 0
 125 499.667 121 519.667 121 543 c 0
 121 573 128.333 611.667 143 659 c 1
 176.333 731 220 784.333 274 819 c 0
 329.333 853.667 390.333 874.333 457 881 c 1
 477 946 l 1
 551 946 l 1
 530 881 l 1
 597.333 874.333 646.667 852.333 678 815 c 0
 696 795 705 769.667 705 739 c 2
 705 733 l 1
 701.667 693.667 696 662.333 688 639 c 1
332 500 m 1
 428 793 l 1
 391.333 791 355 779 319 757 c 0
 317.667 755.667 316.333 754.667 315 754 c 0
 279 727.333 254 696.667 240 662 c 0
 232.667 642 229 623.333 229 606 c 0
 229 584.667 234 567.667 244 555 c 1
 260 526.333 289.333 508 332 500 c 1
367 379 m 1
 262 59 l 1
 280 60.3333 304 66.6667 334 78 c 0
 361.333 86.6667 388.667 103.667 416 129 c 0
 443.333 155.667 463.667 189 477 229 c 0
 482.333 245.667 485 263 485 281 c 0
 485 300.333 479 316.667 467 330 c 1
 443 348.667 409.667 365 367 379 c 1
EndSplineSet
EndChar
StartChar: percent
Encoding: 7 37
OldEncoding: 37
Width: 1091
Flags: W
Fore
895 870 m 1
 977 870 l 1
 201 -25 l 1
 117 -25 l 1
 895 870 l 1
102 631 m 1
 120.667 689 157.667 738.667 213 780 c 0
 268.333 821.333 325 842 383 842 c 0
 441.667 842 484.667 821.333 512 780 c 1
 528.667 757.333 537 730 537 698 c 0
 537 679.333 532.667 657 524 631 c 0
 506 573.667 469.333 524.333 414 483 c 0
 358.667 442.333 302.667 422 246 422 c 0
 189.333 422 147 442.333 119 483 c 0
 101 507 92 535 92 567 c 0
 92 584.333 95.3333 605.667 102 631 c 1
557 186 m 0
 574.333 242 612 291.333 670 334 c 1
 722.667 374.667 778.667 395 838 395 c 0
 874 395 906 385.667 934 367 c 0
 960.667 348.333 977 323 983 291 c 1
 987 279 989 266 989 252 c 0
 989 230.667 985 208.667 977 186 c 0
 957.667 125.333 921.333 75.6667 868 37 c 0
 812.667 -4.33333 756.667 -25 700 -25 c 0
 643.333 -25 600.333 -4.33333 571 37 c 0
 555 61 547 89 547 121 c 0
 547 139.667 550.333 161.333 557 186 c 0
188 631 m 1
 184 615.667 182 603.333 182 594 c 0
 182 576 187.667 559.667 199 545 c 1
 215 520.333 240 508 274 508 c 0
 308.667 508 342.333 520.333 375 545 c 0
 407 567.667 428 596.333 438 631 c 0
 442 645 444 658 444 670 c 1
 442 694 l 1
 435.333 714 425.333 729 412 739 c 0
 396.667 750.333 377.333 756 354 756 c 0
 321.333 756 288.667 744.333 256 721 c 1
 222.667 693.667 200 663.667 188 631 c 1
643 186 m 0
 639 172 637 159 637 147 c 0
 637 130.333 642.333 114 653 98 c 0
 670.333 73.3333 695.667 61 729 61 c 0
 761.667 61 794.333 73.3333 827 98 c 1
 859 120 880.333 149.333 891 186 c 0
 895 200.667 897 213.667 897 225 c 0
 897 242.333 893 258 885 272 c 1
 866.333 296.667 841 309 809 309 c 0
 775.667 309 743 296.667 711 272 c 0
 677 247.333 654.333 218.667 643 186 c 0
EndSplineSet
EndChar
StartChar: ampersand
Encoding: 8 38
OldEncoding: 38
Width: 819
Flags: W
Fore
643 0 m 1
 510 0 l 1
 463 90 l 1
 426 66 l 1
 412.667 54.6667 395 43 373 31 c 0
 357 21 336.333 10 311 -2 c 1
 255.667 -20 206.667 -29 164 -29 c 0
 114.667 -29 74.3333 -18 43 4 c 0
 2.33333 34.6667 -18 76.3333 -18 129 c 0
 -18 155 -14.6667 178.333 -8 199 c 0
 7.33333 254.333 33.3333 301.333 70 340 c 1
 102 377.333 145.667 410.667 201 440 c 2
 279 483 l 1
 256 543 l 1
 244 567 238 592 238 618 c 0
 238 636 241.333 656.667 248 680 c 0
 269.333 746.667 315.667 799.333 387 838 c 0
 429.667 860.667 474 872 520 872 c 0
 574.667 872 615.667 854.333 643 819 c 0
 661 794.333 670 765.667 670 733 c 0
 670 715 667.333 698 662 682 c 0
 651.333 647.333 630 614.667 598 584 c 1
 564 548 530.667 522 498 506 c 2
 420 465 l 1
 516 266 l 1
 559.333 320 588 368 602 410 c 1
 700 410 l 1
 690.667 379.333 671 341.667 641 297 c 0
 609 249.667 579.667 212.667 553 186 c 1
 643 0 l 1
563 735 m 1
 563 752.333 556.333 764.667 543 772 c 0
 529 781.333 510.333 786 487 786 c 0
 460.333 786 436.667 779.333 416 766 c 0
 393.333 752 374.667 732.333 360 707 c 1
 350.667 679.667 346 657 346 639 c 1
 348 623 l 1
 351.333 608.333 364.333 581 387 541 c 1
 420.333 551.667 453.667 568.667 487 592 c 0
 525 616.667 549 646.667 559 682 c 0
 563 694 565 707 565 721 c 1
 563 735 l 1
430 166 m 1
 313 412 l 1
 260 383 l 2
 237.333 370.333 216.333 356.667 197 342 c 0
 181 329.333 161.667 309 139 281 c 1
 119.667 254.333 105.333 227.667 96 201 c 1
 96 182 l 2
 96 158 103 135.667 117 115 c 1
 134.333 85 166.333 70 213 70 c 0
 243 70 273.667 76 305 88 c 0
 330.333 96.6667 372 122.667 430 166 c 1
EndSplineSet
EndChar
StartChar: quotesingle
Encoding: 9 39
OldEncoding: 39
Width: 235
Flags: W
Fore
231 758 m 0
 215 701.333 185 657.667 141 627 c 0
 101.667 599 59.3333 581 14 573 c 1
 -2 573 -10 576 -10 582 c 2
 -10 584 l 1
 0 594 l 1
 18.6667 600.667 44.6667 612.333 78 629 c 0
 108 644.333 129 665.333 141 692 c 1
 125 688 l 1
 100 684 l 1
 60.6667 688 41 705.667 41 737 c 0
 41 747 43 758 47 770 c 0
 54.3333 792.667 68 813 88 831 c 0
 108.667 847.667 132.667 856 160 856 c 0
 212 856 238 835.667 238 795 c 0
 238 783.667 235.667 771.333 231 758 c 0
EndSplineSet
EndChar
StartChar: parenleft
Encoding: 10 40
OldEncoding: 40
Width: 409
Flags: W
Fore
477 895 m 1
 547 895 l 1
 451.667 791 376.667 691.333 322 596 c 0
 264 496 221.667 403 195 317 c 0
 167 230.333 149.667 138.333 143 41 c 1
 139 -29 l 1
 139 -104.333 150 -182 172 -262 c 1
 102 -262 l 1
 88 -226 76 -183.667 66 -135 c 1
 56.6667 -98.3333 51 -49.3333 49 12 c 1
 49 35 l 2
 49 77 52.3333 122 59 170 c 0
 65 217.333 76 266.333 92 317 c 0
 116 387 146.667 455.333 184 522 c 0
 221.333 591.333 267.333 659 322 725 c 1
 370.667 787.667 422.333 844.333 477 895 c 1
EndSplineSet
EndChar
StartChar: parenright
Encoding: 11 41
OldEncoding: 41
Width: 409
Flags: W
Fore
236 895 m 1
 303 895 l 1
 326.333 843 342 786.333 350 725 c 0
 355.333 690.333 358 648.667 358 600 c 1
 354 520 l 1
 347.333 444.667 334.333 377 315 317 c 0
 293 251.667 262.333 184.333 223 115 c 0
 186.333 47 140.667 -20.6667 86 -88 c 0
 28 -161.333 -24.6667 -219.333 -72 -262 c 1
 -139 -262 l 1
 -74.3333 -193.333 -19 -123.667 27 -53 c 1
 74.3333 14.3333 113 79.6667 143 143 c 0
 173.667 207 197 265 213 317 c 0
 227.667 361.667 238.667 404 246 444 c 0
 254 488 260 534 264 582 c 1
 266 641 l 1
 262 739 l 1
 258 798.333 249.333 850.333 236 895 c 1
EndSplineSet
EndChar
StartChar: asterisk
Encoding: 12 42
OldEncoding: 42
Width: 477
Flags: W
Fore
53 748 m 1
 100 819 l 1
 213 772 l 1
 254 909 l 1
 328 909 l 1
 281 772 l 1
 422 817 l 1
 424 741 l 1
 281 709 l 1
 326 598 l 1
 254 555 l 1
 215 670 l 1
 98 557 l 1
 53 600 l 1
 172 709 l 1
 53 748 l 1
EndSplineSet
EndChar
StartChar: plus
Encoding: 13 43
OldEncoding: 43
Width: 716
Flags: W
Fore
412 582 m 1
 498 582 l 1
 416 328 l 1
 670 328 l 1
 641 242 l 1
 387 242 l 1
 305 -12 l 1
 219 -12 l 1
 303 242 l 1
 49 242 l 1
 78 328 l 1
 332 328 l 1
 412 582 l 1
EndSplineSet
EndChar
StartChar: comma
Encoding: 14 44
OldEncoding: 44
Width: 342
Flags: W
Fore
272 61 m 0
 256 5 226 -38.6667 182 -70 c 0
 140.667 -99.3333 98.3333 -117 55 -123 c 1
 39 -123 31 -120.333 31 -115 c 2
 31 -113 l 1
 41 -102 l 1
 57.6667 -96.6667 83.6667 -85.3333 119 -68 c 0
 149.667 -51.3333 170.667 -30 182 -4 c 1
 166 -8 l 1
 141 -12 l 1
 101.667 -8 82 9.66667 82 41 c 0
 82 49.6667 84 60.6667 88 74 c 0
 96 97.3333 109.667 117.667 129 135 c 0
 149.667 151.667 173.667 160 201 160 c 0
 253 160 279 139.333 279 98 c 0
 279 90.6667 276.667 78.3333 272 61 c 0
EndSplineSet
EndChar
StartChar: hyphen
Encoding: 15 45
OldEncoding: 45
Width: 409
Flags: W
Fore
362 385 m 1
 334 295 l 1
 43 295 l 1
 72 385 l 1
 362 385 l 1
EndSplineSet
EndChar
StartChar: period
Encoding: 16 46
OldEncoding: 46
Width: 342
Flags: W
Fore
66 94 m 1
 73.3333 116 89 136.667 113 156 c 0
 134.333 173.333 157.333 182 182 182 c 0
 198 182 211 178 221 170 c 0
 233 160.667 240.667 149.667 244 137 c 1
 246 119 l 1
 242 94 l 1
 232 70 217 49.6667 197 33 c 0
 175 15 151 6 125 6 c 0
 99 6 81.3333 15 72 33 c 0
 64.6667 45 61 56.6667 61 68 c 1
 66 94 l 1
EndSplineSet
EndChar
StartChar: slash
Encoding: 17 47
OldEncoding: 47
Width: 342
Flags: W
Fore
-156 -27 m 1
 426 870 l 1
 494 870 l 1
 -88 -27 l 1
 -156 -27 l 1
EndSplineSet
EndChar
StartChar: zero
Encoding: 18 48
OldEncoding: 48
Width: 581
Flags: W
Fore
162 -25 m 0
 124 -25 92 -16 66 2 c 0
 38.6667 20 20 48 10 86 c 0
 6 102 4 119.667 4 139 c 0
 4 161 6 185.667 10 213 c 0
 16 251.667 27.6667 300 45 358 c 0
 57.6667 398.667 77.3333 447.333 104 504 c 0
 132 560.667 159.333 603.667 186 633 c 0
 213.333 663.667 250.333 690.333 297 713 c 0
 334.333 730.333 372 739 410 739 c 0
 448.667 739 482 730.333 510 713 c 1
 537.333 693.667 555 667 563 633 c 0
 567 616.333 569 597 569 575 c 0
 569 517 554.667 444.667 526 358 c 0
 489.333 242 442.333 151.333 385 86 c 1
 346.333 45.3333 311 17.3333 279 2 c 0
 238.333 -16 199.333 -25 162 -25 c 0
190 61 m 0
 241.333 61 289.333 86.3333 334 137 c 1
 367 186 l 1
 378.333 208 390.333 234.667 403 266 c 0
 410.333 281.333 422 311.333 438 356 c 1
 463 446 l 1
 475 526 l 1
 477 553 l 1
 475 575 l 1
 465 625.667 434.333 651 383 651 c 0
 358.333 651 333.667 645 309 633 c 0
 282.333 619.667 258.667 600.333 238 575 c 0
 228 564.333 210 533.667 184 483 c 0
 162.667 439 145.667 396.667 133 356 c 0
 124.333 332.667 114 290.333 102 229 c 1
 96.6667 191.667 94 168.667 94 160 c 1
 96 137 l 1
 102.667 111.667 114.333 93.3333 131 82 c 0
 150.333 68 170 61 190 61 c 0
EndSplineSet
EndChar
StartChar: one
Encoding: 19 49
OldEncoding: 49
Width: 581
Flags: W
Fore
242 0 m 1
 154 0 l 1
 324 522 l 1
 156 522 l 1
 178 594 l 1
 228.667 599.333 268.333 606.667 297 616 c 0
 323 625.333 342.667 637.667 356 653 c 0
 370.667 667.667 392 696.333 420 739 c 1
 481 739 l 1
 242 0 l 1
EndSplineSet
EndChar
StartChar: two
Encoding: 20 50
OldEncoding: 50
Width: 581
Flags: W
Fore
365 303 m 2
 221 240 l 1
 187 222.667 153 201.333 119 176 c 0
 76.3333 145.333 50.3333 115.333 41 86 c 1
 434 86 l 1
 408 0 l 1
 -86 0 l 1
 -56 66 -35 109.667 -23 131 c 0
 -7 156.333 19 185 55 217 c 0
 93.6667 251 144.333 282.333 207 311 c 1
 340 375 l 2
 415.333 411.667 463 457.333 483 512 c 0
 490.333 534 494 551 494 563 c 0
 494 572.333 492.333 582.667 489 594 c 0
 480.333 617.333 467.667 633.667 451 643 c 0
 431 653.667 409 659 385 659 c 0
 331.667 657 288.667 640.667 256 610 c 0
 223.333 580 196.667 537.667 176 483 c 1
 86 483 l 1
 104 525.667 124.333 566.667 147 606 c 0
 165 637.333 196 665.333 240 690 c 0
 274 710 304 723 330 729 c 0
 358.667 735.667 392 739 430 739 c 0
 492 737 535.667 720 561 688 c 0
 581.667 662.667 592 631.333 592 594 c 1
 590 565 l 1
 587.333 541.667 584.667 526 582 518 c 0
 567.333 473.333 538.667 431.667 496 393 c 0
 450 351 406.333 321 365 303 c 2
EndSplineSet
EndChar
StartChar: three
Encoding: 21 51
OldEncoding: 51
Width: 581
Flags: W
Fore
-14 215 m 1
 76 215 l 1
 68 176 l 1
 63 145 l 1
 63 135.667 64 129 66 125 c 1
 68 106.333 76 92 90 82 c 1
 105.333 66.6667 127.333 59 156 59 c 0
 274.667 57 351.667 109 387 215 c 1
 391 233 393 248 393 260 c 0
 393 284 387 301 375 311 c 0
 353.667 330.333 317.333 340 266 340 c 1
 225 338 l 1
 252 418 l 1
 316 420 365 428 399 442 c 1
 431.667 458 455.667 491 471 541 c 1
 475 559 477 574 477 586 c 0
 477 609.333 470.333 625.667 457 635 c 0
 435 649.667 402.667 657 360 657 c 1
 326 650.333 299 641.667 279 631 c 0
 259.667 619.667 242.333 606 227 590 c 1
 213 570 203.667 553 199 539 c 0
 196.333 529.667 190.667 516.667 182 500 c 1
 98 502 l 1
 122.667 576.667 160.333 635.333 211 678 c 0
 261.667 718.667 323.667 739 397 739 c 0
 438.333 739 475.333 731.667 508 717 c 0
 536.667 703 556.333 679.667 567 647 c 0
 572.333 634.333 575 620 575 604 c 0
 575 578.667 570.333 553.333 561 528 c 0
 548.333 490.667 531.333 462.667 510 444 c 0
 484.667 422 456.667 401.667 426 383 c 1
 462 364.333 483 341 489 313 c 0
 491 307.667 492 299 492 287 c 0
 492 263.667 487 236.333 477 205 c 0
 464.333 161.667 439 120 401 80 c 0
 363.667 40 318 12 264 -4 c 0
 225.333 -16 190 -23 158 -25 c 1
 125.333 -25 103.333 -22.6667 92 -18 c 1
 33.3333 -6 -2 20.3333 -14 61 c 0
 -21.3333 84.3333 -25 106.333 -25 127 c 0
 -25 147.667 -21.3333 177 -14 215 c 1
EndSplineSet
EndChar
StartChar: four
Encoding: 22 52
OldEncoding: 52
Width: 581
Flags: W
Fore
285 174 m 1
 -35 174 l 1
 -4 272 l 1
 485 739 l 1
 553 739 l 1
 397 260 l 1
 506 260 l 1
 479 174 l 1
 371 174 l 1
 313 0 l 1
 227 0 l 1
 285 174 l 1
311 260 m 1
 420 592 l 1
 74 260 l 1
 311 260 l 1
EndSplineSet
EndChar
StartChar: five
Encoding: 23 53
OldEncoding: 53
Width: 581
Flags: W
Fore
135 336 m 1
 49 336 l 1
 240 739 l 1
 623 739 l 1
 594 649 l 1
 285 649 l 1
 186 444 l 1
 228.667 472.667 277.333 487 332 487 c 0
 366 487 397.333 481.667 426 471 c 1
 484.667 444.333 514 398.667 514 334 c 0
 514 304.667 508 270.333 496 231 c 1
 474 180.333 445.333 134.667 410 94 c 1
 372.667 54.6667 333.667 26 293 8 c 0
 269 -2.66667 229.333 -13.6667 174 -25 c 1
 139.333 -25 106.667 -20.6667 76 -12 c 0
 44 -2 20 13.6667 4 35 c 1
 -13.3333 55 -23 72.6667 -25 88 c 1
 -27 123 l 1
 -27 143 l 1
 -23 180 l 1
 72 180 l 1
 74 148 81.3333 120.667 94 98 c 1
 110 74.6667 145 63 199 63 c 1
 289.667 74.3333 351 121 383 203 c 0
 395 236.333 401 268.333 401 299 c 0
 401 321.667 397 340 389 354 c 0
 371 385.333 340.333 401 297 401 c 0
 242.333 401 188.333 379.333 135 336 c 1
EndSplineSet
EndChar
StartChar: six
Encoding: 24 54
OldEncoding: 54
Width: 581
Flags: W
Fore
582 547 m 1
 492 547 l 1
 496 580 l 1
 496 593.333 492.333 605.333 485 616 c 1
 474.333 636 454.667 649 426 655 c 1
 347.333 655 283 623 233 559 c 0
 191.667 507 161.667 454.333 143 401 c 1
 139 375 l 1
 190 412 l 2
 202.667 422 216.333 430 231 436 c 0
 251.667 445.333 268.333 451.667 281 455 c 0
 295 459 314.667 461 340 461 c 0
 381.333 461 414.667 452.667 440 436 c 0
 465.333 420.667 484 399 496 371 c 1
 502.667 349.667 506 329 506 309 c 1
 504 285 l 1
 504 281 l 2
 504 269 500.667 250.333 494 225 c 1
 482 195 473 176 467 168 c 1
 449.667 130.667 424.333 98 391 70 c 1
 352.333 35.3333 317.667 11.3333 287 -2 c 0
 251 -17.3333 210.667 -25 166 -25 c 0
 129.333 -25 97.3333 -16.6667 70 0 c 1
 44 13.3333 26 34.3333 16 63 c 0
 5.33333 93.6667 -4.33681e-19 124 0 154 c 1
 2 195 l 1
 9.33333 235.667 25.6667 296.333 51 377 c 0
 71 439.667 97 495.667 129 545 c 0
 173 613.667 222 662.667 276 692 c 0
 332.667 723.333 385.333 739 434 739 c 0
 488 739 529.667 721.333 559 686 c 0
 572.333 668.667 581.333 649 586 627 c 1
 588 604 l 1
 588 588 586 569 582 547 c 1
340 121 m 1
 363.333 141.667 381.667 172.333 395 213 c 1
 403.667 246.333 408 269.667 408 283 c 0
 408 300.333 405.667 316 401 330 c 0
 391 362.667 357.667 379 301 379 c 0
 277.667 379 254.333 374.333 231 365 c 0
 205 353 184.667 340.667 170 328 c 0
 137.333 302.667 113.333 268.333 98 225 c 0
 91.3333 203 88 184 88 168 c 0
 88 152 91.3333 135 98 117 c 0
 114 75.6667 147 55 197 55 c 1
 246.333 53 294 75 340 121 c 1
EndSplineSet
EndChar
StartChar: seven
Encoding: 25 55
OldEncoding: 55
Width: 581
Flags: W
Fore
141 653 m 1
 168 739 l 1
 662 739 l 1
 637 662 l 1
 516 545 l 2
 496.667 526.333 452.333 477.333 383 398 c 2
 367 379 l 2
 265.667 259 183.667 132.667 121 0 c 1
 23 0 l 1
 79 96 122 165.667 152 209 c 0
 174.667 244.333 217 298.333 279 371 c 1
 428 537 l 1
 537 653 l 1
 141 653 l 1
EndSplineSet
EndChar
StartChar: eight
Encoding: 26 56
OldEncoding: 56
Width: 581
Flags: W
Fore
252 696 m 0
 300.667 724.667 350.333 739 401 739 c 0
 461 739 510.333 724.667 549 696 c 1
 567.667 679.333 578 657 580 629 c 1
 580 608 l 2
 580 591.333 576.333 569.667 569 543 c 0
 556.333 500.333 537.333 469.667 512 451 c 1
 490 431 461.333 410.333 426 389 c 1
 446 385 465 364.667 483 328 c 0
 491.667 311.333 496 292 496 270 c 0
 496 249.333 490.333 221.333 479 186 c 1
 449 117.333 401.333 63.6667 336 25 c 0
 278.667 -10.3333 217.333 -27 152 -25 c 0
 127.333 -25 98.6667 -18.6667 66 -6 c 0
 40 4 18.6667 19.6667 2 41 c 0
 -16 63 -25 91 -25 125 c 0
 -25 151 -22 171.333 -16 186 c 1
 1.33333 244 27 287.667 61 317 c 1
 78.3333 336.333 114 360.333 168 389 c 1
 139 418 l 2
 133.667 423.333 129 430 125 438 c 1
 117 465 l 1
 115 483 l 1
 115 499.667 118.333 519.667 125 543 c 1
 147.667 607 190 658 252 696 c 0
465 633 m 0
 449.667 650.333 423 659 385 659 c 0
 345 659 311 649 283 629 c 0
 250.333 607 228.333 578.333 217 543 c 0
 213 530.333 211 514.667 211 496 c 0
 213 456.667 234 434 274 428 c 2
 295 426 l 2
 351.667 424 396 439 428 471 c 1
 452.667 493.667 469 517.667 477 543 c 0
 481 557 483 570 483 582 c 0
 483 600.667 477 617.667 465 633 c 0
389 295 m 0
 369.667 332.333 332 350 276 348 c 0
 224 348 177.667 329.667 137 293 c 0
 108.333 265.667 89.3333 233.667 80 197 c 0
 76 184.333 74 169.333 74 152 c 0
 74 132 78 116.667 86 106 c 0
 97.3333 87.3333 127.333 72.3333 176 61 c 1
 212 63 249.667 71.3333 289 86 c 1
 340.333 115.333 373 153.667 387 201 c 0
 393.667 221 397 238.667 397 254 c 2
 397 256 l 2
 397 273.333 394.333 286.333 389 295 c 0
EndSplineSet
EndChar
StartChar: nine
Encoding: 27 57
OldEncoding: 57
Width: 581
Flags: W
Fore
-10 164 m 1
 82 164 l 1
 78 139 l 1
 78 125 82 111.333 90 98 c 1
 104 80 125.333 68.3333 154 63 c 1
 231.333 63 293.333 92.6667 340 152 c 0
 354.667 171.333 372.333 198.333 393 233 c 0
 410.333 262.333 422 288.333 428 311 c 1
 434 338 l 1
 401.333 309.333 368 286.667 334 270 c 0
 315.333 262 294 256 270 252 c 1
 190 256 l 1
 147.333 261.333 114 281 90 315 c 1
 74 342.333 66 372.667 66 406 c 2
 66 426 l 1
 67.3333 437.333 72.6667 457.667 82 487 c 0
 85.3333 500.333 93.3333 521 106 549 c 1
 125.333 585 150.667 617 182 645 c 0
 224.667 681.667 260.333 706.333 289 719 c 0
 322.333 732.333 362 739 408 739 c 0
 488.667 741 538.333 711 557 649 c 1
 565 627 569 601 569 571 c 0
 569 533 563 487.333 551 434 c 0
 549.667 423.333 542.667 401 530 367 c 1
 508 299 l 1
 494 258.333 472.667 214.667 444 168 c 0
 403.333 100 351 49.3333 287 16 c 1
 243 -4.66667 198.667 -18.3333 154 -25 c 1
 121.333 -25 91 -21.3333 63 -14 c 1
 40.3333 -6 22 7 8 25 c 0
 -9.33333 50.3333 -18 79.6667 -18 113 c 0
 -18 130.333 -15.3333 147.333 -10 164 c 1
233 594 m 0
 207 568.667 188 536.667 176 498 c 0
 169.333 472.667 166 450 166 430 c 1
 170 383 l 1
 182.667 345.667 216 328 270 330 c 0
 292.667 330 317.333 336 344 348 c 0
 368.667 358 388.333 370.333 403 385 c 1
 438.333 412.333 461.667 445.667 473 485 c 0
 479.667 508.333 483 528.333 483 545 c 0
 483 566.333 480.333 584 475 598 c 0
 468.333 616.667 457.333 630.333 442 639 c 0
 422.667 649.667 401.667 655 379 655 c 0
 324.333 655 275.667 634.667 233 594 c 0
EndSplineSet
EndChar
StartChar: colon
Encoding: 28 58
OldEncoding: 58
Width: 342
Flags: W
Fore
6 102 m 1
 13.3333 122.667 29 143.333 53 164 c 0
 75 181.333 98.3333 190 123 190 c 0
 140.333 190 154 186 164 178 c 1
 174 172 180 161 182 145 c 2
 184 129 l 1
 180 102 l 1
 174 80 159 59.6667 135 41 c 0
 113 23 90 14 66 14 c 0
 44.6667 14 26.6667 23 12 41 c 1
 5.33333 52.3333 2 64.6667 2 78 c 1
 6 102 l 1
172 618 m 1
 180.667 642.667 197 664 221 682 c 0
 245 698.667 268.333 707 291 707 c 0
 315.667 707 333.333 698.667 344 682 c 0
 349.333 673.333 352 661 352 645 c 1
 348 618 l 1
 342 596 327 575.667 303 557 c 0
 281 539 257.667 530 233 530 c 0
 211 530 193.333 539 180 557 c 1
 173.333 568.333 170 580.667 170 594 c 1
 172 618 l 1
EndSplineSet
EndChar
StartChar: semicolon
Encoding: 29 59
OldEncoding: 59
Width: 342
Flags: W
Fore
197 61 m 0
 177.667 4.33333 146.667 -39.3333 104 -70 c 0
 62.6667 -98.6667 21.3333 -116.333 -20 -123 c 1
 -38 -123 -47 -120.333 -47 -115 c 2
 -47 -113 l 1
 -37 -102 l 1
 -21.6667 -97.3333 4.33333 -86 41 -68 c 1
 73 -50 94.6667 -28.6667 106 -4 c 1
 86 -8 l 1
 63 -12 l 1
 23.6667 -8 4 9.66667 4 41 c 0
 4 49.6667 6 60.6667 10 74 c 0
 18 97.3333 31.6667 117.667 51 135 c 0
 71.6667 151.667 95.6667 160 123 160 c 0
 176.333 160 203 139.333 203 98 c 0
 203 88.6667 201 76.3333 197 61 c 0
164 610 m 1
 170 632 185.667 652.667 211 672 c 0
 232.333 689.333 255.667 698 281 698 c 0
 294.333 698 307 694 319 686 c 0
 332.333 678 340 667 342 653 c 2
 344 639 l 1
 340 610 l 1
 332 588.667 316.333 568.333 293 549 c 0
 271 531 247.667 522 223 522 c 0
 199 522 181.333 531 170 549 c 0
 163.333 560.333 160 572.667 160 586 c 1
 164 610 l 1
EndSplineSet
EndChar
StartChar: less
Encoding: 30 60
OldEncoding: 60
Width: 716
Flags: W
Fore
752 582 m 1
 721 483 l 1
 172 285 l 1
 592 86 l 1
 559 -12 l 1
 43 242 l 1
 72 328 l 1
 752 582 l 1
EndSplineSet
EndChar
StartChar: equal
Encoding: 31 61
OldEncoding: 61
Width: 716
Flags: W
Fore
109 432 m 1
 702 432 l 1
 676 346 l 1
 82 346 l 1
 109 432 l 1
41 223 m 1
 635 223 l 1
 608 137 l 1
 14 137 l 1
 41 223 l 1
EndSplineSet
EndChar
StartChar: greater
Encoding: 32 62
OldEncoding: 62
Width: 716
Flags: W
Fore
676 328 m 1
 647 242 l 1
 -35 -12 l 1
 -2 86 l 1
 543 285 l 1
 127 483 l 1
 158 582 l 1
 676 328 l 1
EndSplineSet
EndChar
StartChar: question
Encoding: 33 63
OldEncoding: 63
Width: 684
Flags: W
Fore
340 240 m 1
 225 240 l 1
 250 313 l 2
 262.667 349 283.667 381.333 313 410 c 0
 337.667 434 372 462 416 494 c 2
 461 526 l 1
 471 534.667 484.667 545 502 557 c 1
 537 592 l 1
 562.333 627.333 578.667 656 586 678 c 0
 591.333 690.667 594 705 594 721 c 1
 590 748 l 1
 584 768 572.333 784.333 555 797 c 1
 533.667 807.667 509 813 481 813 c 0
 442.333 813 409 805.667 381 791 c 0
 355 777.667 331.667 758.333 311 733 c 0
 295.667 714.333 282.667 692 272 666 c 1
 256 618 l 1
 147 618 l 1
 164.333 674 189 722.667 221 764 c 1
 250.333 804.667 290.667 838.667 342 866 c 0
 393.333 893.333 452 907 518 907 c 1
 561 905 l 1
 612.333 899 649.333 882.667 672 856 c 0
 694.667 830 707 801.333 709 770 c 1
 709 760 l 2
 709 728.667 704 699.333 694 672 c 1
 686.667 646 673.667 618.667 655 590 c 0
 631.667 551.333 569.667 496 469 424 c 1
 441.667 406 419 388.333 401 371 c 0
 378.333 347 363.333 322.333 356 297 c 2
 340 240 l 1
147 0 m 1
 188 127 l 1
 301 127 l 1
 260 0 l 1
 147 0 l 1
EndSplineSet
EndChar
StartChar: at
Encoding: 34 64
OldEncoding: 64
Width: 1247
Flags: W
Fore
1001 612 m 1
 762 244 l 1
 741 207 l 1
 739 190 l 1
 741 174 l 1
 748.333 159.333 767.667 152 799 152 c 1
 836.333 160 871.667 175 905 197 c 0
 937.667 217.667 965.667 240.667 989 266 c 0
 1042.33 326.667 1082 396.333 1108 475 c 1
 1110 518 l 1
 1106 582 l 1
 1100.67 616 1089.67 646.667 1073 674 c 0
 1059 698 1029.67 724 985 752 c 0
 939.667 779.333 894 797.667 848 807 c 0
 825.333 811 801.333 813 776 813 c 0
 720 813 663.333 802.667 606 782 c 0
 552 763.333 499.667 737.667 449 705 c 0
 393.667 669.667 342.333 627.333 295 578 c 0
 249 530.667 215.667 489.667 195 455 c 0
 169 411.667 150.333 373.333 139 340 c 0
 123 290.667 115 243.667 115 199 c 1
 119 145 l 1
 124.333 108.333 143.333 71.6667 176 35 c 1
 209.333 -5 250.333 -36.3333 299 -59 c 0
 338.333 -78.3333 389.667 -88 453 -88 c 0
 527.667 -88 613 -73.6667 709 -45 c 1
 719 -127 l 1
 609 -162.333 510 -180 422 -180 c 0
 355.333 -180 293.333 -170 236 -150 c 1
 192 -132.667 144.667 -101.667 94 -57 c 0
 41.3333 -9 11.3333 42 4 96 c 0
 1.33333 110 -1.0842e-19 131.333 0 160 c 0
 0 208 9.66667 262.667 29 324 c 0
 43.6667 372.667 62 413.333 84 446 c 1
 120.667 506 167 566.333 223 627 c 1
 282.333 689 348.667 741.333 422 784 c 0
 464.667 809.333 507.667 830.667 551 848 c 0
 601.667 867.333 650.667 881.667 698 891 c 0
 756 902.333 807.333 907 852 905 c 0
 910.667 903 972.667 886 1038 854 c 0
 1104.67 822.667 1151.33 781 1178 729 c 1
 1198 698.333 1210 660 1214 614 c 0
 1216 604.667 1217 590.333 1217 571 c 0
 1217 542.333 1212.67 512.333 1204 481 c 0
 1186.67 427 1168.33 382 1149 346 c 1
 1112.33 296.667 1086.33 263.333 1071 246 c 0
 1039 209.333 1006.33 177.333 973 150 c 0
 929 114.667 882.667 90.6667 834 78 c 0
 807.333 70 775 66 737 66 c 0
 709 66 690 68 680 72 c 1
 658.667 77.3333 645 89.6667 639 109 c 1
 632.333 124.333 629 137 629 147 c 2
 629 158 l 1
 598 133 l 2
 588.667 125.667 573.667 116.667 553 106 c 0
 535.667 96.6667 515.333 88.6667 492 82 c 0
 466.667 75.3333 443.333 72 422 72 c 0
 398 72 376.667 76 358 84 c 0
 328.667 98 309.667 115.667 301 137 c 0
 293 161.667 288.333 185.667 287 209 c 1
 287 217 l 2
 287 240.333 291 266.333 299 295 c 1
 309 321 320 345 332 367 c 0
 382 456.333 452.333 528.667 543 584 c 1
 608.333 622 669.667 641 727 641 c 0
 743.667 641 758 639 770 635 c 0
 794 627 812.333 612.667 825 592 c 0
 836.333 575.333 842.667 557 844 537 c 1
 844 530 l 1
 897 612 l 1
 1001 612 l 1
776 463 m 1
 780 494 l 1
 781.333 502 780 509.333 776 516 c 0
 768 531.333 752.333 541 729 545 c 1
 721 549 709.333 551 694 551 c 0
 665.333 551 634.667 542.667 602 526 c 0
 570 509.333 543.333 490.333 522 469 c 0
 495.333 441 474.333 413 459 385 c 1
 439 358.333 423.333 328.333 412 295 c 0
 406 275.667 403 258.667 403 244 c 0
 403 230 406.667 214.333 414 197 c 1
 424 165.667 447.667 150 485 150 c 1
 516 154 l 1
 558 164.667 598.333 190.333 637 231 c 0
 661.667 255.667 688.333 291.333 717 338 c 0
 747.667 387.333 767.333 429 776 463 c 1
EndSplineSet
EndChar
StartChar: A
Encoding: 35 65
OldEncoding: 65
Width: 819
Flags: W
Fore
182 268 m 1
 -2 0 l 1
 -125 0 l 1
 492 895 l 1
 633 895 l 1
 657 0 l 1
 528 0 l 1
 524 268 l 1
 182 268 l 1
516 756 m 1
 244 365 l 1
 522 365 l 1
 516 756 l 1
EndSplineSet
EndChar
StartChar: B
Encoding: 36 66
OldEncoding: 66
Width: 819
Flags: W
Fore
393 0 m 2
 -49 0 l 1
 242 895 l 1
 641 895 l 2
 671.667 895 699.667 888 725 874 c 0
 755 858.667 776 841 788 821 c 0
 803.333 798.333 811 771.667 811 741 c 1
 807 698 l 1
 769.667 582 707.667 507.667 621 475 c 1
 657 455 l 1
 669 447 680.333 436 691 422 c 2
 694 418 l 2
 705.333 400 713 377.333 717 350 c 1
 717 336 l 2
 717 302.667 711.333 271.333 700 242 c 1
 682.667 189.333 653.333 145 612 109 c 0
 571.333 73 532.667 46.3333 496 29 c 0
 454 9.66667 419.667 -8.67362e-19 393 0 c 2
326 795 m 1
 233 512 l 1
 471 512 l 2
 534.333 512 580.667 526.333 610 555 c 0
 641.333 584.333 665.333 625.333 682 678 c 1
 684 700 l 1
 684 733.333 669 756.667 639 770 c 0
 598.333 786.667 563.667 795 535 795 c 2
 326 795 l 1
201 410 m 1
 100 102 l 1
 389 102 l 2
 441.667 102 485.333 119.333 520 154 c 0
 556.667 189.333 582.667 232.333 598 283 c 1
 600 315 l 1
 600 347.667 589.667 371 569 385 c 1
 537.667 401.667 490 410 426 410 c 2
 201 410 l 1
EndSplineSet
EndChar
StartChar: C
Encoding: 37 67
OldEncoding: 67
Width: 886
Flags: W
Fore
872 618 m 1
 754 618 l 1
 752 656 744.333 690.333 731 721 c 0
 721.667 741 709.333 756.667 694 768 c 1
 677.333 782.667 659.667 793 641 799 c 0
 625 804.333 603 807 575 807 c 0
 540.333 807 503 799.333 463 784 c 0
 421.667 769.333 384.667 748.333 352 721 c 0
 314.667 688.333 280.667 647.333 250 598 c 0
 220.667 550 196 497.333 176 440 c 0
 158.667 388.667 150 337.667 150 287 c 2
 150 281 l 2
 150 234.333 157.333 194.667 172 162 c 0
 198.667 104.667 254.667 76 340 76 c 0
 417.333 76 487.667 104.667 551 162 c 0
 574.333 182.667 596 207.333 616 236 c 1
 639.333 264 660.667 294.667 680 328 c 1
 795 328 l 1
 741 219.333 667.667 131 575 63 c 0
 551 44.3333 511 24 455 2 c 1
 397 -18.6667 345 -29 299 -29 c 0
 253.667 -29 208.667 -18.6667 164 2 c 1
 120 24.6667 91.3333 45 78 63 c 0
 46 109.667 29 167.333 27 236 c 1
 27 248 l 2
 27 312.667 37.6667 376.667 59 440 c 0
 81 508 115.333 577 162 647 c 1
 204 713 258 770.333 324 819 c 0
 351.333 839.667 393 860.333 449 881 c 0
 507.667 901 559.333 911 604 911 c 0
 648.667 911 693.667 901 739 881 c 1
 781 860.333 808.333 839.667 821 819 c 1
 855 775 872 713.667 872 635 c 2
 872 618 l 1
EndSplineSet
EndChar
StartChar: D
Encoding: 38 68
OldEncoding: 68
Width: 886
Flags: W
Fore
373 0 m 2
 -37 0 l 1
 256 895 l 1
 600 895 l 2
 696 895 767 863 813 799 c 1
 841.667 756.333 856 705 856 645 c 0
 856 608.333 851.333 570 842 530 c 1
 817 444 l 1
 775.667 314.667 711 211 623 133 c 0
 571.667 87 524.333 54.3333 481 35 c 1
 435.667 11.6667 399.667 -8.67362e-19 373 0 c 2
557 795 m 2
 338 795 l 1
 113 102 l 1
 362 102 l 2
 391.333 102 424.333 108.333 461 121 c 0
 479.667 128.333 507.667 148 545 180 c 1
 581 214 604.667 241.333 616 262 c 0
 656.667 334 685.333 394.667 702 444 c 0
 725.333 509.333 737 568.333 737 621 c 0
 737 644.333 734.333 664 729 680 c 0
 709 756.667 651.667 795 557 795 c 2
EndSplineSet
EndChar
StartChar: E
Encoding: 39 69
OldEncoding: 69
Width: 819
Flags: W
Fore
-33 0 m 1
 256 895 l 1
 879 895 l 1
 846 795 l 1
 338 795 l 1
 248 512 l 1
 733 512 l 1
 700 410 l 1
 213 410 l 1
 115 102 l 1
 641 102 l 1
 608 0 l 1
 -33 0 l 1
EndSplineSet
EndChar
StartChar: F
Encoding: 40 70
OldEncoding: 70
Width: 751
Flags: W
Fore
-35 0 m 1
 256 895 l 1
 856 895 l 1
 823 795 l 1
 338 795 l 1
 246 512 l 1
 672 512 l 1
 639 410 l 1
 213 410 l 1
 80 0 l 1
 -35 0 l 1
EndSplineSet
EndChar
StartChar: G
Encoding: 41 71
OldEncoding: 71
Width: 956
Flags: W
Fore
473 373 m 1
 508 475 l 1
 881 475 l 1
 725 -4 l 1
 653 -4 l 1
 662 106 l 1
 592 60 534.333 26 489 4 c 0
 441.667 -18 379.667 -29 303 -29 c 0
 265.667 -29 224 -19.3333 178 0 c 0
 134.667 18 104 37 86 57 c 0
 48 102.333 27 160.333 23 231 c 1
 23 254 l 2
 23 318 32.3333 379.333 51 438 c 0
 65 480.667 86.3333 525.667 115 573 c 1
 140.333 620.333 171 665 207 707 c 0
 240.333 745.667 282.667 783 334 819 c 0
 366.667 840.333 411.667 861 469 881 c 0
 532.333 901 589.667 911 641 911 c 0
 720.333 913 779.667 900.667 819 874 c 1
 873.667 840 906.667 801.333 918 758 c 0
 923.333 737.333 926 714 926 688 c 0
 926 668 924 647 920 625 c 1
 809 625 l 1
 811 655 l 1
 811 688.333 798 720 772 750 c 0
 737.333 788 682 807 606 807 c 0
 565.333 807 523 799.333 479 784 c 0
 433 768.667 392.667 747.667 358 721 c 0
 320.667 691 284 650 248 598 c 0
 214.667 549.333 188.667 496 170 438 c 0
 153.333 389.333 145 343 145 299 c 2
 145 283 l 1
 147 229.667 157.333 188 176 158 c 0
 210.667 100.667 274.333 72 367 72 c 0
 429 72 485.667 86.3333 537 115 c 0
 574.333 135 607.667 158 637 184 c 0
 663 207.333 682.667 231.333 696 256 c 1
 710.667 278 721 298.333 727 317 c 2
 745 373 l 1
 473 373 l 1
EndSplineSet
EndChar
StartChar: H
Encoding: 42 72
OldEncoding: 72
Width: 886
Flags: W
Fore
530 0 m 1
 664 410 l 1
 205 410 l 1
 72 0 l 1
 -43 0 l 1
 248 895 l 1
 362 895 l 1
 238 512 l 1
 696 512 l 1
 821 895 l 1
 936 895 l 1
 645 0 l 1
 530 0 l 1
EndSplineSet
EndChar
StartChar: I
Encoding: 43 73
OldEncoding: 73
Width: 342
Flags: W
Fore
-23 0 m 1
 268 895 l 1
 383 895 l 1
 92 0 l 1
 -23 0 l 1
EndSplineSet
EndChar
StartChar: J
Encoding: 44 74
OldEncoding: 74
Width: 614
Flags: W
Fore
-29 285 m 1
 90 285 l 1
 59 195 l 1
 55 179.667 53 166 53 154 c 0
 53 138 55.6667 125.667 61 117 c 0
 72.3333 95 89.6667 81.3333 113 76 c 1
 143 72 l 1
 191 72 235.333 89.6667 276 125 c 0
 306.667 151.667 334.667 205.667 360 287 c 1
 557 895 l 1
 674 895 l 1
 442 186 l 1
 402 104 345.333 43.3333 272 4 c 0
 227.333 -20 166 -31 88 -29 c 0
 13.3333 -27 -33.6667 -1 -53 49 c 0
 -63 76.3333 -68 103 -68 129 c 0
 -68 145 -64.3333 165.333 -57 190 c 2
 -29 285 l 1
EndSplineSet
EndChar
StartChar: K
Encoding: 45 75
OldEncoding: 75
Width: 819
Flags: W
Fore
242 895 m 1
 358 895 l 1
 215 453 l 1
 803 895 l 1
 954 895 l 1
 465 530 l 1
 659 0 l 1
 526 0 l 1
 362 451 l 1
 168 305 l 1
 68 0 l 1
 -49 0 l 1
 242 895 l 1
EndSplineSet
EndChar
StartChar: L
Encoding: 46 76
OldEncoding: 76
Width: 684
Flags: W
Fore
244 895 m 1
 358 895 l 1
 100 102 l 1
 543 102 l 1
 510 0 l 1
 -47 0 l 1
 244 895 l 1
EndSplineSet
EndChar
StartChar: M
Encoding: 47 77
OldEncoding: 77
Width: 1024
Flags: W
Fore
428 0 m 1
 309 0 l 1
 301 727 l 1
 66 0 l 1
 -53 0 l 1
 238 895 l 1
 401 895 l 1
 412 133 l 1
 918 895 l 1
 1081 895 l 1
 791 0 l 1
 672 0 l 1
 907 727 l 1
 428 0 l 1
EndSplineSet
EndChar
StartChar: N
Encoding: 48 78
OldEncoding: 78
Width: 886
Flags: W
Fore
649 0 m 1
 516 0 l 1
 297 717 l 1
 63 0 l 1
 -51 0 l 1
 240 895 l 1
 375 895 l 1
 588 170 l 1
 823 895 l 1
 940 895 l 1
 649 0 l 1
EndSplineSet
EndChar
StartChar: O
Encoding: 49 79
OldEncoding: 79
Width: 956
Flags: W
Fore
633 911 m 0
 683.667 911 734 901 784 881 c 0
 830 861.667 861 841 877 819 c 1
 915 771.667 936 714.333 940 647 c 1
 940 627 l 2
 940 565 929.667 502.667 909 440 c 0
 886.333 368.667 852.333 300.667 807 236 c 0
 762.333 171.333 703.667 113.667 631 63 c 0
 600.333 43 556.667 22.6667 500 2 c 0
 438 -18.6667 380.667 -29 328 -29 c 0
 277.333 -29 227.333 -18.6667 178 2 c 1
 128 25.3333 96 45.6667 82 63 c 0
 42 112.333 20 170 16 236 c 1
 16 260 l 2
 16 314.667 25.6667 374.667 45 440 c 0
 58.3333 480 78.6667 525 106 575 c 0
 134.667 625.667 167 671 203 711 c 0
 241 753 282.667 789 328 819 c 1
 357.333 840.333 402.333 861 463 881 c 0
 526.333 901 583 911 633 911 c 0
598 807 m 0
 557.333 807 515 799.333 471 784 c 0
 427 769.333 387.333 748.333 352 721 c 0
 312 689.667 275.333 648.667 242 598 c 1
 209.333 552 183.333 499.333 164 440 c 1
 146 392 137 343.667 137 295 c 2
 137 285 l 1
 139 238.333 150.667 197.333 172 162 c 0
 208.667 104.667 271.333 76 360 76 c 0
 454 76 536 104.667 606 162 c 1
 647.333 193.333 685 234.333 719 285 c 0
 749.667 330.333 775 382 795 440 c 1
 811 494 819 545.333 819 594 c 2
 819 598 l 1
 817 650.667 806 691.667 786 721 c 1
 771.333 749.667 747 770.667 713 784 c 0
 677 799.333 638.667 807 598 807 c 0
EndSplineSet
EndChar
StartChar: P
Encoding: 50 80
OldEncoding: 80
Width: 819
Flags: W
Fore
-31 0 m 1
 258 895 l 1
 633 895 l 2
 701.667 895 756.333 878.667 797 846 c 1
 824.333 822 838 787 838 741 c 0
 838 719.667 835.667 698.667 831 678 c 1
 819 633 l 1
 793 551.667 747.333 488.667 682 444 c 1
 615.333 400.667 555.333 379 502 379 c 2
 205 379 l 1
 82 0 l 1
 -31 0 l 1
340 795 m 1
 240 481 l 1
 532 481 l 2
 552 481 582.333 494.667 623 522 c 0
 659.667 547.333 687.667 589 707 647 c 1
 711 666.333 713 683.333 713 698 c 0
 713 726.667 704.667 748 688 762 c 0
 664 784 634 795 598 795 c 2
 340 795 l 1
EndSplineSet
EndChar
StartChar: Q
Encoding: 51 81
OldEncoding: 81
Width: 956
Flags: W
Fore
680 94 m 1
 766 0 l 1
 684 -72 l 1
 592 33 l 1
 501.333 -6.33333 416 -27 336 -29 c 0
 285.333 -29 235.333 -18.6667 186 2 c 1
 137.333 24.6667 105.333 45 90 63 c 0
 52 109.667 31 167.333 27 236 c 1
 25 260 l 1
 25 318.667 35 378.667 55 440 c 0
 73 492 93 537 115 575 c 0
 142.333 625 174.333 670.333 211 711 c 0
 249 753 290.667 789 336 819 c 0
 366.667 840.333 411 861 469 881 c 0
 532.333 901 589.667 911 641 911 c 0
 692.333 911 743 901 793 881 c 0
 835.667 862.333 866.333 841.667 885 819 c 0
 923 773 944 715.667 948 647 c 1
 948 627 l 2
 948 566.333 938 504 918 440 c 0
 896 374.667 865 312 825 252 c 1
 786.333 190 738 137.333 680 94 c 1
522 109 m 1
 457 182 l 1
 535 252 l 1
 618 162 l 1
 644.667 183.333 669.333 208.667 692 238 c 0
 718.667 270 740.667 302 758 334 c 0
 777.333 371.333 792.333 406.667 803 440 c 0
 819 494 827 545.333 827 594 c 2
 827 598 l 1
 825 650 814.333 691 795 721 c 0
 777 749.667 752.333 770.667 721 784 c 0
 685 799.333 646.667 807 606 807 c 0
 565.333 807 523 799.333 479 784 c 0
 435 769.333 395.333 748.333 360 721 c 0
 324.667 694.333 288 653.333 250 598 c 0
 215.333 546.667 189.333 494 172 440 c 0
 155.333 386.667 147 338.333 147 295 c 2
 147 285 l 1
 150.333 234.333 161.333 193.333 180 162 c 0
 214.667 104.667 277.667 76 369 76 c 0
 422.333 76 473.333 87 522 109 c 1
EndSplineSet
EndChar
StartChar: R
Encoding: 52 82
OldEncoding: 82
Width: 886
Flags: W
Fore
-29 0 m 1
 260 895 l 1
 659 895 l 2
 745.667 895 809.333 880.667 850 852 c 0
 874.667 833.333 887 802.667 887 760 c 0
 887 729.333 882 698.667 872 668 c 0
 854.667 612 832.333 568.333 805 537 c 0
 779.667 509.667 738.667 478 682 442 c 1
 717.333 414 737 387.333 741 362 c 1
 741 354 l 2
 741 328 731 281 711 213 c 0
 691.667 153 682 111.333 682 88 c 2
 682 78 l 2
 682 58 687.333 41.6667 698 29 c 1
 688 0 l 1
 551 0 l 1
 551 20 l 2
 551 40.6667 554.333 71.6667 561 113 c 1
 596 217 l 2
 606.667 248.333 612 277.667 612 305 c 1
 608 342 l 1
 598 370.667 563.333 385 504 385 c 2
 209 385 l 1
 84 0 l 1
 -29 0 l 1
631 795 m 2
 342 795 l 1
 244 487 l 1
 532 487 l 2
 635.333 487 705 532.333 741 623 c 1
 751 644.333 756 669.333 756 698 c 0
 756 762.667 714.333 795 631 795 c 2
EndSplineSet
EndChar
StartChar: S
Encoding: 53 83
OldEncoding: 83
Width: 819
Flags: W
Fore
797 635 m 1
 684 635 l 1
 690.667 657 694 676 694 692 c 0
 694 727.333 680.333 756 653 778 c 0
 632.333 793.333 612 803 592 807 c 0
 569.333 811 543.333 813 514 813 c 0
 450 813 397.333 798 356 768 c 0
 312 738 283.333 703.333 270 664 c 0
 266 650.667 264 639 264 629 c 1
 266 610 l 1
 269.333 596 279 581.667 295 567 c 1
 326.333 546.333 366.667 531.333 416 522 c 1
 616 463 l 1
 651.333 449 678 422.333 696 383 c 0
 707.333 359 713 335 713 311 c 0
 713 293.667 710.333 277.333 705 262 c 0
 686.333 203.333 654.667 151.333 610 106 c 1
 565.333 63.3333 512.333 30 451 6 c 1
 380.333 -19.3333 316 -31 258 -29 c 1
 196.667 -29 144 -20 100 -2 c 1
 62 11.3333 31.3333 40 8 84 c 1
 -6.66667 116.667 -14 145.333 -14 170 c 2
 -14 176 l 1
 -12 200.667 -4.66667 237 8 285 c 1
 117 285 l 1
 108.333 260.333 104 237 104 215 c 0
 104 193.667 107 175.333 113 160 c 1
 123 116.667 159.667 90 223 80 c 0
 248.333 77.3333 287.333 76 340 76 c 1
 398.667 82 445 96.3333 479 119 c 0
 529.667 151.667 561.667 191.333 575 238 c 1
 579.667 249.333 582 260.667 582 272 c 0
 582 300 571 324 549 344 c 1
 518.333 362 461 381 377 401 c 0
 329.667 412.333 297 422.667 279 432 c 1
 213 457 l 2
 165 473.667 141 509 141 563 c 0
 141 583.667 144 603 150 621 c 0
 166 675 193 724.667 231 770 c 0
 269 814 314.333 848.667 367 874 c 0
 419 898.667 478.333 911 545 911 c 0
 639.667 911 706.333 895.333 745 864 c 0
 789 828 811 782.333 811 727 c 0
 811 696.333 806.333 665.667 797 635 c 1
EndSplineSet
EndChar
StartChar: T
Encoding: 54 84
OldEncoding: 84
Width: 751
Flags: W
Fore
176 0 m 1
 434 795 l 1
 139 795 l 1
 172 895 l 1
 874 895 l 1
 842 795 l 1
 549 795 l 1
 291 0 l 1
 176 0 l 1
EndSplineSet
EndChar
StartChar: U
Encoding: 55 85
OldEncoding: 85
Width: 886
Flags: W
Fore
254 895 m 1
 369 895 l 1
 162 256 l 1
 156.667 242 154 225.667 154 207 c 0
 154 179.667 161.333 153.667 176 129 c 0
 199.333 89.6667 251.333 70 332 70 c 0
 408.667 70 472.667 89.6667 524 129 c 0
 573.333 168.333 605.667 210.667 621 256 c 1
 827 895 l 1
 942 895 l 1
 733 250 l 1
 724.333 222 709.333 193.333 688 164 c 1
 668 132.667 639.333 102 602 72 c 0
 566.667 42 523 18 471 0 c 0
 416.333 -19.3333 359 -29 299 -29 c 0
 218.333 -29 156.333 -14 113 16 c 0
 69.6667 47.3333 45 85 39 129 c 1
 35 145 33 161.333 33 178 c 0
 33 206.667 36.3333 230.667 43 250 c 1
 254 895 l 1
EndSplineSet
EndChar
StartChar: V
Encoding: 56 86
OldEncoding: 86
Width: 819
Flags: W
Fore
319 137 m 1
 815 895 l 1
 938 895 l 1
 332 0 l 1
 209 0 l 1
 182 895 l 1
 305 895 l 1
 319 137 l 1
EndSplineSet
EndChar
StartChar: W
Encoding: 57 87
OldEncoding: 87
Width: 1159
Flags: W
Fore
756 174 m 1
 1159 895 l 1
 1286 895 l 1
 768 0 l 1
 641 0 l 1
 674 729 l 1
 233 0 l 1
 109 0 l 1
 172 895 l 1
 301 895 l 1
 233 174 l 1
 666 895 l 1
 791 895 l 1
 756 174 l 1
EndSplineSet
EndChar
StartChar: X
Encoding: 58 88
OldEncoding: 88
Width: 819
Flags: W
Fore
930 895 m 1
 489 459 l 1
 651 0 l 1
 510 0 l 1
 389 365 l 1
 25 0 l 1
 -117 0 l 1
 346 459 l 1
 197 895 l 1
 334 895 l 1
 451 553 l 1
 791 895 l 1
 930 895 l 1
EndSplineSet
EndChar
StartChar: Y
Encoding: 59 89
OldEncoding: 89
Width: 819
Flags: W
Fore
162 895 m 1
 303 895 l 1
 422 461 l 1
 817 895 l 1
 958 895 l 1
 444 350 l 1
 330 0 l 1
 213 0 l 1
 328 350 l 1
 162 895 l 1
EndSplineSet
EndChar
StartChar: Z
Encoding: 60 90
OldEncoding: 90
Width: 751
Flags: W
Fore
184 795 m 1
 217 895 l 1
 860 895 l 1
 825 791 l 1
 68 102 l 1
 604 102 l 1
 571 0 l 1
 -111 0 l 1
 -80 98 l 1
 682 795 l 1
 184 795 l 1
EndSplineSet
EndChar
StartChar: bracketleft
Encoding: 61 91
OldEncoding: 91
Width: 342
Flags: W
Fore
266 895 m 1
 496 895 l 1
 467 803 l 1
 342 803 l 1
 25 -170 l 1
 150 -170 l 1
 121 -262 l 1
 -109 -262 l 1
 266 895 l 1
EndSplineSet
EndChar
StartChar: backslash
Encoding: 62 92
OldEncoding: 92
Width: 342
Flags: W
Fore
131 -25 m 1
 141 895 l 1
 207 895 l 1
 199 -25 l 1
 131 -25 l 1
EndSplineSet
EndChar
StartChar: bracketright
Encoding: 63 93
OldEncoding: 93
Width: 342
Flags: W
Fore
186 803 m 1
 217 895 l 1
 444 895 l 1
 68 -264 l 1
 -160 -264 l 1
 -129 -172 l 1
 -6 -172 l 1
 309 803 l 1
 186 803 l 1
EndSplineSet
EndChar
StartChar: asciicircum
Encoding: 64 94
OldEncoding: 94
Width: 575
Flags: W
Fore
-23 410 m 1
 319 877 l 1
 410 877 l 1
 446 410 l 1
 360 410 l 1
 330 772 l 1
 63 410 l 1
 -23 410 l 1
EndSplineSet
EndChar
StartChar: underscore
Encoding: 65 95
OldEncoding: 95
Width: 684
Flags: W
Fore
721 -154 m 1
 700 -215 l 1
 -37 -215 l 1
 -18 -154 l 1
 721 -154 l 1
EndSplineSet
EndChar
StartChar: grave
Encoding: 66 96
OldEncoding: 96
Width: 282
Flags: W
Fore
23 672 m 0
 39 728 69 771.667 113 803 c 0
 153 831.667 195.333 849.333 240 856 c 1
 256 856 264 853.333 264 848 c 2
 264 846 l 1
 254 836 l 1
 176 801 l 1
 145.333 784.333 124.333 763 113 737 c 1
 129 741 l 1
 154 745 l 1
 193.333 741 213 723.333 213 692 c 0
 213 682.667 211 671.667 207 659 c 0
 199 635.667 185.333 615.333 166 598 c 1
 144 581.333 120 573 94 573 c 0
 42 573 16 593.667 16 635 c 0
 16 645.667 18.3333 658 23 672 c 0
EndSplineSet
EndChar
StartChar: a
Encoding: 67 97
OldEncoding: 97
Width: 684
Flags: W
Fore
653 528 m 1
 512 96 l 1
 512 88 l 2
 512 82 516 76 524 70 c 0
 535.333 62.6667 551 59 571 59 c 1
 551 -16 l 1
 461 -29 l 1
 417 -13.6667 395 10.3333 395 43 c 1
 399 66 l 1
 347 33.3333 307.667 10.6667 281 -2 c 0
 238.333 -20 200 -29 166 -29 c 0
 95.3333 -31 45.3333 -13 16 25 c 0
 0 45 -8 69.3333 -8 98 c 0
 -8 121.333 -3.33333 146.667 6 174 c 0
 25.3333 224 51.3333 261.667 84 287 c 0
 116.667 312.333 153.667 330.667 195 342 c 0
 225 350.667 256.333 357.333 289 362 c 0
 317 367.333 347.667 371 381 373 c 2
 446 379 l 1
 484 389 506 405.333 512 428 c 1
 537 506 l 1
 537 510 l 2
 537 528 524 543 498 555 c 1
 462 567.667 423.667 573 383 571 c 0
 308.333 569 255 529.667 223 453 c 1
 127 453 l 1
 147 508 l 1
 165.667 538 185.667 562 207 580 c 0
 235.667 604 265.667 622.333 297 635 c 0
 322.333 646.333 364 656 422 664 c 1
 466 664 507 660.333 545 653 c 0
 587 643 617.667 627.333 637 606 c 0
 650.333 592.667 657 575 657 553 c 1
 653 528 l 1
434 186 m 1
 475 315 l 1
 451.667 305.667 422.333 299 387 295 c 1
 283 279 l 2
 253.667 273.667 226.333 266.667 201 258 c 0
 182.333 250.667 165.333 239.667 150 225 c 1
 132 211.667 119 193.333 111 170 c 1
 105 158 102 144.333 102 129 c 0
 102 113 107.667 99.3333 119 88 c 1
 134.333 68.6667 156.667 59 186 59 c 0
 224 57 263 65.3333 303 84 c 0
 340.333 100 370.333 118.333 393 139 c 0
 419 163 432.667 178.667 434 186 c 1
EndSplineSet
EndChar
StartChar: b
Encoding: 68 98
OldEncoding: 98
Width: 684
Flags: W
Fore
215 895 m 1
 319 895 l 1
 213 567 l 1
 229.667 586.333 255.667 605.667 291 625 c 1
 319 637.667 342.667 647 362 653 c 1
 395.333 660.333 422.667 664 444 664 c 0
 518 664 571.333 636.667 604 582 c 1
 618 563.333 627 540 631 512 c 1
 633 467 l 1
 631 426 l 1
 627.667 400 620 366.667 608 326 c 1
 592 279 l 1
 564.667 213.667 530.333 157.667 489 111 c 1
 444.333 57 395.333 19.3333 342 -2 c 1
 302 -20 257 -29 207 -29 c 0
 161 -29 126.667 -20 104 -2 c 1
 67.3333 31.3333 45.6667 56 39 72 c 1
 14 0 l 1
 -74 0 l 1
 215 895 l 1
373 129 m 1
 424.333 180.333 463 244.667 489 322 c 0
 502.333 358.667 510 392.667 512 424 c 1
 512 440 l 2
 512 460.667 508.667 479.333 502 496 c 0
 486.667 540 448.333 561 387 559 c 0
 331.667 559 282.667 538.667 240 498 c 0
 222.667 480.667 202.667 454.667 180 420 c 1
 157.333 382 140.333 344.333 129 307 c 0
 117 270.333 111 235.667 111 203 c 0
 111 179 113.667 157.667 119 139 c 0
 129 99 161.667 76 217 70 c 1
 279.667 70 331.667 89.6667 373 129 c 1
EndSplineSet
EndChar
StartChar: c
Encoding: 69 99
OldEncoding: 99
Width: 614
Flags: W
Fore
457 223 m 1
 555 223 l 1
 537 170.333 511.667 126.667 479 92 c 0
 443.667 53.3333 400.667 23.3333 350 2 c 0
 292.667 -20.6667 242.333 -31 199 -29 c 1
 155.667 -29 114.667 -16 76 10 c 0
 44 32.6667 23.3333 65.6667 14 109 c 1
 12 154 l 1
 12 210.667 22.3333 268.667 43 328 c 0
 75 423.333 132.333 505.667 215 575 c 0
 282.333 632.333 356.667 662 438 664 c 0
 472.667 664 505.667 659 537 649 c 0
 565.667 639 586.667 624.667 600 606 c 1
 621.333 592 633 569 635 537 c 1
 635 516 l 2
 635 488 631 458.667 623 428 c 1
 520 428 l 1
 524 450.667 526 469.667 526 485 c 1
 524 508 l 1
 519.333 526 508.667 539.667 492 549 c 0
 466 562.333 439.333 569 412 569 c 0
 362.667 567 312.667 544.667 262 502 c 0
 220.667 467.333 186.667 414 160 342 c 0
 136.667 276.667 125 224.667 125 186 c 1
 127 168 l 1
 137 100.667 180 68 256 70 c 0
 280 70 307.333 77.3333 338 92 c 0
 367.333 106 387.667 121.667 399 139 c 1
 424.333 167.667 443.667 195.667 457 223 c 1
EndSplineSet
EndChar
StartChar: d
Encoding: 70 100
OldEncoding: 100
Width: 684
Flags: W
Fore
655 895 m 1
 758 895 l 1
 467 -2 l 1
 377 -2 l 1
 401 74 l 1
 361.667 40 324.333 14 289 -4 c 0
 257 -20.6667 217.333 -29 170 -29 c 0
 120.667 -29 79.6667 -20 47 -2 c 0
 11.6667 19.3333 -11.6667 56.3333 -23 109 c 0
 -27 129 -29 150 -29 172 c 0
 -29 208.667 -24 243.333 -14 276 c 1
 -11.3333 292.667 -6.66667 310 0 328 c 0
 15.3333 376 38 423 68 469 c 1
 95.3333 514.333 127.333 551.333 164 580 c 0
 237.333 636 309.667 664 381 664 c 0
 435 664 477.333 651 508 625 c 0
 529.333 606.333 543 587 549 567 c 1
 655 895 l 1
102 127 m 1
 121.333 87 160.333 68 219 70 c 0
 242.333 70 269 76.6667 299 90 c 0
 323.667 100.667 346.333 117 367 139 c 0
 410.333 186.333 443 241.667 465 305 c 1
 476.333 343 483 381.333 485 420 c 1
 485 436 l 2
 485 464.667 482.333 484.667 477 496 c 0
 461 536.667 425 557 369 557 c 0
 307.667 557 255.667 536.667 213 496 c 0
 167 452 133 393 111 319 c 1
 97 279 90 240.333 90 203 c 0
 90 175.667 94 150.333 102 127 c 1
EndSplineSet
EndChar
StartChar: e
Encoding: 71 101
OldEncoding: 101
Width: 684
Flags: W
Fore
618 281 m 1
 147 281 l 1
 139 258.333 133.667 234.333 131 209 c 1
 129 193 l 1
 129 171 131.667 153.667 137 141 c 0
 158.333 87.6667 198.667 61 258 61 c 0
 287.333 61 314.667 66 340 76 c 0
 367.333 88.6667 388.333 101 403 113 c 0
 417 124.333 431.333 139.333 446 158 c 0
 460.667 176.667 469.667 189.667 473 197 c 1
 578 197 l 1
 550.667 144.333 517.667 101.333 479 68 c 1
 446.333 37.3333 408.333 14 365 -2 c 1
 321.667 -20 277 -29 231 -29 c 0
 186.333 -29 147 -20 113 -2 c 0
 77.6667 16 52.3333 42 37 76 c 0
 25.6667 103.333 20 132 20 162 c 0
 20 208 29.6667 259.667 49 317 c 0
 85.6667 425.667 139.667 509 211 567 c 0
 291.667 631.667 381.667 664 481 664 c 1
 505 662 528.333 657 551 649 c 0
 575.667 640.333 594 629.333 606 616 c 1
 624 601.333 635.667 586.333 641 571 c 0
 651.667 544.333 658.667 515 662 483 c 1
 662 473 l 2
 662 451.667 659.667 429.333 655 406 c 0
 648.333 379.333 636 337.667 618 281 c 1
182 373 m 1
 537 373 l 1
 546.333 397 551 424.333 551 455 c 2
 551 461 l 1
 549 491.667 545 512 539 522 c 1
 537 536.667 528 549 512 559 c 0
 486.667 573 464.667 580 446 580 c 0
 382.667 582 329.667 562.667 287 522 c 1
 272.333 512.667 253.667 493 231 463 c 0
 213.667 439 197.333 409 182 373 c 1
EndSplineSet
EndChar
StartChar: f
Encoding: 72 102
OldEncoding: 102
Width: 342
Flags: W
Fore
-35 0 m 1
 143 551 l 1
 57 551 l 1
 88 645 l 1
 174 645 l 1
 209 754 l 2
 222.333 796 247 830.667 283 858 c 0
 316.333 882.667 341.333 895 358 895 c 1
 375.333 897.667 392.667 899 410 899 c 0
 432 899 449.667 897.667 463 895 c 1
 434 809 l 1
 396.667 809 368.667 805 350 797 c 1
 328.667 783.667 314.333 764.333 307 739 c 2
 279 645 l 1
 381 645 l 1
 348 551 l 1
 248 551 l 1
 68 0 l 1
 -35 0 l 1
EndSplineSet
EndChar
StartChar: g
Encoding: 73 103
OldEncoding: 103
Width: 684
Flags: W
Fore
645 645 m 1
 745 645 l 1
 571 109 l 1
 557 63.6667 536 9.66667 508 -53 c 1
 486 -96.3333 458 -136 424 -172 c 0
 391.333 -204.667 351 -228.667 303 -244 c 0
 259.667 -256 222 -264 190 -268 c 1
 124.667 -268 78.3333 -262 51 -250 c 0
 18.3333 -236 -4 -219 -16 -199 c 1
 -30 -181 -37 -160.333 -37 -137 c 2
 -37 -135 l 1
 -37 -129 l 2
 -37 -110.333 -35 -92 -31 -74 c 1
 76 -74 l 1
 74 -94 l 1
 74 -102 l 1
 76 -119 l 1
 76 -125.667 79.3333 -132.333 86 -139 c 0
 93.3333 -148.333 103.667 -156.667 117 -164 c 0
 133.667 -173.333 159 -178 193 -178 c 0
 226.333 -178 259.667 -172.667 293 -162 c 1
 327 -146.667 348.667 -132.333 358 -119 c 1
 372.667 -106.333 387 -85.6667 401 -57 c 0
 425.667 -11 445 34 459 78 c 1
 373.667 4.66667 292.333 -31 215 -29 c 0
 169.667 -27 130.667 -7.66667 98 29 c 1
 70 51 53 85 47 131 c 1
 45 168 l 1
 45 202.667 51 240.333 63 281 c 0
 81.6667 338.333 104.333 390.667 131 438 c 0
 164.333 493.333 195.667 535 225 563 c 0
 245 581 279.333 603 328 629 c 1
 378 652.333 424.333 664 467 664 c 0
 538.333 662 588.667 629.667 618 567 c 1
 645 645 l 1
416 119 m 0
 466 159.667 505.667 223 535 309 c 0
 548.333 348.333 555 387.333 555 426 c 2
 555 436 l 2
 555 466.667 549.667 490.667 539 508 c 1
 537 514.667 526 524.333 506 537 c 1
 486.667 546.333 464.667 551 440 551 c 0
 367.333 551 307.333 519.667 260 457 c 0
 235.333 425.667 209.333 377 182 311 c 1
 167.333 261.667 160 221.333 160 190 c 0
 160 169.333 162.667 152.333 168 139 c 0
 187.333 93 221.333 70 270 70 c 0
 324.667 68 373.333 84.3333 416 119 c 0
EndSplineSet
EndChar
StartChar: h
Encoding: 74 104
OldEncoding: 104
Width: 684
Flags: W
Fore
-59 0 m 1
 231 895 l 1
 334 895 l 1
 227 567 l 1
 269.667 601.667 315.667 628.333 365 647 c 1
 411.667 658.333 443 664 459 664 c 0
 483.667 664 515.667 656.333 555 641 c 0
 591.667 625 612 601.667 616 571 c 1
 618 539 l 1
 618 519 615.333 502.333 610 489 c 1
 453 0 l 1
 348 0 l 1
 492 440 l 2
 498.667 459.333 502 479.333 502 500 c 0
 502 526 493 543.667 475 553 c 1
 444.333 563.667 409.667 569 371 569 c 1
 338.333 563 298.667 544.667 252 514 c 1
 213.333 486.667 188.667 455.333 178 420 c 1
 43 0 l 1
 -59 0 l 1
EndSplineSet
EndChar
StartChar: i
Encoding: 75 105
OldEncoding: 105
Width: 272
Flags: W
Fore
250 645 m 1
 39 0 l 1
 -63 0 l 1
 147 645 l 1
 250 645 l 1
330 895 m 1
 289 768 l 1
 186 768 l 1
 227 895 l 1
 330 895 l 1
EndSplineSet
EndChar
StartChar: j
Encoding: 76 106
OldEncoding: 106
Width: 272
Flags: W
Fore
231 768 m 1
 272 895 l 1
 377 895 l 1
 336 768 l 1
 231 768 l 1
-211 -268 m 1
 -182 -178 l 1
 -119 -172 l 2
 -101 -170 -87.3333 -163.333 -78 -152 c 0
 -66 -139.333 -58.3333 -128.333 -55 -119 c 2
 193 645 l 1
 297 645 l 1
 41 -141 l 1
 33 -164.333 18.6667 -187.667 -2 -211 c 1
 -26 -233.667 -55.3333 -250 -90 -260 c 0
 -114 -265.333 -154.333 -268 -211 -268 c 1
EndSplineSet
EndChar
StartChar: k
Encoding: 77 107
OldEncoding: 107
Width: 614
Flags: W
Fore
217 895 m 1
 319 895 l 1
 152 377 l 1
 512 645 l 1
 645 645 l 1
 346 422 l 1
 471 0 l 1
 344 0 l 1
 246 344 l 1
 109 242 l 1
 29 0 l 1
 -72 0 l 1
 217 895 l 1
EndSplineSet
EndChar
StartChar: l
Encoding: 78 108
OldEncoding: 108
Width: 272
Flags: W
Fore
-61 0 m 1
 229 895 l 1
 332 895 l 1
 41 0 l 1
 -61 0 l 1
EndSplineSet
EndChar
StartChar: m
Encoding: 79 109
OldEncoding: 109
Width: 1024
Flags: W
Fore
-20 0 m 1
 188 645 l 1
 291 645 l 1
 264 563 l 1
 305.333 604.333 336 629 356 637 c 0
 394.667 655 437.667 664 485 664 c 0
 532.333 664 566 655.667 586 639 c 0
 606.667 620.333 621.667 596.333 631 567 c 1
 672 602 l 1
 680.667 610.667 691.667 619 705 627 c 2
 741 647 l 1
 776.333 658.333 810 664 842 664 c 0
 900 664 938 657 956 643 c 1
 968.667 636.333 977.667 625.333 983 610 c 1
 991.667 594.667 997 577.667 999 559 c 1
 999 553 l 2
 999 533 996.333 516.667 991 504 c 1
 829 0 l 1
 725 0 l 1
 874 461 l 2
 876 467.667 877 477 877 489 c 0
 877 542.333 846.667 569 786 569 c 0
 742.667 569 704.667 556.667 672 532 c 0
 638 506 612.667 474.667 596 438 c 1
 455 0 l 1
 352 0 l 1
 502 463 l 1
 506 477 508 489.333 508 500 c 0
 508 546 478 569 418 569 c 0
 377.333 569 337.667 554.667 299 526 c 0
 255 492.667 227 456 215 416 c 1
 82 0 l 1
 -20 0 l 1
EndSplineSet
EndChar
StartChar: n
Encoding: 80 110
OldEncoding: 110
Width: 684
Flags: W
Fore
186 645 m 1
 289 645 l 1
 262 563 l 1
 302 601 334 625 358 635 c 1
 398.667 656.333 445.333 666 498 664 c 0
 542 664 575.333 658.333 598 647 c 1
 618.667 634.333 635 617.333 647 596 c 0
 653.667 582.667 657 567.667 657 551 c 0
 657 536.333 655 520 651 502 c 1
 489 0 l 1
 385 0 l 1
 532 449 l 1
 538 465.667 541 480 541 492 c 1
 537 514 l 1
 529 534 518 547.667 504 555 c 0
 486 564.333 465.333 569 442 569 c 0
 394 569 346.333 551.333 299 516 c 0
 254.333 482.667 218 424.667 190 342 c 1
 80 0 l 1
 -23 0 l 1
 186 645 l 1
EndSplineSet
EndChar
StartChar: o
Encoding: 81 111
OldEncoding: 111
Width: 684
Flags: W
Fore
23 98 m 0
 18.3333 116 16 136.667 16 160 c 0
 16 201.333 25.6667 253.667 45 317 c 1
 75.6667 408.333 116 481.667 166 537 c 1
 209.333 582.333 255 615 303 635 c 0
 350.333 654.333 399.667 664 451 664 c 0
 497.667 664 540 653.667 578 633 c 1
 612.667 611.667 635 579.667 645 537 c 0
 651.667 513.667 655 491 655 469 c 0
 655 425.667 645.667 375 627 317 c 0
 600.333 232.333 560 159.333 506 98 c 0
 467.333 55.3333 423 23.3333 373 2 c 0
 320.333 -18.6667 271 -29 225 -29 c 0
 176.333 -29 134 -18.6667 98 2 c 0
 62 22 37 54 23 98 c 0
258 76 m 0
 291.333 76 324 84 356 100 c 0
 389.333 116 418 140.667 442 174 c 0
 480.667 225.333 506.667 273 520 317 c 0
 531.333 356.333 537 391.333 537 422 c 1
 535 463 l 1
 532.333 495.667 520 520.333 498 537 c 0
 475.333 553 448 561 416 561 c 0
 385.333 561 351.667 553.667 315 539 c 1
 279 521 248.333 495.667 223 463 c 1
 178 381 l 2
 164.667 355.667 155.333 334.333 150 317 c 0
 140 289.667 135 253.667 135 209 c 2
 135 174 l 1
 141 141.333 154.667 116.667 176 100 c 0
 198.667 84 226 76 258 76 c 0
EndSplineSet
EndChar
StartChar: p
Encoding: 82 112
OldEncoding: 112
Width: 684
Flags: W
Fore
20 -268 m 1
 -84 -268 l 1
 213 645 l 1
 303 645 l 1
 276 563 l 1
 298.667 585.667 336.333 611 389 639 c 1
 423.667 655.667 463.333 664 508 664 c 0
 556 664 595.667 655 627 637 c 0
 665.667 614.333 690 577.333 700 526 c 0
 704.667 507.333 707 486.333 707 463 c 0
 707 430.333 702 395.333 692 358 c 2
 680 311 l 1
 664 259.667 641.333 211.333 612 166 c 0
 582 118.667 548.667 81.6667 512 55 c 0
 438.667 -1 367 -29 297 -29 c 0
 243 -29 200.667 -16 170 10 c 0
 148.667 28 135 48 129 70 c 1
 20 -268 l 1
573 508 m 0
 556.333 549.333 517.667 569 457 567 c 0
 441 567 415 560.333 379 547 c 1
 351.667 531.667 329 514.667 311 496 c 0
 263.667 445.333 231 390 213 330 c 0
 201.667 295.333 195 259 193 221 c 1
 193 211 l 2
 193 179.667 195.667 155.667 201 139 c 1
 211 118.333 226 103.333 246 94 c 1
 263.333 83.3333 283.667 78 307 78 c 0
 370.333 78 422.333 98.3333 463 139 c 0
 508.333 182.333 541.667 240.333 563 313 c 1
 578.333 357 586 396.667 586 432 c 0
 586 460.667 581.667 486 573 508 c 0
EndSplineSet
EndChar
StartChar: q
Encoding: 83 113
OldEncoding: 113
Width: 684
Flags: W
Fore
459 -268 m 1
 356 -268 l 1
 465 70 l 1
 445.667 48 419 28 385 10 c 0
 337.667 -16 287 -29 233 -29 c 0
 163.667 -29 110 -1 72 55 c 0
 52.6667 84.3333 43 120.667 43 164 c 0
 43 207.333 52 255 70 307 c 2
 88 358 l 1
 116 422.667 150 478.667 190 526 c 0
 230.667 574.667 278.667 611.667 334 637 c 0
 376.667 655 422.333 664 471 664 c 0
 519.667 664 554.333 655.667 575 639 c 0
 604.333 615.667 625.667 590.333 639 563 c 1
 666 645 l 1
 754 645 l 1
 459 -268 l 1
305 508 m 1
 249 454 208.667 388.333 184 311 c 0
 172 272.333 166 234.333 166 197 c 0
 166 173.667 168.667 154.333 174 139 c 0
 190 98.3333 229 78 291 78 c 0
 314.333 78 340.333 83.3333 369 94 c 0
 391 102.667 414 117.667 438 139 c 1
 476.667 177.667 508 225.667 532 283 c 1
 538.667 295.667 544.333 310.667 549 328 c 0
 561 366.667 567 402.667 567 436 c 0
 567 459.333 564.333 479.333 559 496 c 1
 557 514.667 546 531 526 545 c 0
 504 559.667 481.667 567 459 567 c 0
 401.667 569 350.333 549.333 305 508 c 1
EndSplineSet
EndChar
StartChar: r
Encoding: 84 114
OldEncoding: 114
Width: 409
Flags: W
Fore
-25 0 m 1
 184 645 l 1
 289 645 l 1
 256 545 l 1
 283.333 575.667 316.667 604.333 356 631 c 1
 390.667 651 419.333 662 442 664 c 1
 502 664 l 1
 467 555 l 1
 423 555 389 550.333 365 541 c 0
 319.667 523 284 499 258 469 c 0
 230.667 435.667 207.333 391.333 188 336 c 1
 80 0 l 1
 -25 0 l 1
EndSplineSet
EndChar
StartChar: s
Encoding: 85 115
OldEncoding: 115
Width: 614
Flags: W
Fore
0 190 m 1
 100 190 l 1
 98 141 l 1
 98 133 l 2
 98 121.667 103 110 113 98 c 0
 122.333 86.6667 141.333 76 170 66 c 1
 185.333 62.6667 215.333 61 260 61 c 1
 303.333 69 332.667 78 348 88 c 1
 360.667 93.3333 374.333 105 389 123 c 1
 403 137 412 151.333 416 166 c 1
 420 193 l 1
 420 217 404.333 235.333 373 248 c 1
 319 262 l 2
 283 271.333 262 277 256 279 c 2
 201 295 l 2
 181.667 300.333 166.667 306.333 156 313 c 1
 117.333 329.667 98 359 98 401 c 0
 98 421.667 102.333 445 111 471 c 0
 129 530.333 167 577.333 225 612 c 0
 282.333 646.667 344.667 664 412 664 c 0
 536 664 598 621.667 598 537 c 0
 598 516.333 594 492.333 586 465 c 1
 483 465 l 1
 487 477 489 488 489 498 c 0
 489 511.333 485 524.333 477 537 c 0
 465 555 429 565 369 567 c 1
 304.333 563 255.667 540.667 223 500 c 0
 218.333 495.333 213.667 485 209 469 c 1
 205 444 l 1
 205 428.667 211.667 417.333 225 410 c 2
 258 393 l 1
 301 381 l 1
 360 362 l 1
 418.667 352 463.333 335.667 494 313 c 0
 515.333 297.667 526 272.667 526 238 c 0
 526 212 521.333 184 512 154 c 1
 498 120.667 475.333 90.3333 444 63 c 1
 411.333 32.3333 377.333 10.6667 342 -2 c 0
 301.333 -18 260.333 -27 219 -29 c 0
 171.667 -31 130.667 -28 96 -20 c 0
 24 -4 -12 37.3333 -12 104 c 0
 -12 129.333 -8 158 0 190 c 1
EndSplineSet
EndChar
StartChar: t
Encoding: 86 116
OldEncoding: 116
Width: 342
Flags: W
Fore
346 819 m 1
 291 645 l 1
 391 645 l 1
 360 551 l 1
 260 551 l 1
 115 102 l 1
 113 90 l 1
 113 74 127.333 66 156 66 c 1
 205 70 l 1
 176 -20 l 1
 149.333 -26 111.667 -29 63 -29 c 1
 34.3333 -25 14.6667 -12.6667 4 8 c 1
 -2.66667 24.6667 -6 37 -6 45 c 1
 -2 63 l 1
 156 551 l 1
 66 551 l 1
 96 645 l 1
 186 645 l 1
 244 819 l 1
 346 819 l 1
EndSplineSet
EndChar
StartChar: u
Encoding: 87 117
OldEncoding: 117
Width: 684
Flags: W
Fore
492 0 m 1
 389 0 l 1
 412 70 l 1
 374 34 341.667 10 315 -2 c 0
 271 -20 224.667 -29 176 -29 c 0
 134 -29 101.333 -24 78 -14 c 1
 39.3333 10 20 46 20 94 c 0
 20 110.667 21 123 23 131 c 1
 190 645 l 1
 293 645 l 1
 143 188 l 1
 137.667 174 135 158.333 135 141 c 0
 135 118.333 143.333 100 160 86 c 0
 174.667 75.3333 192.333 70 213 70 c 0
 243 70 267.667 72 287 76 c 1
 343 94.6667 386 122.667 416 160 c 0
 444 194.667 467 239.667 485 295 c 2
 598 645 l 1
 702 645 l 1
 492 0 l 1
EndSplineSet
EndChar
StartChar: v
Encoding: 88 118
OldEncoding: 118
Width: 614
Flags: W
Fore
246 0 m 1
 133 0 l 1
 119 645 l 1
 233 645 l 1
 231 123 l 1
 588 645 l 1
 705 645 l 1
 246 0 l 1
EndSplineSet
EndChar
StartChar: w
Encoding: 89 119
OldEncoding: 119
Width: 886
Flags: W
Fore
90 0 m 1
 115 645 l 1
 229 645 l 1
 193 143 l 1
 481 645 l 1
 608 645 l 1
 565 143 l 1
 860 645 l 1
 977 645 l 1
 575 0 l 1
 461 0 l 1
 487 489 l 1
 205 0 l 1
 90 0 l 1
EndSplineSet
EndChar
StartChar: x
Encoding: 90 120
OldEncoding: 120
Width: 614
Flags: W
Fore
279 242 m 1
 33 0 l 1
 -84 0 l 1
 252 330 l 1
 141 645 l 1
 258 645 l 1
 340 418 l 1
 569 645 l 1
 686 645 l 1
 365 332 l 1
 477 0 l 1
 360 0 l 1
 279 242 l 1
EndSplineSet
EndChar
StartChar: y
Encoding: 91 121
OldEncoding: 121
Width: 614
Flags: W
Fore
627 645 m 1
 737 645 l 1
 184 -150 l 1
 152 -198 111 -232 61 -252 c 0
 33 -262.667 3.66667 -268 -27 -268 c 0
 -50.3333 -268 -68.6667 -263.333 -82 -254 c 1
 -49 -158 l 1
 -33.6667 -164.667 -9.66667 -168 23 -168 c 1
 51.6667 -164 77.3333 -145.667 100 -113 c 2
 172 -10 l 1
 174 645 l 1
 283 645 l 1
 287 158 l 1
 627 645 l 1
EndSplineSet
EndChar
StartChar: z
Encoding: 92 122
OldEncoding: 122
Width: 614
Flags: W
Fore
653 645 m 1
 623 555 l 1
 106 102 l 1
 489 102 l 1
 457 0 l 1
 -63 0 l 1
 -37 84 l 1
 487 543 l 1
 139 543 l 1
 172 645 l 1
 653 645 l 1
EndSplineSet
EndChar
StartChar: braceleft
Encoding: 93 123
OldEncoding: 123
Width: 409
Flags: W
Fore
41 274 m 1
 68 360 l 1
 108.667 368.667 140.667 386.667 164 414 c 1
 184 440 203 481 221 537 c 2
 289 745 l 2
 303.667 789 326 824.667 356 852 c 0
 388.667 880.667 415.333 895 436 895 c 2
 528 899 l 1
 502 817 l 1
 444 811 l 2
 426.667 809 413 802.333 403 791 c 0
 393.667 778.333 385 759 377 733 c 1
 305 514 l 2
 287 459.333 264.667 417 238 387 c 1
 214 363 185.333 339.667 152 317 c 1
 168 303 180.667 282 190 254 c 0
 194.667 242.667 197 229 197 213 c 0
 197 191 190.667 160.333 178 121 c 2
 109 -96 l 1
 100.333 -118 96 -136 96 -150 c 1
 98 -156 l 1
 100 -167.333 109 -174 125 -176 c 2
 178 -182 l 1
 154 -262 l 1
 63 -260 l 1
 43.6667 -258 26.6667 -243 12 -215 c 0
 5.33333 -199.667 2 -184 2 -168 c 0
 2 -152 5.33333 -133 12 -111 c 1
 80 100 l 1
 94.6667 147.333 102 183 102 207 c 1
 100 223 l 1
 96 249 76.3333 266 41 274 c 1
EndSplineSet
EndChar
StartChar: bar
Encoding: 94 124
OldEncoding: 124
Width: 319
Flags: W
Fore
385 895 m 1
 8 -264 l 1
 -66 -264 l 1
 311 895 l 1
 385 895 l 1
EndSplineSet
EndChar
StartChar: braceright
Encoding: 95 125
OldEncoding: 125
Width: 409
Flags: W
Fore
338 360 m 1
 309 274 l 1
 266.333 266 235 249 215 223 c 0
 194.333 198.333 174.667 157.333 156 100 c 2
 86 -111 l 1
 75.3333 -140.333 61.6667 -165.333 45 -186 c 0
 31 -204 12 -222 -12 -240 c 1
 -30 -251.333 -46.3333 -258 -61 -260 c 1
 -152 -262 l 1
 -127 -182 l 1
 -70 -176 l 2
 -53.3333 -174 -39.6667 -166.667 -29 -154 c 0
 -17 -140 -7.33333 -120.667 0 -96 c 1
 70 121 l 2
 87.3333 175 112.333 218.667 145 252 c 0
 175 282.667 201 304.333 223 317 c 1
 213 334 l 1
 205.667 342.667 199 357 193 377 c 1
 187 389 184 406.667 184 430 c 2
 184 436 l 1
 184 440 l 2
 184 462.667 189 487.333 199 514 c 1
 268 733 l 1
 276.667 757.667 281 774 281 782 c 1
 279 791 l 2
 276.333 802.333 267.333 809 252 811 c 2
 199 817 l 1
 225 899 l 1
 313 895 l 1
 328.333 893 340.667 886 350 874 c 0
 364 854.667 371.667 837 373 821 c 1
 375 801 l 1
 375 787 371.667 768.333 365 745 c 1
 297 537 l 1
 281.667 484.333 274 448 274 428 c 1
 276 414 l 1
 281.333 386.667 302 368.667 338 360 c 1
EndSplineSet
EndChar
StartChar: asciitilde
Encoding: 96 126
OldEncoding: 126
Width: 716
Flags: W
Fore
133 358 m 1
 68 358 l 1
 90.6667 423.333 119.333 469.333 154 496 c 1
 188.667 524.667 222.667 539 256 539 c 0
 281.333 539 301 533.333 315 522 c 2
 446 426 l 2
 458 416.667 473.333 412 492 412 c 0
 508 412 522.333 416 535 424 c 0
 551 434.667 566.667 462 582 506 c 1
 645 506 l 1
 626.333 451.333 600.333 408.333 567 377 c 0
 532.333 344.333 497 328 461 328 c 0
 432.333 328 403 338 373 358 c 1
 268 442 l 1
 260 454.667 247.667 461 231 461 c 0
 213.667 461 195.333 451.333 176 432 c 0
 157.333 413.333 143 388.667 133 358 c 1
EndSplineSet
EndChar
StartChar: exclamdown
Encoding: 98 161
OldEncoding: 161
Width: 250
Flags: W
Fore
273 638 m 1
 249 524 l 1
 125 524 l 1
 149 638 l 1
 273 638 l 1
204 435 m 1
 142 1 l 1
 103 -180 l 1
 -27 -180 l 1
 11 1 l 1
 131 435 l 1
 204 435 l 1
EndSplineSet
EndChar
StartChar: cent
Encoding: 99 162
OldEncoding: 162
Width: 594
Flags: W
Fore
444 533 m 1
 218 85 l 1
 253 80 l 1
 343 80 407 132 445 236 c 1
 548 225 l 1
 522 157 481 101.667 425 59 c 0
 369 15.6667 306 -6 236 -6 c 0
 214 -6 194.333 -3.33333 177 2 c 1
 59 -230 l 1
 -1 -210 l 1
 116 22 l 1
 48.6667 61.3333 15 126 15 216 c 0
 15 246 18.6667 279.333 26 316 c 0
 46 410.667 83.6667 487.333 139 546 c 1
 203 611.333 280 644 370 644 c 1
 428 640 l 1
 542 866 l 1
 601 847 l 1
 488 620 l 1
 550.667 592.667 582 539 582 459 c 0
 582 455.667 582 452 582 448 c 1
 477 432 l 1
 476.333 476 465.333 509.667 444 533 c 1
383 545 m 1
 355 547 l 2
 353 547 350.667 547 348 547 c 0
 238 547 166 467.667 132 309 c 0
 124.667 273 121 241 121 213 c 0
 121 161 134 123.333 160 100 c 1
 383 545 l 1
EndSplineSet
EndChar
StartChar: sterling
Encoding: 100 163
OldEncoding: 163
Width: 504
Flags: W
Fore
189 353 m 1
 330 353 l 1
 315 285 l 1
 188 285 l 1
 190 279 191 272.667 191 266 c 0
 191 260 190.333 253.667 189 247 c 0
 176.333 189 138 132.333 74 77 c 1
 100 83.6667 121.667 87 139 87 c 0
 165 87 192 83 220 75 c 0
 268.667 62.3333 302 56 320 56 c 0
 341.333 56 371.333 64.3333 410 81 c 1
 420 9 l 1
 371.333 -9.66667 333.667 -19 307 -19 c 1
 270 -15 l 1
 216 0 l 1
 161 17 l 1
 120 20 l 1
 72.6667 20 25.3333 6.33333 -22 -21 c 1
 -37 56 l 1
 39 95.3333 85.3333 153.333 102 230 c 1
 106 285 l 1
 20 285 l 1
 34 353 l 1
 101 353 l 1
 99 372.333 98 390 98 406 c 0
 98 431.333 100 452.667 104 470 c 0
 116 526.667 145 572 191 606 c 0
 235 640 286 657 344 657 c 0
 452 657 506 607 506 507 c 0
 506 500.333 505.667 493.667 505 487 c 1
 424 475 l 1
 424 479.667 424 484 424 488 c 0
 424 556.667 392.667 591 330 591 c 0
 298.667 591 269 580 241 558 c 0
 215 538 198.667 512.333 192 481 c 0
 188 463.667 186 442.333 186 417 c 0
 186 397.667 187 376.333 189 353 c 1
EndSplineSet
EndChar
StartChar: currency
Encoding: 101 164
OldEncoding: 164
Width: 597
Flags: W
Fore
121 420 m 1
 56 492 l 1
 135 557 l 1
 199 482 l 1
 245.667 507.333 293.667 520 343 520 c 0
 393 520 435 507.333 469 482 c 1
 565 557 l 1
 617 492 l 1
 524 420 l 1
 536 394 542 367 542 339 c 0
 542 324.333 540.333 309.667 537 295 c 0
 527 249 504.667 207 470 169 c 1
 532 95 l 1
 454 32 l 1
 390 108 l 1
 344.667 80.6667 297 67 247 67 c 0
 196.333 67 154 80.6667 120 108 c 1
 24 32 l 1
 -28 95 l 1
 67 169 l 1
 55 194.333 49 221 49 249 c 0
 49 263.667 50.6667 279 54 295 c 0
 63.3333 339 85.6667 380.667 121 420 c 1
147 295 m 0
 144.333 283.667 143 273 143 263 c 0
 143 237 151 214.333 167 195 c 0
 190.333 168.333 222.667 155 264 155 c 0
 306 155 344 168.333 378 195 c 0
 412.667 221.667 434 255 442 295 c 0
 444.667 305 446 314.333 446 323 c 0
 446 349.667 437.333 372.667 420 392 c 0
 396.667 419.333 364.333 433 323 433 c 0
 281.667 433 244.333 419.333 211 392 c 0
 176.333 365.333 155 333 147 295 c 0
EndSplineSet
EndChar
StartChar: yen
Encoding: 102 165
OldEncoding: 165
Width: 745
Flags: W
Fore
231 1 m 1
 270 187 l 1
 22 187 l 1
 39 268 l 1
 287 268 l 1
 305 349 l 1
 56 349 l 1
 75 435 l 1
 279 435 l 1
 124 840 l 1
 241 840 l 1
 352 544 l 1
 380 458 l 1
 447 551 l 1
 674 840 l 1
 800 840 l 1
 472 435 l 1
 676 435 l 1
 658 349 l 1
 412 349 l 1
 395 268 l 1
 641 268 l 1
 624 187 l 1
 378 187 l 1
 338 1 l 1
 231 1 l 1
EndSplineSet
EndChar
StartChar: brokenbar
Encoding: 103 166
OldEncoding: 166
Width: 151
Flags: W
Fore
213 644 m 1
 131 262 l 1
 44 262 l 1
 125 644 l 1
 213 644 l 1
96 95 m 1
 15 -287 l 1
 -73 -287 l 1
 9 95 l 1
 96 95 l 1
EndSplineSet
EndChar
StartChar: section
Encoding: 104 167
OldEncoding: 167
Width: 670
Flags: W
Fore
0 -19 m 1
 117 -5 l 1
 117.667 -89 162.333 -131 251 -131 c 0
 286.333 -131 319 -123.333 349 -108 c 0
 381.667 -91.3333 401.333 -68 408 -38 c 0
 408.667 -35.3333 409 -32 409 -28 c 0
 409 0 383.667 32.3333 333 69 c 1
 210 145 l 2
 150.667 180.333 109.667 210 87 234 c 0
 55.6667 266.667 40 301.333 40 338 c 0
 40 347.333 41 357 43 367 c 0
 59.6667 444.333 117.667 495 217 519 c 1
 180.333 555 162 591.667 162 629 c 0
 162 637 162.667 645.333 164 654 c 0
 175.333 706 208.333 748.333 263 781 c 0
 316.333 812.333 357 831 385 837 c 0
 398.333 839.667 411.667 841 425 841 c 0
 533 841 603.333 807 636 739 c 0
 648 714.333 654 686 654 654 c 2
 654 637 l 1
 535 627 l 2
 535 627.667 535 628.667 535 630 c 0
 535 706.667 497.667 745 423 745 c 0
 392.333 745 362.333 738 333 724 c 0
 301 706.667 282.333 684.667 277 658 c 0
 276.333 654.667 276 651.333 276 648 c 0
 276 620.667 297.667 590.333 341 557 c 1
 457 487 l 2
 521.667 449 564.333 420.333 585 401 c 0
 616.333 369.667 632 335.667 632 299 c 0
 632 289 631 279.333 629 270 c 0
 614.333 200.667 556 148.667 454 114 c 1
 501.333 78.6667 525 38.3333 525 -7 c 0
 525 -16.3333 524 -26 522 -36 c 0
 510 -92.6667 474 -137.667 414 -171 c 0
 362 -199.667 302.667 -214 236 -214 c 0
 78.6667 -214 6.93889e-18 -151.333 0 -26 c 0
 0 -24 0 -21.6667 0 -19 c 1
404 150 m 1
 472 178 510 211.667 518 251 c 0
 518.667 254.333 519 258 519 262 c 0
 519 303.333 471.667 351.667 377 407 c 1
 331.667 435 294.333 460.333 265 483 c 1
 195 452.333 155.667 417 147 377 c 0
 146.333 373.667 146 370 146 366 c 0
 146 325.333 189.333 280 276 230 c 0
 336 196 378.667 169.333 404 150 c 1
EndSplineSet
EndChar
StartChar: dieresis
Encoding: 105 168
OldEncoding: 168
Width: 406
Flags: W
Fore
10 757 m 1
 34 870 l 1
 157 870 l 1
 133 757 l 1
 10 757 l 1
251 757 m 1
 275 870 l 1
 396 870 l 1
 372 757 l 1
 251 757 l 1
EndSplineSet
EndChar
StartChar: copyright
Encoding: 106 169
OldEncoding: 169
Width: 751
Flags: W
Fore
450 704 m 0
 546 704 619.667 669.333 671 600 c 0
 707.667 552.667 726 496.667 726 432 c 0
 726 405.333 722.667 377 716 347 c 0
 695.333 249 644 165.333 562 96 c 0
 481.333 26 393.667 -9 299 -9 c 0
 204.333 -9 131.333 25.3333 80 94 c 0
 43.3333 142.667 25 199.333 25 264 c 0
 25 290.667 28.3333 318.333 35 347 c 0
 56.3333 448.333 106.667 533.333 186 602 c 0
 266 670 354 704 450 704 c 0
438 647 m 0
 358.667 647 285.333 618 218 560 c 0
 150.667 502 108 431 90 347 c 0
 85.3333 323 83 299.667 83 277 c 0
 83 223.667 98 177 128 137 c 0
 171.333 80.3333 232.667 52 312 52 c 0
 392 52 465 80.3333 531 137 c 0
 598.333 193.667 641 263.667 659 347 c 0
 664.333 371 667 394 667 416 c 0
 667 469.333 651.667 516.667 621 558 c 0
 578.333 617.333 517.333 647 438 647 c 0
472 290 m 1
 524 273 l 1
 483.333 187 419 144 331 144 c 0
 275 144 235.333 163 212 201 c 0
 197.333 225 190 254 190 288 c 0
 190 306 192 325.667 196 347 c 0
 209.333 407.667 236 456.333 276 493 c 0
 316 530.333 365 549 423 549 c 0
 502.333 549 545.333 511.333 552 436 c 1
 495 423 l 1
 486.333 471 458 495 410 495 c 0
 370 495 336 479.667 308 449 c 0
 283.333 421.667 266.333 387 257 345 c 0
 253 325 251 306.667 251 290 c 0
 251 230 281 200 341 200 c 0
 400.333 200 444 230 472 290 c 1
EndSplineSet
EndChar
StartChar: ordfeminine
Encoding: 107 170
OldEncoding: 170
Width: 304
Flags: W
Fore
193 606 m 1
 155 576 118.333 561 83 561 c 0
 29.6667 561 3 582 3 624 c 0
 3 632.667 4 642.333 6 653 c 0
 14.6667 692.333 39.3333 719.333 80 734 c 1
 121 743 l 1
 181 752 l 1
 221 761 l 1
 222.333 768.333 223 775 223 781 c 0
 223 809.667 206.333 824 173 824 c 0
 133.667 824 108 807 96 773 c 1
 45 786 l 1
 67 844.667 113 874 183 874 c 0
 249.667 874 283 850 283 802 c 0
 283 792.667 282 783 280 773 c 2
 253 646 l 1
 248.333 626.667 246 610.333 246 597 c 0
 246 585 248 575.333 252 568 c 1
 195 568 l 1
 192 589 l 1
 193 606 l 1
210 711 m 1
 128 696 l 1
 89.3333 687.333 68 673 64 653 c 0
 63.3333 649 63 645 63 641 c 0
 63 621 77.3333 611 106 611 c 0
 161.333 611 196 644.333 210 711 c 1
EndSplineSet
EndChar
StartChar: guillemotleft
Encoding: 108 171
OldEncoding: 171
Width: 680
Flags: W
Fore
188 314 m 1
 298 0 l 1
 199 0 l 1
 47 314 l 1
 332 628 l 1
 433 628 l 1
 188 314 l 1
453 314 m 1
 566 0 l 1
 461 0 l 1
 314 314 l 1
 595 628 l 1
 699 628 l 1
 453 314 l 1
EndSplineSet
EndChar
StartChar: logicalnot
Encoding: 109 172
OldEncoding: 172
Width: 504
Flags: W
Fore
451 406 m 1
 374 406 l 1
 403 540 l 1
 42 540 l 1
 53 591 l 1
 490 591 l 1
 451 406 l 1
EndSplineSet
EndChar
StartChar: uni00AD
Encoding: 110 173
OldEncoding: 173
Width: 256
Flags: W
Fore
17 271 m 1
 31 333 l 1
 238 333 l 1
 224 271 l 1
 17 271 l 1
EndSplineSet
EndChar
StartChar: registered
Encoding: 111 174
OldEncoding: 174
Width: 962
Flags: W
Fore
909 399 m 0
 897 341 875 287.333 843 238 c 0
 810.333 185.333 770 139.333 722 100 c 0
 679.333 64 627.333 33.3333 566 8 c 0
 510 -14 453 -25 395 -25 c 0
 318.333 -25 251.333 -5.66667 194 33 c 0
 137.333 70.3333 97.3333 121.333 74 186 c 0
 59.3333 227.333 52 269.333 52 312 c 0
 52 340 55 369 61 399 c 0
 73 455.667 95.6667 510.333 129 563 c 0
 166.333 619 206.667 664.667 250 700 c 0
 298 739.333 350.333 769.667 407 791 c 0
 461 812.333 517 823 575 823 c 0
 633 823 685.333 812.333 732 791 c 1
 784 765 823.333 734.667 850 700 c 0
 877.333 666 898 620.333 912 563 c 0
 916.667 539.667 919 515.333 919 490 c 0
 919 460.667 915.667 430.333 909 399 c 0
860 399 m 0
 866 425.667 869 452 869 478 c 0
 869 500 866.667 522.333 862 545 c 0
 853.333 587 834.667 626.667 806 664 c 0
 776.667 700.667 743 727.667 705 745 c 0
 661 764.333 614.333 774 565 774 c 0
 497 774 431.333 757.667 368 725 c 0
 303.333 689.667 248 643.333 202 586 c 0
 155.333 528 125 465 111 397 c 0
 105 371 102 345.667 102 321 c 0
 102 282.333 108.667 246.333 122 213 c 0
 145.333 156.333 181.333 110.667 230 76 c 0
 278.667 42 337.333 25 406 25 c 0
 474 25 539.667 42 603 76 c 0
 668.333 110 724.333 155.667 771 213 c 0
 815.667 269.667 845.333 331.667 860 399 c 0
423 403 m 1
 389 244 l 1
 388 236 l 1
 388 218 405 209 439 209 c 1
 434 186 l 1
 238 186 l 1
 243 209 l 1
 283.667 209 306 219.333 310 240 c 1
 385 594 l 1
 388 615 l 1
 388 621 386.667 625 384 627 c 0
 376.667 629.667 361.333 631 338 631 c 1
 343 653 l 1
 548 653 l 2
 588.667 653 619.667 649 641 641 c 1
 670.333 626.333 688 610 694 592 c 0
 697.333 584.667 699 575.667 699 565 c 1
 696 539 l 1
 688 501.667 669.333 471.667 640 449 c 1
 606.667 427.667 575.333 416 546 414 c 1
 653 225 l 2
 659 214.333 672.333 209 693 209 c 1
 688 186 l 1
 571 186 l 1
 456 403 l 1
 423 403 l 1
463 602 m 1
 429 432 l 1
 469 432 499 434.667 519 440 c 1
 574.333 460 606.333 494.333 615 543 c 1
 617 561 l 1
 617 579 611.333 592.667 600 602 c 1
 586.667 616 573.333 623 560 623 c 2
 494 627 l 2
 479.333 627 469 618.667 463 602 c 1
EndSplineSet
EndChar
StartChar: macron
Encoding: 112 175
OldEncoding: 175
Width: 249
Flags: W
Fore
7 840 m 1
 15 880 l 1
 242 880 l 1
 234 840 l 1
 7 840 l 1
EndSplineSet
EndChar
StartChar: degree
Encoding: 113 176
OldEncoding: 176
Width: 265
Flags: W
Fore
17 793 m 0
 23.6667 825 40.6667 852.667 68 876 c 0
 95.3333 898 124.667 909 156 909 c 0
 189.333 909 214.667 898 232 876 c 0
 244.667 859.333 251 840.333 251 819 c 0
 251 810.333 250 801.667 248 793 c 0
 241.333 760.333 224.333 732.667 197 710 c 0
 169 688 139 677 107 677 c 0
 75 677 50.3333 688 33 710 c 0
 20.3333 726.667 14 745.667 14 767 c 0
 14 775 15 783.667 17 793 c 0
62 793 m 0
 60.6667 787.667 60 782.667 60 778 c 0
 60 764.667 64 753 72 743 c 0
 83.3333 729 98.3333 722 117 722 c 0
 136.333 722 154.667 729 172 743 c 0
 188.667 757 199 773.667 203 793 c 0
 204.333 798.333 205 803.333 205 808 c 0
 205 821.333 201 833 193 843 c 0
 182.333 857.667 167 865 147 865 c 0
 128.333 865 110.333 858 93 844 c 0
 76.3333 829.333 66 812.333 62 793 c 0
EndSplineSet
EndChar
StartChar: plusminus
Encoding: 114 177
OldEncoding: 177
Width: 628
Flags: W
Fore
215 164 m 1
 269 415 l 1
 22 415 l 1
 44 519 l 1
 291 519 l 1
 344 767 l 1
 447 767 l 1
 395 519 l 1
 641 519 l 1
 619 415 l 1
 373 415 l 1
 319 164 l 1
 215 164 l 1
531 0 m 1
 -66 0 l 1
 -43 106 l 1
 553 106 l 1
 531 0 l 1
EndSplineSet
EndChar
StartChar: twosuperior
Encoding: 115 178
OldEncoding: 178
Width: 214
Flags: W
Fore
-3 583 m 1
 5 610.333 34.3333 643.667 85 683 c 2
 126 714 l 1
 144 729.333 154.333 743 157 755 c 0
 158.333 759.667 159 763.667 159 767 c 0
 159 784.333 149 793 129 793 c 0
 106.333 793 89.6667 780.333 79 755 c 1
 40 760 l 1
 60 807.333 92.6667 831 138 831 c 0
 181.333 831 203 815.333 203 784 c 0
 203 778 202.333 771.333 201 764 c 0
 195.667 741.333 182.667 720 162 700 c 0
 153.333 691.333 135 676.667 107 656 c 1
 68 622 l 1
 173 622 l 1
 164 583 l 1
 -3 583 l 1
EndSplineSet
EndChar
StartChar: threesuperior
Encoding: 116 179
OldEncoding: 179
Width: 208
Flags: W
Fore
5 661 m 1
 48 665 l 1
 48.6667 642.333 60.6667 631 84 631 c 0
 114 631 132 644.667 138 672 c 0
 138.667 675.333 139 678.333 139 681 c 0
 139 698.333 126 707 100 707 c 1
 90 705 l 1
 84 705 l 1
 97 740 l 1
 127 740 144.333 750.333 149 771 c 0
 149.667 773.667 150 776 150 778 c 0
 150 792 140 799 120 799 c 0
 100.667 799 85 788.667 73 768 c 1
 33 775 l 1
 54.3333 814.333 85.6667 834 127 834 c 0
 173.667 834 197 819.333 197 790 c 0
 197 785.333 196.333 780.333 195 775 c 0
 189.667 751.667 173 735.333 145 726 c 1
 171 718 184 703 184 681 c 0
 184 676.333 183.333 671 182 665 c 0
 177.333 642.333 163.667 624.667 141 612 c 0
 122.333 600 101.667 594 79 594 c 0
 29 594 4 615 4 657 c 0
 4 658.333 4.33333 659.667 5 661 c 1
EndSplineSet
EndChar
StartChar: acute
Encoding: 117 180
OldEncoding: 180
Width: 205
Flags: W
Fore
13 769 m 1
 98 872 l 1
 209 872 l 1
 83 769 l 1
 13 769 l 1
EndSplineSet
EndChar
StartChar: mu
Encoding: 118 181
OldEncoding: 181
Width: 538
Flags: W
Fore
598 628 m 1
 466 9 l 1
 378 9 l 1
 393 82 l 1
 348.333 23.3333 293.667 -6 229 -6 c 0
 171.667 -6 130.667 19.6667 106 71 c 1
 42 -229 l 1
 -57 -229 l 1
 125 628 l 1
 224 628 l 1
 168 365 l 1
 152 287 144 230.667 144 196 c 0
 144 192.667 144 189.333 144 186 c 0
 149.333 121.333 182.667 89 244 89 c 0
 307.333 89 356 120.667 390 184 c 0
 408.667 218.667 427 278.333 445 363 c 2
 501 628 l 1
 598 628 l 1
EndSplineSet
EndChar
StartChar: paragraph
Encoding: 119 182
OldEncoding: 182
Width: 683
Flags: W
Fore
148 -144 m 1
 272 439 l 1
 204 439 152.333 458 117 496 c 0
 91 524.667 78 558.667 78 598 c 0
 78 612 79.6667 627 83 643 c 0
 98.3333 713 135.667 767 195 805 c 1
 250.333 838.333 319 855 401 855 c 2
 767 855 l 1
 749 769 l 1
 665 769 l 1
 471 -144 l 1
 373 -144 l 1
 567 769 l 1
 438 769 l 1
 244 -144 l 1
 148 -144 l 1
EndSplineSet
EndChar
StartChar: periodcentered
Encoding: 120 183
OldEncoding: 183
Width: 120
Flags: W
Fore
9 412 m 1
 28 504 l 1
 115 504 l 1
 95 412 l 1
 9 412 l 1
EndSplineSet
EndChar
StartChar: cedilla
Encoding: 121 184
OldEncoding: 184
Width: 265
Flags: W
Fore
78 -52 m 1
 124 26 l 1
 197 26 l 1
 168 -22 l 1
 221.333 -26.6667 248 -44 248 -74 c 0
 248 -78 247.333 -82.3333 246 -87 c 0
 240 -115.667 217.333 -137.667 178 -153 c 0
 147.333 -165 112.667 -171 74 -171 c 0
 44.6667 -171 18.6667 -169 -4 -165 c 1
 13 -114 l 1
 63 -116 l 2
 65.6667 -116 68.6667 -116 72 -116 c 0
 124 -116 152.667 -104.333 158 -81 c 0
 158 -79.6667 158 -78.3333 158 -77 c 0
 158 -60.3333 131.333 -52 78 -52 c 1
EndSplineSet
EndChar
StartChar: onesuperior
Encoding: 122 185
OldEncoding: 185
Width: 185
Flags: W
Fore
79 558 m 1
 118 741 l 1
 92 723.667 64.3333 711.333 35 704 c 1
 43 744 l 1
 79 756 112.667 777 144 807 c 1
 181 807 l 1
 128 558 l 1
 79 558 l 1
EndSplineSet
EndChar
StartChar: ordmasculine
Encoding: 123 186
OldEncoding: 186
Width: 268
Flags: W
Fore
162 849 m 0
 199.333 849 225.667 835.667 241 809 c 0
 250.333 793 255 774.333 255 753 c 0
 255 740.333 253.333 727 250 713 c 0
 242 674.333 225.333 642.333 200 617 c 0
 174 590.333 142 577 104 577 c 0
 68 577 41.6667 590.333 25 617 c 1
 17 632.333 13 650.333 13 671 c 0
 13 683 14.3333 696.333 17 711 c 0
 25.6667 750.333 42 782.333 66 807 c 0
 92.6667 835 124.667 849 162 849 c 0
152 800 m 0
 109.333 800 81.6667 771 69 713 c 0
 66.3333 699.667 65 688 65 678 c 0
 65 642.667 81.3333 625 114 625 c 0
 157.333 625 185.333 654.667 198 714 c 0
 200.667 726.667 202 738 202 748 c 0
 202 782.667 185.333 800 152 800 c 0
EndSplineSet
EndChar
StartChar: guillemotright
Encoding: 124 187
OldEncoding: 187
Width: 680
Flags: W
Fore
492 315 m 1
 249 1 l 1
 348 1 l 1
 633 315 l 1
 481 629 l 1
 381 629 l 1
 492 315 l 1
227 315 m 1
 -19 1 l 1
 85 1 l 1
 366 315 l 1
 219 629 l 1
 114 629 l 1
 227 315 l 1
EndSplineSet
EndChar
StartChar: onequarter
Encoding: 125 188
OldEncoding: 188
Width: 1081
Flags: W
Fore
64 -36 m 1
 906 776 l 1
 1001 776 l 1
 159 -36 l 1
 64 -36 l 1
200 379 m 1
 262 670 l 1
 216.667 642.667 167.333 623 114 611 c 1
 128 677 l 1
 192.667 694.333 252.667 726.667 308 774 c 1
 373 774 l 1
 289 379 l 1
 200 379 l 1
781 -23 m 1
 799 59 l 1
 566 59 l 1
 580 125 l 1
 881 372 l 1
 954 372 l 1
 900 116 l 1
 963 116 l 1
 951 59 l 1
 888 59 l 1
 870 -23 l 1
 781 -23 l 1
811 116 m 1
 840 253 l 1
 672 116 l 1
 811 116 l 1
EndSplineSet
EndChar
StartChar: onehalf
Encoding: 126 189
OldEncoding: 189
Width: 1080
Flags: W
Fore
65 -36 m 1
 907 777 l 1
 1002 777 l 1
 160 -36 l 1
 65 -36 l 1
201 379 m 1
 263 670 l 1
 217.667 642.667 168.667 623 116 611 c 1
 129 677 l 1
 193.667 694.333 253.667 726.667 309 774 c 1
 374 774 l 1
 290 379 l 1
 201 379 l 1
608 -39 m 1
 616.667 3 669.333 56.3333 766 121 c 0
 845.333 173.667 887.333 211.667 892 235 c 0
 893.333 241 894 246.333 894 251 c 0
 894 279 874.667 293 836 293 c 0
 800 293 771.667 273.667 751 235 c 1
 677 241 l 1
 711.667 317 769.667 355 851 355 c 0
 935 355 977 328.333 977 275 c 0
 977 266.333 975.667 257.333 973 248 c 0
 965.667 213.333 944 179.333 908 146 c 1
 807 75 l 1
 737 26 l 1
 928 26 l 1
 914 -39 l 1
 608 -39 l 1
EndSplineSet
EndChar
StartChar: threequarters
Encoding: 127 190
OldEncoding: 190
Width: 1081
Flags: W
Fore
58 484 m 1
 140 491 l 1
 142.667 451.667 166.333 432 211 432 c 0
 268.333 432 302 455.667 312 503 c 0
 312.667 507.667 313 512.333 313 517 c 0
 313 547 288 562 238 562 c 1
 218 559 l 1
 207 559 l 1
 231 618 l 1
 288.333 618 320.667 636.333 328 673 c 0
 329.333 677 330 680.667 330 684 c 0
 330 708 310.667 720 272 720 c 0
 234.667 720 205 702.667 183 668 c 1
 108 680 l 1
 146 747.333 205 781 285 781 c 0
 374.333 781 419 755 419 703 c 0
 419 695.667 418 688 416 680 c 0
 407.333 639.333 376.333 611 323 595 c 1
 373 581.667 398 555 398 515 c 0
 398 507.667 397 499.667 395 491 c 0
 387 451.667 362 421 320 399 c 0
 284 378.333 245 368 203 368 c 0
 106.333 368 58 405.333 58 480 c 0
 58 481.333 58 482.667 58 484 c 1
63 -36 m 1
 905 776 l 1
 1001 776 l 1
 159 -36 l 1
 63 -36 l 1
781 -23 m 1
 798 59 l 1
 566 59 l 1
 580 125 l 1
 880 372 l 1
 954 372 l 1
 899 116 l 1
 962 116 l 1
 950 59 l 1
 887 59 l 1
 870 -23 l 1
 781 -23 l 1
810 116 m 1
 839 253 l 1
 671 116 l 1
 810 116 l 1
EndSplineSet
EndChar
StartChar: questiondown
Encoding: 128 191
OldEncoding: 191
Width: 548
Flags: W
Fore
416 581 m 1
 392 467 l 1
 283 467 l 1
 308 581 l 1
 416 581 l 1
367 380 m 1
 361 352 l 2
 349 296.667 329.667 251.333 303 216 c 0
 282.333 189.333 244.667 155.333 190 114 c 0
 126.667 66.6667 90.6667 22.6667 82 -18 c 0
 80 -29.3333 79 -40 79 -50 c 0
 79 -77.3333 87.6667 -101.333 105 -122 c 0
 129 -150.667 161 -165 201 -165 c 0
 287 -165 350.333 -110.333 391 -1 c 1
 486 -13 l 1
 432.667 -169.667 332.333 -248 185 -248 c 0
 117 -248 63.6667 -229 25 -191 c 0
 -7 -160.333 -23 -122 -23 -76 c 0
 -23 -60 -21 -43 -17 -25 c 0
 -3 40.3333 50.6667 109.667 144 183 c 0
 189.333 218.333 219.333 246.333 234 267 c 0
 250.667 291.667 264.333 329.333 275 380 c 1
 367 380 l 1
EndSplineSet
EndChar
StartChar: caron
Encoding: 129 711
OldEncoding: 711
Width: 1228
Flags: W
Fore
614 1008 m 1
 344 1214 l 1
 322 1237 l 1
 318.667 1243.67 317 1249.67 317 1255 c 0
 317 1267 321.333 1277.33 330 1286 c 0
 338 1294 347.333 1298 358 1298 c 0
 366.667 1298 378.333 1292.67 393 1282 c 2
 614 1112 l 1
 836 1280 l 1
 850 1292 861.333 1298 870 1298 c 0
 882.667 1298 893 1294 901 1286 c 0
 909 1278 913 1267.67 913 1255 c 0
 913 1243 903.667 1229.33 885 1214 c 1
 614 1008 l 1
EndSplineSet
EndChar
StartChar: ring
Encoding: 130 730
OldEncoding: 730
Width: 1228
Flags: W
Fore
795 1186 m 0
 795 1138.67 777 1097 741 1061 c 0
 707 1025.67 664.667 1008 614 1008 c 0
 563.333 1008 520.333 1025.67 485 1061 c 0
 451 1096.33 434 1138 434 1186 c 0
 434 1235.33 451 1277.67 485 1313 c 0
 519 1347 562 1364 614 1364 c 0
 665.333 1364 707.667 1347 741 1313 c 0
 777 1277 795 1234.67 795 1186 c 0
735 1186 m 0
 735 1218.67 723.333 1246.67 700 1270 c 0
 674.667 1293.33 646 1305 614 1305 c 0
 581.333 1305 552.667 1293.33 528 1270 c 1
 505.333 1246 494 1218 494 1186 c 0
 494 1154 505.333 1126.67 528 1104 c 0
 550.667 1079.33 579.333 1067 614 1067 c 0
 647.333 1067 676 1079.33 700 1104 c 1
 723.333 1126 735 1153.33 735 1186 c 0
EndSplineSet
EndChar
StartChar: uni0E01
Encoding: 131 3585
OldEncoding: 3585
Width: 743
Flags: W
Fore
106 547 m 1
 136.667 576.333 184 610.333 248 649 c 0
 314.667 689 389.667 709 473 709 c 0
 523 709 567.333 700.667 606 684 c 0
 644 668.667 670 643.333 684 608 c 0
 689.333 595.333 692 578.333 692 557 c 0
 692 535 688 510.333 680 483 c 1
 522 0 l 1
 436 0 l 1
 594 483 l 1
 598 498.333 600 512.667 600 526 c 0
 600 540.667 598 553 594 563 c 0
 583.333 587 565.667 604.667 541 616 c 0
 516.333 628.667 486.333 635 451 635 c 0
 377.667 635 307.333 612.333 240 567 c 1
 246.667 565.667 265 558.333 295 545 c 1
 317.667 531.667 338 514 356 492 c 1
 336 486.667 309.333 474.333 276 455 c 0
 242 434.333 217 399.333 201 350 c 2
 86 0 l 1
 0 0 l 1
 113 346 l 1
 127.667 388.667 145.333 420 166 440 c 0
 188.667 461.333 213.333 477 240 487 c 1
 234 494.333 219.667 505.333 197 520 c 0
 172.333 536 142 545 106 547 c 1
EndSplineSet
EndChar
StartChar: uni0E02
Encoding: 132 3586
OldEncoding: 3586
Width: 755
Flags: W
Fore
362 709 m 0
 404 709 439 700.667 467 684 c 1
 493.667 666 510 643.333 516 616 c 0
 520 604 522 592 522 580 c 0
 522 562 519.333 545.333 514 530 c 0
 505.333 500.667 496.333 480.333 487 469 c 0
 477.667 456.333 463.333 440.667 444 422 c 1
 403 375 l 1
 395 363 385.667 340.333 375 307 c 2
 299 74 l 1
 410 74 l 2
 436.667 74 455 78 465 86 c 0
 473 90.6667 482 106.333 492 133 c 1
 674 696 l 1
 760 696 l 1
 578 133 l 1
 558 75 536 39 512 25 c 1
 487.333 8.33333 445 8.67362e-19 385 0 c 2
 102 0 l 1
 127 74 l 1
 213 74 l 1
 293 319 l 2
 302.333 347.667 311 367.667 319 379 c 0
 331 395 344 410 358 424 c 1
 376 439.333 390.333 454.333 401 469 c 0
 410.333 481 420.667 499.333 432 524 c 1
 437.333 539.333 440 553.667 440 567 c 0
 440 585.667 436 600 428 610 c 0
 412.667 632 388.667 643 356 643 c 1
 324 639 l 1
 334.667 637 346 627.333 358 610 c 0
 365.333 601.333 369 590.667 369 578 c 0
 369 559.333 365.333 541.333 358 524 c 1
 346.667 488 324.333 460 291 440 c 0
 258.333 420 220 410 176 410 c 1
 124 416 98 444 98 494 c 0
 98 514.667 102.333 537.667 111 563 c 1
 134.333 608.333 170.333 644 219 670 c 0
 270.333 696 318 709 362 709 c 0
256 602 m 0
 236 602 219 596 205 584 c 0
 188.333 569.333 177.333 554.333 172 539 c 1
 170 520 l 1
 170 512 172 504 176 496 c 0
 181.333 482 194.333 475 215 475 c 0
 237 475 255.333 482 270 496 c 0
 285.333 508.667 295 523 299 539 c 1
 303 563 l 1
 299 584 l 1
 293 596 278.667 602 256 602 c 0
EndSplineSet
EndChar
StartChar: uni0E03
Encoding: 133 3587
OldEncoding: 3587
Width: 802
Flags: W
Fore
573 578 m 1
 566.333 561.333 559.667 549.667 553 543 c 2
 522 516 l 1
 510.667 509.333 499.667 499.667 489 487 c 0
 479 477 471 462.667 465 444 c 2
 346 74 l 1
 457 74 l 2
 483.667 74 502 78 512 86 c 0
 520 90.6667 529 106.333 539 133 c 1
 721 696 l 1
 807 696 l 1
 625 133 l 1
 605 75 583 39 559 25 c 1
 535.667 8.33333 493.333 8.67362e-19 432 0 c 2
 150 0 l 1
 174 74 l 1
 260 74 l 1
 381 449 l 2
 389.667 475 398.667 494 408 506 c 0
 416.667 516.667 426.667 527 438 537 c 1
 481 561 l 2
 491.667 567 498.667 574.667 502 584 c 1
 502 594 l 2
 502 601.333 498.667 611 492 623 c 1
 480 636.333 470.333 643.667 463 645 c 1
 358 588 l 1
 279 645 l 1
 249 639 222.333 624 199 600 c 0
 177 578.667 162.667 558.333 156 539 c 1
 158.667 541.667 166.667 546.333 180 553 c 0
 188.667 558.333 204.333 561 227 561 c 0
 263 559 289.667 548.667 307 530 c 0
 318.333 516.667 324 501 324 483 c 0
 324 467.667 321 452 315 436 c 0
 301 396.667 277.333 366 244 344 c 0
 209.333 322 175.667 311 143 311 c 0
 104.333 311 75 326.667 55 358 c 1
 47 376.667 43 396 43 416 c 0
 43 436.667 47 459 55 483 c 0
 67.6667 518.333 82 547.667 98 571 c 1
 120 610.333 154.333 644 201 672 c 0
 245 696.667 280.333 709 307 709 c 1
 381 653 l 1
 477 709 l 1
 510.333 697 536.333 680.333 555 659 c 0
 570.333 641.667 578 624 578 606 c 1
 573 578 l 1
207 502 m 0
 185 502 167.333 495.667 154 483 c 1
 137.333 471 127 456 123 438 c 2
 119 420 l 1
 119 411.333 121 403 125 395 c 0
 131 381.667 144.667 375 166 375 c 0
 186 375 203 381 217 393 c 1
 235 412.333 246 427.333 250 438 c 1
 254 463 l 1
 254 470.333 252 477 248 483 c 0
 240 495.667 226.333 502 207 502 c 0
EndSplineSet
EndChar
StartChar: uni0E04
Encoding: 134 3588
OldEncoding: 3588
Width: 751
Flags: W
Fore
168 461 m 0
 162.667 445.667 160 428 160 408 c 1
 162 377 l 1
 166 326 l 1
 166 303 l 1
 186 369 l 1
 202 417 228.667 458.667 266 494 c 1
 303.333 526.667 347 543 397 543 c 0
 435.667 543 462.333 530.667 477 506 c 1
 483.667 490.667 487 475.667 487 461 c 0
 487 443.667 484.333 428.667 479 416 c 1
 468.333 380 448.667 350.667 420 328 c 0
 389.333 303.333 354.333 291 315 291 c 0
 279 291 256 299 246 315 c 1
 143 0 l 1
 59 0 l 1
 100 125 l 1
 108.667 149 113 170.667 113 190 c 1
 111 207 l 2
 109.667 219 102.667 247.667 90 293 c 0
 80 328.333 74 357.667 72 381 c 1
 72 391 l 2
 72 409 76.6667 433.667 86 465 c 0
 104.667 520.333 133.333 565.333 172 600 c 1
 213.333 639.333 259.667 668 311 686 c 0
 363 705.333 415 715 467 715 c 0
 546.333 715 608.333 693.667 653 651 c 0
 680.333 625 694 591.667 694 551 c 0
 694 526.333 690 500.333 682 473 c 1
 528 0 l 1
 440 0 l 1
 592 465 l 1
 598.667 487 602 506 602 522 c 0
 602 552 592.333 577.333 573 598 c 0
 543 629.333 498 645 438 645 c 0
 381.333 645 326.667 629.333 274 598 c 0
 221.333 566 186 520.333 168 461 c 0
377 479 m 0
 355.667 479 338 473 324 461 c 0
 309.333 449.667 299 434.667 293 416 c 1
 289 395 l 1
 289 386.333 291 379 295 373 c 1
 300.333 359 314 352 336 352 c 0
 356.667 352 374.333 359 389 373 c 0
 405 386.333 414.667 400.667 418 416 c 1
 422 438 l 1
 418 461 l 1
 412 473 398.333 479 377 479 c 0
EndSplineSet
EndChar
StartChar: uni0E05
Encoding: 135 3589
OldEncoding: 3589
Width: 751
Flags: W
Fore
86 465 m 0
 102 512.333 136.667 558.667 190 604 c 0
 242 649.333 299.333 684.333 362 709 c 1
 457 629 l 1
 598 709 l 1
 664.667 671 698 619 698 553 c 0
 698 527 693.333 500.333 684 473 c 1
 530 0 l 1
 444 0 l 1
 596 465 l 2
 604 490.333 609.333 516.333 612 543 c 1
 612 557 l 1
 614 569.667 612.667 580.667 608 590 c 1
 606.667 598 601.333 606.667 592 616 c 0
 580 626.667 573 633.667 571 637 c 1
 434 563 l 1
 434 563 l 1
 434 563.667 423.667 573.333 403 592 c 1
 348 637 l 1
 296.667 615 258.333 590.333 233 563 c 0
 203.667 531 182.667 497 170 461 c 0
 164.667 445.667 162 428 162 408 c 1
 164 377 l 1
 168 326 l 1
 168 303 l 1
 188 369 l 1
 204.667 419.667 231.333 461.333 268 494 c 1
 308 526.667 351.667 543 399 543 c 0
 437.667 543 464.333 530.667 479 506 c 0
 487.667 490.667 492 475.667 492 461 c 0
 492 445 489 430 483 416 c 1
 473 381.333 452.667 352 422 328 c 0
 391.333 303.333 356.333 291 317 291 c 0
 281 291 258 299 248 315 c 1
 145 0 l 1
 61 0 l 1
 102 125 l 1
 110.667 149 115 170.667 115 190 c 1
 113 207 l 2
 111.667 219 104.667 247.667 92 293 c 0
 82 328.333 76 357.667 74 381 c 1
 74 391 l 2
 74 413 78 437.667 86 465 c 0
379 479 m 0
 357.667 479 340 473 326 461 c 0
 311.333 449.667 301 434.667 295 416 c 1
 291 395 l 1
 291 386.333 293 379 297 373 c 1
 302.333 359 316 352 338 352 c 0
 358.667 352 376.333 359 391 373 c 1
 405.667 385 416 399.333 422 416 c 1
 426 438 l 1
 426 447.333 424 455 420 461 c 0
 414 473 400.333 479 379 479 c 0
EndSplineSet
EndChar
StartChar: uni0E06
Encoding: 136 3590
OldEncoding: 3590
Width: 940
Flags: W
Fore
352 303 m 1
 399 449 l 1
 411 479 420 498 426 506 c 0
 432.667 516 444.333 527 461 539 c 1
 500 561 l 2
 510 567 516.667 574.667 520 584 c 1
 522 594 l 1
 522 601.333 518.667 611 512 623 c 1
 501.333 635.667 491 643 481 645 c 1
 377 588 l 1
 299 645 l 1
 271 639.667 243.667 624.667 217 600 c 0
 192.333 575.333 177.333 555 172 539 c 1
 199 553 l 2
 207.667 558.333 223.333 561 246 561 c 0
 281.333 559 308 548 326 528 c 0
 336.667 517.333 342 502.333 342 483 c 0
 342 473 338.667 457.333 332 436 c 0
 318.667 396.667 295.333 366 262 344 c 0
 227.333 322 194.667 311 164 311 c 0
 122 311 92.6667 326.667 76 358 c 0
 67.3333 376.667 63 396 63 416 c 0
 63 434.667 67.3333 457 76 483 c 0
 83.3333 510.333 97 539.667 117 571 c 0
 143 611.667 177 645.333 219 672 c 1
 263 696.667 298.667 709 326 709 c 1
 397 653 l 1
 498 709 l 1
 528.667 697.667 553.667 681 573 659 c 0
 588.333 642.333 596 624.667 596 606 c 0
 596 597.333 594 588 590 578 c 0
 585.333 562 578.333 550.333 569 543 c 0
 561 535 551 526 539 516 c 1
 523.667 506 512.667 496.333 506 487 c 1
 496.667 477.667 489 463.333 483 444 c 2
 438 303 l 1
 483.333 299 522.333 288 555 270 c 1
 587.667 255.333 615.667 235.667 639 211 c 0
 661.667 186.333 676 164.333 682 145 c 1
 860 696 l 1
 946 696 l 1
 721 0 l 1
 635 0 l 1
 639 31 l 1
 639 51 634.333 71.3333 625 92 c 0
 607 129.333 581 160.667 547 186 c 0
 511 212 468 228.667 418 236 c 1
 375 106 l 1
 361 68 341.667 39.3333 317 20 c 0
 291.667 -1.33333 259.667 -12 221 -12 c 0
 181 -12 153.667 3 139 33 c 0
 132.333 48.3333 129 64 129 80 c 0
 129 96 132.333 115 139 137 c 0
 155 183.667 181 222 217 252 c 0
 257 284 302 301 352 303 c 1
211 78 m 0
 217 65.3333 227.333 59 242 59 c 0
 261.333 59 275.667 70.6667 285 94 c 1
 332 240 l 1
 306 240 280.667 230.333 256 211 c 1
 234.667 188.333 220.333 165 213 141 c 0
 207.667 128.333 205 116 205 104 c 0
 205 92.6667 207 84 211 78 c 0
225 502 m 0
 204.333 502 187.333 495.667 174 483 c 1
 158 471.667 147 456.667 141 438 c 1
 139 418 l 1
 139 409.333 141 401 145 393 c 0
 152.333 381 165.333 375 184 375 c 0
 204 375 222.667 381 240 393 c 1
 252.667 404.333 262 419.333 268 438 c 1
 272 463 l 1
 268 483 l 1
 260 495.667 245.667 502 225 502 c 0
EndSplineSet
EndChar
StartChar: uni0E07
Encoding: 137 3591
OldEncoding: 3591
Width: 589
Flags: W
Fore
315 96 m 1
 432 461 l 1
 423.333 455.667 409 453 389 453 c 0
 351.667 453 325.667 466 311 492 c 0
 303 506 299 522.333 299 541 c 0
 299 552.333 301 565.333 305 580 c 0
 317.667 616 339 646 369 670 c 0
 399 693.333 433 705 471 705 c 0
 497 705 518.333 699.333 535 688 c 0
 549.667 677.333 559 662.333 563 643 c 1
 565 625 l 1
 565 607.667 562.333 592 557 578 c 1
 399 90 l 1
 389 58 370 32 342 12 c 0
 316 -5.33333 287.333 -14 256 -14 c 0
 232.667 -14 213.667 -9.33333 199 0 c 0
 183 9.33333 170.667 25 162 47 c 1
 59 436 l 1
 139 473 l 1
 246 86 l 1
 248 70.6667 257.333 63 274 63 c 0
 282.667 63 291 66 299 72 c 0
 306.333 79.3333 311.667 87.3333 315 96 c 1
451 641 m 0
 433 641 415.667 635 399 623 c 1
 382.333 605 371.667 590.667 367 580 c 1
 365 559 l 1
 365 550.333 367 543 371 537 c 0
 378.333 523 392 516 412 516 c 0
 434 516 452.333 523 467 537 c 0
 483 550.333 492.667 564.667 496 580 c 2
 500 598 l 1
 500 606 498 614.333 494 623 c 1
 484.667 635 470.333 641 451 641 c 0
EndSplineSet
EndChar
StartChar: uni0E08
Encoding: 138 3592
OldEncoding: 3592
Width: 700
Flags: W
Fore
344 508 m 0
 385.333 508 416 493.667 436 465 c 0
 456 435.667 469 399.333 475 356 c 2
 485 283 l 1
 549 479 l 1
 554.333 497.667 557 516.333 557 535 c 0
 557 560.333 549.667 581.333 535 598 c 0
 507 628 466 643 412 643 c 0
 320 645 234.667 607.333 156 530 c 1
 115 573 l 1
 148.333 609.667 193.333 641.333 250 668 c 0
 307.333 695.333 368.667 709 434 709 c 0
 486 709 530.333 700 567 682 c 0
 603.667 663.333 627.667 637.333 639 604 c 0
 644.333 591.333 647 575 647 555 c 0
 647 531.667 643 506.333 635 479 c 1
 479 0 l 1
 393 0 l 1
 404.333 33.3333 413.333 75.6667 420 127 c 1
 422 197 l 1
 420 248 l 1
 416 285.333 409 312.667 399 330 c 1
 391 317.333 376 302.333 354 285 c 0
 332.667 266.333 302 256 262 254 c 0
 228 254 202.667 266.333 186 291 c 0
 176.667 304.333 172 320.667 172 340 c 0
 172 356 174.667 371 180 385 c 0
 193.333 423 214.667 452.333 244 473 c 0
 274.667 496.333 308 508 344 508 c 0
324 440 m 0
 302.667 440 284.667 434 270 422 c 0
 256.667 410 246.667 395.667 240 379 c 1
 238 360 l 1
 238 350 240 342 244 336 c 1
 250 322 263 315 283 315 c 0
 301 315 318 321.333 334 334 c 0
 348 346 358.333 361 365 379 c 1
 369 401 l 1
 369 409.667 366.667 416.667 362 422 c 1
 356 434 343.333 440 324 440 c 0
EndSplineSet
EndChar
StartChar: uni0E09
Encoding: 139 3593
OldEncoding: 3593
Width: 802
Flags: W
Fore
299 358 m 2
 231 150 l 1
 271.667 189.333 323.667 223.333 387 252 c 1
 447.667 277.333 502.333 293 551 299 c 1
 610 479 l 2
 617.333 500.333 621 519.667 621 537 c 0
 621 561.667 614 582 600 598 c 0
 575.333 626.667 535 641 479 641 c 0
 433 641 387.333 629.333 342 606 c 1
 300.667 586.667 262.333 559.333 227 524 c 1
 186 567 l 1
 228 609 275.333 642.667 328 668 c 0
 386 695.333 444 709 502 709 c 0
 582 709 640.667 688.333 678 647 c 0
 700 623 711 593 711 557 c 0
 711 531.667 706 505.667 696 479 c 1
 637 299 l 1
 678.333 291 706.333 273.333 721 246 c 1
 726.333 232.667 729 217 729 199 c 0
 729 183 725.667 162.333 719 137 c 0
 705 93.6667 679.667 58.3333 643 31 c 1
 608.333 2.33333 571.333 -12 532 -12 c 0
 507.333 -12 489.667 -4.66667 479 10 c 0
 473.667 17.3333 471 27 471 39 c 0
 471 49 473 59.3333 477 70 c 1
 528 231 l 1
 467.333 219.667 415.667 202.667 373 180 c 1
 329 158.667 287.333 129.333 248 92 c 0
 216 61.3333 194 30.6667 182 0 c 1
 96 0 l 1
 174 244 l 1
 166.667 238.667 153 236 133 236 c 0
 94.3333 236 67.6667 248.667 53 274 c 0
 45 288.667 41 303.667 41 319 c 0
 41 333.667 43 348 47 362 c 0
 56.3333 396 77 425.667 109 451 c 0
 139 475 174.333 487 215 487 c 0
 254.333 487 281 475 295 451 c 0
 303 435.667 307 420.667 307 406 c 0
 307 390.667 304.333 374.667 299 358 c 2
195 424 m 0
 175.667 424 157.667 418 141 406 c 1
 126.333 392.667 116.333 377.333 111 360 c 1
 106 340 l 1
 106 331.333 108.333 323 113 315 c 0
 119 303 132.667 297 154 297 c 0
 172.667 297 190.333 303 207 315 c 1
 221 330.333 231.333 345.333 238 360 c 1
 242 385 l 1
 242 392.333 240 399.333 236 406 c 0
 229.333 418 215.667 424 195 424 c 0
653 137 m 1
 657 152.333 659 166 659 178 c 1
 657 203 l 1
 651 219.667 636.667 229 614 231 c 1
 563 74 l 1
 561 63 l 1
 561 57.6667 564.333 55 571 55 c 0
 586.333 55 602 63.3333 618 80 c 0
 633.333 96.6667 645 115.667 653 137 c 1
EndSplineSet
EndChar
StartChar: uni0E0A
Encoding: 140 3594
OldEncoding: 3594
Width: 755
Flags: W
Fore
610 559 m 1
 618 559 628.333 556.333 641 551 c 1
 653 543.667 662.667 530 670 510 c 1
 674 483 l 1
 674 465.667 670 444 662 418 c 1
 569 133 l 1
 550.333 77 529.333 41 506 25 c 0
 479.333 8.33333 436.333 8.67362e-19 377 0 c 2
 94 0 l 1
 119 74 l 1
 205 74 l 1
 285 319 l 2
 294.333 347.667 303 367.667 311 379 c 0
 319 391 332 406 350 424 c 1
 368 439.333 382.333 454.333 393 469 c 0
 404.333 484.333 414.667 502.667 424 524 c 0
 429.333 539.333 432 553.667 432 567 c 0
 432 585.667 428 600 420 610 c 0
 404 632 380 643 348 643 c 1
 315 639 l 1
 326.333 637 338 627.333 350 610 c 0
 356.667 601.333 360 590.667 360 578 c 0
 360 559.333 356.667 541.333 350 524 c 0
 338.667 489.333 316.333 461.333 283 440 c 0
 250.333 420 212 410 168 410 c 1
 116 416 90 444 90 494 c 0
 90 514 94 537 102 563 c 1
 126.667 609 163 644.667 211 670 c 0
 262.333 696 310 709 354 709 c 0
 384 709 412.667 703.333 440 692 c 0
 462 682.667 480 667.667 494 647 c 0
 506 629 512 608.667 512 586 c 1
 533.333 586 568.667 596.667 618 618 c 0
 668.667 638.667 724.667 682 786 748 c 1
 834 709 l 1
 796 660.333 755.667 624.667 713 602 c 1
 661 578 626.667 563.667 610 559 c 1
502 524 m 1
 496.667 503.333 487.667 484.333 475 467 c 0
 460.333 446.333 447.333 431.333 436 422 c 1
 395 373 l 1
 383.667 353.667 374.333 331.667 367 307 c 1
 291 74 l 1
 401 74 l 2
 427 74 445.667 78 457 86 c 0
 465.667 91.3333 474.333 107 483 133 c 2
 569 401 l 1
 577.667 423 582 442.333 582 459 c 0
 582 502.333 555.333 524 502 524 c 1
250 602 m 0
 228.667 602 211 596 197 584 c 0
 181.667 570.667 171.333 555.667 166 539 c 1
 162 520 l 1
 162 512 164 504 168 496 c 0
 173.333 482 186.333 475 207 475 c 0
 229 475 247.333 482 262 496 c 0
 277.333 508.667 287.667 523 293 539 c 1
 297 563 l 1
 297 571 295 578 291 584 c 0
 285 596 271.333 602 250 602 c 0
EndSplineSet
EndChar
StartChar: uni0E0B
Encoding: 141 3595
OldEncoding: 3595
Width: 802
Flags: W
Fore
569 598 m 1
 601 606 639.333 621.667 684 645 c 0
 734.667 669.667 786 710.667 838 768 c 1
 887 727 l 1
 860.333 697 829.667 669 795 643 c 1
 759 620.333 729 604 705 594 c 0
 671.667 579.333 653.667 571.667 651 571 c 1
 667.667 569 686.333 558.333 707 539 c 0
 716.333 529 721 514 721 494 c 0
 722.333 477.333 717.667 452 707 418 c 1
 614 133 l 1
 595.333 77 574.333 41 551 25 c 0
 524.333 8.33333 481.333 8.67362e-19 422 0 c 2
 139 0 l 1
 164 74 l 1
 250 74 l 1
 371 449 l 1
 380.333 479.667 393.333 502.667 410 518 c 0
 426 534 446.333 548.333 471 561 c 0
 481 567 488 574.667 492 584 c 1
 492 594 l 2
 492 600 488.333 609.667 481 623 c 0
 472.333 635.667 463 643 453 645 c 1
 348 588 l 1
 268 645 l 1
 238.667 639 212 624 188 600 c 0
 166.667 578.667 152.333 558.333 145 539 c 1
 170 553 l 2
 178.667 558.333 194.333 561 217 561 c 0
 253 559 279.667 548.667 297 530 c 0
 307.667 517.333 313 501.667 313 483 c 0
 313 468.333 310.333 452.667 305 436 c 0
 291 397.333 267 366.667 233 344 c 0
 199 322 165.667 311 133 311 c 0
 93 311 63.6667 326.667 45 358 c 1
 37 376.667 33 396 33 416 c 0
 33 436.667 37 459 45 483 c 0
 53 508.333 67.3333 537.667 88 571 c 0
 115.333 613 149.333 646.667 190 672 c 1
 234 696.667 270.333 709 299 709 c 1
 371 653 l 1
 467 709 l 1
 497.667 701.667 519.333 690.667 532 676 c 0
 548 658 557.667 641 561 625 c 1
 569 598 l 1
 569 598 l 1
543 539 m 1
 512 516 l 1
 494.667 506 483 497 477 489 c 0
 465.667 469.667 458.333 454.667 455 444 c 2
 336 74 l 1
 446 74 l 2
 474.667 74 494 78 504 86 c 0
 510.667 90 518.667 105.667 528 133 c 1
 621 418 l 1
 627.667 440 631 457.667 631 471 c 0
 631 516.333 601.667 539 543 539 c 1
197 502 m 0
 177.667 502 159.667 495.667 143 483 c 0
 128.333 470.333 118.333 455.333 113 438 c 1
 109 420 l 1
 109 411.333 111 403 115 395 c 0
 122.333 381.667 136 375 156 375 c 0
 175.333 375 193 381 209 393 c 1
 223 408.333 233.333 423.333 240 438 c 1
 244 463 l 1
 244 470.333 242 477 238 483 c 0
 229.333 495.667 215.667 502 197 502 c 0
EndSplineSet
EndChar
StartChar: uni0E0C
Encoding: 142 3596
OldEncoding: 3596
Width: 972
Flags: W
Fore
207 367 m 1
 164 231 l 1
 170.667 237 185.667 240 209 240 c 0
 245.667 240 271.667 227.667 287 203 c 1
 293.667 186.333 297 172 297 160 c 0
 297 144 294.333 129 289 115 c 0
 279.667 83.6667 259 54.3333 227 27 c 0
 197.667 1 164.333 -12 127 -12 c 0
 90.3333 -12 63 -0.333333 45 23 c 0
 35.6667 36.3333 31 52 31 70 c 0
 31 84.6667 33.6667 99.6667 39 115 c 2
 121 362 l 1
 147 442.667 191.333 492.667 254 512 c 1
 244.667 521.333 229.667 533 209 547 c 0
 191.667 557.667 161.667 569.333 119 582 c 1
 141.667 604.667 182.667 631.333 242 662 c 0
 301.333 693.333 371 709 451 709 c 0
 587 709 655 667.333 655 584 c 0
 655 562.667 651 538.667 643 512 c 1
 559 254 l 1
 591 248 621 233.667 649 211 c 0
 677.667 188.333 697.667 159.667 709 125 c 1
 893 696 l 1
 979 696 l 1
 754 0 l 1
 668 0 l 1
 666 21.3333 661.667 42.3333 655 63 c 0
 649 83.6667 636.667 106.333 618 131 c 0
 601.333 152.333 574.333 170.667 537 186 c 1
 502 78 l 1
 483.333 18 446.333 -12 391 -12 c 0
 356.333 -12 334 1.66667 324 29 c 1
 318 39 315 52.6667 315 70 c 0
 315 86 318.667 105 326 127 c 0
 336 162.333 355 192.333 383 217 c 0
 409 241 439 254 473 256 c 1
 557 512 l 2
 562.333 528 565 544.333 565 561 c 0
 565 581 559 598 547 612 c 1
 525 634 490 645 442 645 c 0
 380 645 314.667 628 246 594 c 1
 254 591.333 273 581.667 303 565 c 0
 325.667 552.333 347 533.333 367 508 c 1
 355.667 508 342 505.333 326 500 c 0
 309.333 494.667 288 481.667 262 461 c 1
 235.333 433.667 217 402.333 207 367 c 1
418 82 m 1
 455 197 l 1
 420.333 189.667 396.333 163.667 383 119 c 1
 379 94 l 1
 379 87.3333 379.667 83.3333 381 82 c 0
 385 71.3333 390.333 66 397 66 c 0
 404.333 66 411.333 71.3333 418 82 c 1
145 51 m 0
 166.333 51 184.333 57.3333 199 70 c 0
 213.667 82.6667 223.667 97.6667 229 115 c 1
 231 133 l 1
 231 143.667 229 152 225 158 c 0
 219 170 206 176 186 176 c 0
 167.333 176 149.667 170 133 158 c 1
 119 145.333 108.667 131 102 115 c 1
 98 94 l 1
 98 84 100 76 104 70 c 0
 112.667 57.3333 126.333 51 145 51 c 0
EndSplineSet
EndChar
StartChar: uni0E0D
Encoding: 143 3597
OldEncoding: 3597
Width: 972
Flags: W
Fore
784 -72 m 1
 766.667 -131.333 738.667 -182.333 700 -225 c 1
 664 -267.667 624 -298.333 580 -317 c 1
 536 -337.667 492.333 -348 449 -348 c 0
 391 -348 347 -333 317 -303 c 1
 294.333 -284.333 283 -261 283 -233 c 0
 283 -220.333 285 -207 289 -193 c 0
 299.667 -163 319.333 -133.333 348 -104 c 1
 377.333 -78 413.667 -66 457 -68 c 0
 492.333 -68 516.667 -80 530 -104 c 0
 536 -116.667 539 -131 539 -147 c 0
 539 -161 536.667 -174.667 532 -188 c 0
 527.333 -204 516.667 -223.333 500 -246 c 1
 486.667 -260 468.667 -273.667 446 -287 c 1
 490 -287 536.667 -273.333 586 -246 c 0
 631.333 -220 669.333 -162 700 -72 c 1
 784 -72 l 1
94 115 m 1
 174 362 l 1
 200.667 442 245.667 492 309 512 c 1
 300.333 520 284.667 531.667 262 547 c 0
 244.667 558.333 215.333 570 174 582 c 1
 198 604.667 239 631.333 297 662 c 0
 358.333 693.333 428.667 709 508 709 c 0
 643.333 709 711 667.333 711 584 c 0
 711 562 706.667 538 698 512 c 2
 555 74 l 1
 682 74 l 2
 710 74 729 78 739 86 c 1
 748.333 91.3333 757.333 107 766 133 c 2
 948 696 l 1
 1034 696 l 1
 852 133 l 1
 841.333 98.3333 827.667 69.6667 811 47 c 0
 796.333 27.6667 778.667 15.3333 758 10 c 0
 732.667 3.33333 699.667 2.1684e-19 659 0 c 2
 360 0 l 1
 385 74 l 1
 469 74 l 1
 612 512 l 2
 618 530 621 546.333 621 561 c 0
 621 580.333 614.667 597.333 602 612 c 0
 580.667 634 546.667 645 500 645 c 0
 437.333 645 371 628 301 594 c 1
 311.667 590.667 330.667 581 358 565 c 0
 380.667 552.333 402 533.333 422 508 c 1
 410.667 508 397 505.333 381 500 c 0
 361 494 339.667 481 317 461 c 1
 293 436.333 274.667 405 262 367 c 2
 217 231 l 1
 225.667 237 241.333 240 264 240 c 0
 304 240 330 227.667 342 203 c 0
 348.667 186.333 352 172 352 160 c 0
 352 144 349.333 129 344 115 c 0
 334.667 81.6667 315 52.3333 285 27 c 0
 255 1 220.667 -12 182 -12 c 0
 146 -12 119.333 -0.333333 102 23 c 0
 91.3333 37.6667 86 53.3333 86 70 c 0
 86 84.6667 88.6667 99.6667 94 115 c 1
393 -244 m 0
 411.667 -244 427.333 -238.333 440 -227 c 1
 453.333 -218.333 462.333 -205.333 467 -188 c 1
 469 -170 l 1
 467 -150 l 1
 461 -138.667 448.667 -133 430 -133 c 0
 412.667 -133 397.667 -138.667 385 -150 c 1
 371 -160 360.667 -172.667 354 -188 c 1
 350 -205 l 1
 350 -214.333 352.667 -221.667 358 -227 c 1
 365.333 -238.333 377 -244 393 -244 c 0
203 51 m 0
 223 51 240.667 57.3333 256 70 c 0
 269.333 81.3333 279 96.3333 285 115 c 1
 287 133 l 1
 287 141.667 285.667 150 283 158 c 1
 274.333 170 260.667 176 242 176 c 0
 222 176 204.667 170 190 158 c 0
 174.667 145.333 164 131 158 115 c 1
 154 94 l 1
 154 83.3333 156.667 75.3333 162 70 c 1
 168 57.3333 181.667 51 203 51 c 0
EndSplineSet
EndChar
StartChar: uni0E0E
Encoding: 144 3598
OldEncoding: 3598
Width: 827
Flags: W
Fore
219 231 m 1
 256 346 l 2
 264 372 275.667 396 291 418 c 1
 309 440.667 324 455.667 336 463 c 0
 350.667 472.333 367 480.333 385 487 c 1
 381.667 492.333 366.667 503.333 340 520 c 0
 315.333 536 285.333 545 250 547 c 1
 276.667 574.333 323.667 608.333 391 649 c 1
 461 689 536 709 616 709 c 0
 699.333 709 760.333 689.667 799 651 c 1
 823.667 628.333 836 597.667 836 559 c 0
 836 537 831 511.667 821 483 c 1
 551 -350 l 1
 467 -350 l 1
 452.333 -314 430.333 -281.333 401 -252 c 0
 384.333 -234.667 363.333 -217 338 -199 c 1
 316.667 -235.667 281 -271 231 -305 c 0
 181.667 -339.667 132.667 -356 84 -354 c 0
 41.3333 -354 12 -340.333 -4 -313 c 1
 -13.3333 -299.667 -18 -282.667 -18 -262 c 0
 -18 -246.667 -14.6667 -229 -8 -209 c 0
 5.33333 -165.667 32.6667 -130.667 74 -104 c 0
 112 -81.3333 155 -70 203 -70 c 0
 239.667 -70 279.333 -77.3333 322 -92 c 1
 342 -59 l 1
 369 0 l 1
 442 -16 l 1
 412 -82 l 1
 385 -125 l 1
 413.667 -141 439.667 -160 463 -182 c 1
 485 -205.333 498.667 -223.333 504 -236 c 1
 737 483 l 1
 742.333 496.333 745 510.667 745 526 c 0
 745 542 742.333 554.333 737 563 c 1
 726.333 587 708.667 604.667 684 616 c 0
 659.333 628.667 630 635 596 635 c 0
 524 635 453.667 612.333 385 567 c 1
 395 565 412.667 557.667 438 545 c 0
 460 533.667 481.333 516 502 492 c 1
 481.333 487.333 454.667 475 422 455 c 0
 386 433 360 398 344 350 c 2
 266 111 l 1
 256 75 235.667 46.3333 205 25 c 1
 174.333 0.333333 138.667 -12 98 -12 c 0
 60.6667 -12 34.6667 0.333333 20 25 c 0
 12 39 8 54.6667 8 72 c 0
 8 87.3333 10.6667 101.667 16 115 c 0
 26.6667 149 47.3333 178.333 78 203 c 0
 110 227.667 144 240 180 240 c 0
 197.333 240 210.333 237 219 231 c 1
168 -264 m 0
 192.667 -254 215.333 -237.667 236 -215 c 1
 276 -164 l 1
 240 -151.333 206.667 -145 176 -145 c 0
 118.667 -145 84 -166.333 72 -209 c 1
 68 -240 l 1
 70 -262.667 89 -274 125 -274 c 0
 138.333 -274 152.667 -270.667 168 -264 c 0
121 51 m 0
 143 51 160.667 57.3333 174 70 c 0
 191.333 84.6667 202.333 99.6667 207 115 c 1
 209 135 l 1
 209 144.333 207 152 203 158 c 0
 195 170 180.667 176 160 176 c 0
 140 176 123 170 109 158 c 0
 92.3333 143.333 82 129 78 115 c 1
 74 96 l 1
 74 86 76 78 80 72 c 1
 85.3333 58 99 51 121 51 c 0
EndSplineSet
EndChar
StartChar: uni0E0F
Encoding: 145 3599
OldEncoding: 3599
Width: 827
Flags: W
Fore
219 231 m 1
 256 346 l 2
 264 372 275.667 396 291 418 c 1
 309 440.667 324 455.667 336 463 c 0
 350.667 472.333 367 480.333 385 487 c 1
 381.667 492.333 366.667 503.333 340 520 c 0
 315.333 536 285.333 545 250 547 c 1
 276.667 574.333 323.667 608.333 391 649 c 1
 461 689 536 709 616 709 c 0
 699.333 709 760.333 689.667 799 651 c 1
 823.667 628.333 836 597.667 836 559 c 0
 836 537 831 511.667 821 483 c 1
 551 -350 l 1
 467 -350 l 1
 410 -236 l 1
 268 -354 l 1
 264 -334.667 258 -316.333 250 -299 c 1
 227 -256 l 1
 212.333 -272.667 190 -293 160 -317 c 0
 127.333 -341.667 91 -354 51 -354 c 0
 17.6667 -354 -6 -341.667 -20 -317 c 0
 -27.3333 -304.333 -31 -290 -31 -274 c 0
 -31 -260 -27.3333 -241 -20 -217 c 1
 -6.66667 -183.667 14.3333 -157 43 -137 c 1
 71 -119.667 102.333 -111 137 -111 c 0
 175 -111 208 -122.333 236 -145 c 1
 244.667 -135 257.333 -114.667 274 -84 c 1
 290 -58.6667 304.333 -30.6667 317 0 c 1
 387 -16 l 1
 379 -34 362.667 -65 338 -109 c 1
 306 -158.333 287 -186.333 281 -193 c 1
 283 -193 293.667 -210 313 -244 c 1
 432 -150 l 1
 500 -248 l 1
 737 483 l 1
 742.333 496.333 745 510.667 745 526 c 0
 745 542 742.333 554.333 737 563 c 1
 726.333 587 708.667 604.667 684 616 c 0
 659.333 628.667 630 635 596 635 c 0
 524 635 453.667 612.333 385 567 c 1
 395 565 412.667 557.667 438 545 c 0
 460 533.667 481.333 516 502 492 c 1
 481.333 487.333 454.667 475 422 455 c 0
 386 433 360 398 344 350 c 2
 266 111 l 1
 256 75 235.667 46.3333 205 25 c 1
 174.333 0.333333 138.667 -12 98 -12 c 0
 60.6667 -12 34.6667 0.333333 20 25 c 0
 12 39 8 54.6667 8 72 c 0
 8 87.3333 10.6667 101.667 16 115 c 0
 26.6667 149 47.3333 178.333 78 203 c 0
 110 227.667 144 240 180 240 c 0
 200.667 240 213.667 237 219 231 c 1
113 -276 m 0
 126.333 -268.667 142.667 -256 162 -238 c 1
 190 -205 l 1
 172.667 -187 150.333 -178 123 -178 c 0
 91 -178 67.6667 -190.333 53 -215 c 1
 49 -229 47 -241.333 47 -252 c 0
 47 -273.333 58.6667 -285 82 -287 c 0
 91.3333 -287 101.667 -283.333 113 -276 c 0
121 51 m 0
 143 51 160.667 57.3333 174 70 c 0
 191.333 84.6667 202.333 99.6667 207 115 c 1
 209 135 l 1
 209 144.333 207 152 203 158 c 0
 195 170 180.667 176 160 176 c 0
 140 176 123 170 109 158 c 0
 92.3333 143.333 82 129 78 115 c 1
 74 96 l 1
 74 86 76 78 80 72 c 1
 85.3333 58 99 51 121 51 c 0
EndSplineSet
EndChar
StartChar: uni0E10
Encoding: 146 3600
OldEncoding: 3600
Width: 661
Flags: W
Fore
344 428 m 0
 369.333 428 392 420.667 412 406 c 0
 430.667 390.667 442 370.667 446 346 c 1
 473 170 l 1
 526 338 l 1
 537.333 370 543 394.667 543 412 c 0
 543 424.667 540.333 434.667 535 442 c 0
 525 460 499.667 476.667 459 492 c 1
 417.667 504.667 372 515.333 322 524 c 1
 274 534.667 237 541 211 543 c 1
 254.333 590.333 300.667 630 350 662 c 1
 403.333 693.333 452.667 709 498 709 c 0
 527.333 709 550.333 706.667 567 702 c 0
 595 693.333 615.667 686 629 680 c 2
 682 659 l 1
 696 655 710.333 653 725 653 c 0
 749 653 775 658.667 803 670 c 1
 797 598 l 1
 759.667 584.667 726.667 578 698 578 c 0
 682 578 666.333 580 651 584 c 1
 594 606 l 1
 530 631 l 2
 517.333 636.333 500.333 639 479 639 c 0
 461 639 438 633.667 410 623 c 1
 384.667 611 369.667 601.333 365 594 c 1
 401 584 l 1
 469 563 l 1
 532 547 l 2
 592.667 529.667 627 507 635 479 c 1
 637 455 l 1
 637 427.667 629.333 390 614 342 c 2
 504 0 l 1
 401 0 l 1
 405.667 23.3333 408 49.3333 408 78 c 0
 408 94.6667 406.333 113 403 133 c 0
 395.667 190.333 390.333 225.333 387 238 c 1
 376.333 221.333 358.667 206.333 334 193 c 0
 310 181.667 286 176 262 176 c 0
 223.333 176 196.667 188.333 182 213 c 0
 174 227 170 242.667 170 260 c 0
 170 274.667 172.667 288.333 178 301 c 1
 188 337 208.667 367 240 391 c 1
 269.333 415.667 304 428 344 428 c 0
322 -303 m 2
 325.333 -301 329.333 -294.333 334 -283 c 1
 342 -260 l 1
 336 -260 l 1
 322 -262 l 1
 288 -262 266 -252.333 256 -233 c 0
 249.333 -219.667 246 -207.667 246 -197 c 0
 246 -186.333 248 -176 252 -166 c 0
 260 -138.667 276.333 -114.667 301 -94 c 0
 326.333 -73.3333 354.333 -63 385 -63 c 0
 415 -63 436.333 -72 449 -90 c 0
 454.333 -98.6667 457 -110.333 457 -125 c 0
 457 -139.667 454.333 -153.333 449 -166 c 1
 412 -287 l 1
 406.667 -299 400.333 -310.667 393 -322 c 1
 387.667 -327.333 378.333 -334 365 -342 c 2
 328 -362 l 1
 256 -397 l 1
 195 -346 l 1
 96 -393 l 1
 82 -319 l 1
 44.6667 -365 0.333333 -387 -51 -385 c 0
 -97.6667 -385 -121 -364.667 -121 -324 c 0
 -121 -308 -118.333 -293 -113 -279 c 0
 -101.667 -251 -83 -228.333 -57 -211 c 0
 -31 -193 -3.66667 -184 25 -184 c 0
 50.3333 -184 73.3333 -192.333 94 -209 c 1
 100 -201 109 -186 121 -164 c 1
 158 -72 l 1
 221 -72 l 1
 200.333 -136.667 169 -198.667 127 -258 c 1
 143 -307 l 1
 172 -295 l 1
 219 -272 l 1
 285 -324 l 1
 322 -303 l 2
338 -213 m 0
 354 -213 367.667 -208.333 379 -199 c 1
 390.333 -186.333 397.667 -174.667 401 -164 c 1
 403 -147 l 1
 399 -129 l 1
 393.667 -119.667 383.667 -115 369 -115 c 0
 351 -115 337.333 -119.667 328 -129 c 0
 317.333 -139 309 -150.667 303 -164 c 1
 301 -178 l 1
 305 -199 l 1
 310.333 -208.333 321.333 -213 338 -213 c 0
283 238 m 0
 301 238 318.667 244 336 256 c 1
 350.667 270.667 360.333 285.667 365 301 c 1
 369 326 l 1
 365 346 l 1
 357.667 358.667 344 365 324 365 c 0
 306 365 288 358.667 270 346 c 1
 256 334 246 319 240 301 c 1
 238 283 l 1
 238 272.333 240 264 244 258 c 0
 250 244.667 263 238 283 238 c 0
4 -240 m 0
 -14 -240 -27.6667 -244.667 -37 -254 c 0
 -48.3333 -265.333 -55.6667 -276.333 -59 -287 c 1
 -61 -299 l 1
 -57 -315 l 1
 -51.6667 -325 -41 -330 -25 -330 c 0
 -11.6667 -330 0.666667 -325.667 12 -317 c 1
 25.3333 -309 35.6667 -300.333 43 -291 c 2
 57 -272 l 1
 55.6667 -268 50.3333 -261.333 41 -252 c 0
 33 -244 20.6667 -240 4 -240 c 0
EndSplineSet
EndChar
StartChar: uni0E11
Encoding: 147 3601
OldEncoding: 3601
Width: 964
Flags: W
Fore
236 0 m 1
 383 449 l 2
 391.667 475 400.667 494 410 506 c 0
 418.667 516.667 428.667 527 440 537 c 1
 481 561 l 2
 493.667 567.667 500.667 575.333 502 584 c 1
 504 594 l 1
 504 602 500 611.667 492 623 c 1
 480 636.333 470.333 643.667 463 645 c 1
 358 588 l 1
 279 645 l 1
 249 639 222.333 624 199 600 c 0
 177 578.667 162.667 558.333 156 539 c 1
 158.667 541.667 166.667 546.333 180 553 c 0
 188.667 558.333 204.333 561 227 561 c 0
 263 559 289.667 548.667 307 530 c 0
 318.333 516.667 324 501 324 483 c 0
 324 467.667 321 452 315 436 c 0
 301 396.667 277.333 366 244 344 c 0
 209.333 322 175.667 311 143 311 c 0
 104.333 311 75 326.667 55 358 c 1
 47 376.667 43 396 43 416 c 0
 43 436.667 47 459 55 483 c 0
 67.6667 518.333 82 547.667 98 571 c 1
 120 610.333 154.333 644 201 672 c 0
 245 696.667 280.333 709 307 709 c 1
 381 653 l 1
 477 709 l 1
 510.333 697 536.333 680.333 555 659 c 1
 571.667 642.333 580 624.667 580 606 c 0
 580 596.667 577.667 587.333 573 578 c 1
 569 562.667 563 551 555 543 c 0
 545 533 534 524 522 516 c 0
 510.667 509.333 499.667 499.667 489 487 c 0
 481 479 473.667 464.667 467 444 c 2
 430 334 l 1
 522 457 l 1
 568 516.333 618.667 569.333 674 616 c 1
 732 669.333 786.667 696 838 696 c 0
 880.667 696 908.667 680.333 922 649 c 0
 927.333 636.333 930 620.667 930 602 c 0
 930 578 926.667 557 920 539 c 1
 743 0 l 1
 657 0 l 1
 834 539 l 2
 839.333 555 842 570 842 584 c 0
 842 606.667 830.333 618 807 618 c 0
 783 618 749 597 705 555 c 0
 657 510.333 607.667 456.333 557 393 c 0
 506.333 331.667 458 263.333 412 188 c 0
 372 124 342 61.3333 322 0 c 1
 236 0 l 1
207 502 m 0
 185 502 167.333 495.667 154 483 c 1
 137.333 471 127 456 123 438 c 2
 119 420 l 1
 119 411.333 121 403 125 395 c 0
 131 381.667 144.667 375 166 375 c 0
 186 375 203 381 217 393 c 1
 235 412.333 246 427.333 250 438 c 1
 254 463 l 1
 254 470.333 252 477 248 483 c 0
 240 495.667 226.333 502 207 502 c 0
EndSplineSet
EndChar
StartChar: uni0E12
Encoding: 148 3602
OldEncoding: 3602
Width: 1028
Flags: W
Fore
528 256 m 1
 596 461 l 2
 608 496.333 614 529 614 559 c 2
 614 567 l 1
 612 592.333 598.333 615.667 573 637 c 1
 436 563 l 1
 436 563 l 1
 406 592 l 1
 350 637 l 1
 246.667 591 182 526.667 156 444 c 0
 147.333 418.667 143 389.333 143 356 c 0
 143 320 148 285.333 158 252 c 0
 166 218.667 170 193.333 170 176 c 1
 168 158 l 1
 242 238 l 2
 256 252 273.667 267 295 283 c 1
 270.333 290.333 252.667 306 242 330 c 0
 238 340 236 352.333 236 367 c 0
 236 378.333 238 391.333 242 406 c 0
 252 440 272.333 469.333 303 494 c 0
 334.333 518 370 530 410 530 c 0
 449.333 530 475.667 517.333 489 492 c 0
 496.333 476 500 460 500 444 c 0
 500 428.667 497.333 414.333 492 401 c 0
 485.333 382.333 477 365.333 467 350 c 1
 455 336 441.333 323 426 311 c 2
 379 274 l 1
 350.333 249.333 319 220.667 285 188 c 1
 255.667 162 229 133.333 205 102 c 0
 181.667 73.3333 159.667 39.3333 139 0 c 1
 53 0 l 1
 69 17.3333 80 35.6667 86 55 c 0
 91.3333 71.6667 94 99 94 137 c 2
 94 150 l 2
 94 163.333 90 190.333 82 231 c 0
 74.6667 267.667 70 305.333 68 344 c 1
 68 354 l 2
 68 383.333 73.3333 417.667 84 457 c 1
 106 514.333 142.333 564 193 606 c 0
 245.667 650.667 303 685 365 709 c 1
 459 629 l 1
 600 709 l 1
 639.333 685.667 666.667 663 682 641 c 1
 695.333 619 702 595.667 702 571 c 2
 702 567 l 2
 702 537 695.333 501.667 682 461 c 2
 614 254 l 1
 641.333 248.667 670.667 234.333 702 211 c 0
 735.333 184.333 756.667 155.667 766 125 c 1
 950 696 l 1
 1034 696 l 1
 809 0 l 1
 725 0 l 1
 711 98 666.667 160 592 186 c 1
 557 78 l 1
 539 18 502 -12 446 -12 c 0
 411.333 -12 389 1.66667 379 29 c 1
 373.667 39.6667 371 53.3333 371 70 c 0
 371 84.6667 374.333 103.667 381 127 c 0
 393.667 163.667 412.667 193.667 438 217 c 0
 464 241 494 254 528 256 c 1
389 467 m 0
 369 467 352 461 338 449 c 0
 321.333 433.667 310.333 418.333 305 403 c 1
 301 385 l 1
 301 375 303 366.667 307 360 c 0
 313 346.667 326 340 346 340 c 0
 368.667 340 387 346 401 358 c 0
 416.333 371.333 426.667 386.333 432 403 c 1
 436 426 l 1
 436 434 434 441.667 430 449 c 0
 424 461 410.333 467 389 467 c 0
473 82 m 1
 510 197 l 1
 476 189.667 452 163.667 438 119 c 1
 434 111 432 102.667 432 94 c 0
 432 88.6667 433.333 84.6667 436 82 c 1
 440 71.3333 445.667 66 453 66 c 0
 459.667 66 466.333 71.3333 473 82 c 1
EndSplineSet
EndChar
StartChar: uni0E13
Encoding: 149 3603
OldEncoding: 3603
Width: 1003
Flags: W
Fore
39 115 m 2
 121 362 l 1
 147 442.667 191.333 492.667 254 512 c 1
 244.667 521.333 229.667 533 209 547 c 0
 191.667 557.667 161.667 569.333 119 582 c 1
 141.667 604.667 182.667 631.333 242 662 c 0
 301.333 693.333 371 709 451 709 c 0
 587 709 655 667.333 655 584 c 0
 655 562.667 651 538.667 643 512 c 1
 526 150 l 1
 599.333 224.667 674.667 273 752 295 c 1
 881 696 l 1
 967 696 l 1
 840 301 l 1
 878.667 295 906 279.333 922 254 c 0
 930 242 934 227 934 209 c 0
 934 193 929.333 170.333 920 141 c 1
 900.667 89 874.667 51 842 27 c 0
 806.667 -0.333333 771 -14 735 -14 c 0
 711 -14 693.333 -7.33333 682 6 c 0
 675.333 14.6667 672 25.6667 672 39 c 1
 676 63 l 1
 727 225 l 1
 673.667 207.667 622.333 173.667 573 123 c 0
 525.667 74.3333 493.667 33.3333 477 0 c 1
 391 0 l 1
 557 512 l 2
 562.333 528 565 544.333 565 561 c 0
 565 581 559 598 547 612 c 1
 525 634 490 645 442 645 c 0
 380 645 314.667 628 246 594 c 1
 254 591.333 273 581.667 303 565 c 0
 325.667 552.333 347 533.333 367 508 c 1
 355.667 508 342 505.333 326 500 c 0
 309.333 494.667 288 481.667 262 461 c 1
 235.333 433.667 217 402.333 207 367 c 1
 164 231 l 1
 170.667 237 185.667 240 209 240 c 0
 245.667 240 271.667 227.667 287 203 c 1
 293.667 186.333 297 172 297 160 c 0
 297 144 294.333 129 289 115 c 0
 279.667 83.6667 259 54.3333 227 27 c 0
 197.667 1 164.333 -12 127 -12 c 0
 90.3333 -12 63 -0.333333 45 23 c 0
 35.6667 36.3333 31 52 31 70 c 0
 31 84.6667 33.6667 99.6667 39 115 c 2
766 78 m 1
 764 66 l 1
 764 58.6667 767.333 55 774 55 c 0
 786.667 55 801.667 63.3333 819 80 c 1
 835 93.3333 847.333 113.667 856 141 c 0
 861.333 156.333 864 170.667 864 184 c 0
 864 213.333 848.333 230.667 817 236 c 1
 766 78 l 1
145 51 m 0
 166.333 51 184.333 57.3333 199 70 c 0
 213.667 82.6667 223.667 97.6667 229 115 c 1
 231 133 l 1
 231 143.667 229 152 225 158 c 0
 219 170 206 176 186 176 c 0
 167.333 176 149.667 170 133 158 c 1
 119 145.333 108.667 131 102 115 c 1
 98 94 l 1
 98 84 100 76 104 70 c 0
 112.667 57.3333 126.333 51 145 51 c 0
EndSplineSet
EndChar
StartChar: uni0E14
Encoding: 150 3604
OldEncoding: 3604
Width: 751
Flags: W
Fore
158 453 m 0
 146.667 421 141 387.333 141 352 c 0
 141 320 145.333 288 154 256 c 0
 160.667 230.667 164 209.667 164 193 c 0
 164 178.333 162 164 158 150 c 1
 185.333 183.333 211.333 211 236 233 c 2
 291 283 l 1
 266.333 290.333 248.667 306 238 330 c 0
 233.333 339.333 231 351.667 231 367 c 0
 231 379 233.333 392 238 406 c 0
 248 440 268.333 469.333 299 494 c 0
 330.333 518 366 530 406 530 c 0
 445.333 530 471.667 517.333 485 492 c 0
 492.333 476 496 460 496 444 c 0
 496 428 493 413.667 487 401 c 1
 482.333 386.333 473.667 369.333 461 350 c 1
 446.333 332.667 433.333 319.667 422 311 c 0
 400.667 295.667 385 283.333 375 274 c 0
 332.333 237.333 301 208.667 281 188 c 1
 251.667 162 225 133.333 201 102 c 0
 177.667 73.3333 155.667 39.3333 135 0 c 1
 49 0 l 1
 65.6667 19.3333 76.6667 37.6667 82 55 c 0
 87.3333 71.6667 90 99 90 137 c 2
 90 150 l 2
 90 167.333 86 195 78 233 c 0
 72 265.667 67 303.333 63 346 c 1
 63 352 l 2
 63 386.667 69.3333 421.667 82 457 c 0
 110 527.667 158.333 588.333 227 639 c 0
 295 688.333 379.667 713 481 713 c 0
 624.333 713 696 662.333 696 561 c 0
 696 533.667 690 500.333 678 461 c 1
 528 0 l 1
 440 0 l 1
 592 465 l 2
 601.333 493.667 606 521 606 547 c 0
 606 568.333 603.333 585.333 598 598 c 0
 586.667 632 541 649 461 649 c 0
 392.333 649 329.333 630.667 272 594 c 0
 214 556 176 509 158 453 c 0
385 467 m 0
 365 467 348 461 334 449 c 0
 318 435 307 419.667 301 403 c 1
 299 385 l 1
 303 360 l 1
 309 346.667 322 340 342 340 c 0
 364.667 340 383 346 397 358 c 0
 413 371.333 422.667 386.333 426 403 c 1
 430 426 l 1
 426 449 l 1
 420 461 406.333 467 385 467 c 0
EndSplineSet
EndChar
StartChar: uni0E15
Encoding: 151 3605
OldEncoding: 3605
Width: 751
Flags: W
Fore
166 158 m 1
 237 237 l 1
 238 238 l 1
 291 283 l 1
 265 290.333 248 306 240 330 c 1
 234 338.667 231 351 231 367 c 0
 231 380.333 234 393.333 240 406 c 1
 250 440 270.333 469.333 301 494 c 0
 332.333 518 368 530 408 530 c 0
 447.333 530 473.667 517.333 487 492 c 0
 494.333 476 498 460 498 444 c 0
 498 428 495 413.667 489 401 c 1
 484.333 386.333 475.667 369.333 463 350 c 1
 448.333 332.667 435.333 319.667 424 311 c 0
 402.667 295.667 387 283.333 377 274 c 0
 334.333 237.333 303 208.667 283 188 c 1
 253.667 162 227 133.333 203 102 c 0
 179.667 73.3333 157.667 39.3333 137 0 c 1
 51 0 l 1
 67 17.3333 78 35.6667 84 55 c 0
 89.3333 71.6667 92 99 92 137 c 2
 92 150 l 2
 92 163.333 88 190.333 80 231 c 0
 72.6667 267.667 68 305.333 66 344 c 1
 66 354 l 2
 66 383.333 71.3333 417.667 82 457 c 1
 104 514.333 140 564 190 606 c 0
 244 650.667 301.333 685 362 709 c 1
 457 629 l 1
 598 709 l 1
 637.333 685.667 664.667 663 680 641 c 1
 693.333 619 700 595.667 700 571 c 2
 700 567 l 1
 697.333 533.667 690 498.333 678 461 c 2
 530 0 l 1
 442 0 l 1
 592 461 l 1
 605.333 500.333 612 533 612 559 c 2
 612 567 l 1
 610 592.333 596.333 615.667 571 637 c 1
 434 563 l 1
 434 563 l 1
 434 563.667 423.667 573.333 403 592 c 1
 348 637 l 1
 244.667 591 180 526.667 154 444 c 0
 145.333 418.667 141 389.333 141 356 c 0
 141 320 146 285.333 156 252 c 0
 164 218.667 168 193.333 168 176 c 1
 166 158 l 1
387 467 m 0
 367 467 350 461 336 449 c 0
 318 433 306.333 417.667 301 403 c 1
 299 385 l 1
 299 375 301 366.667 305 360 c 0
 311 346.667 324 340 344 340 c 0
 366.667 340 385 346 399 358 c 0
 415 371.333 424.667 386.333 428 403 c 1
 432 426 l 1
 428 449 l 1
 422 461 408.333 467 387 467 c 0
EndSplineSet
EndChar
StartChar: uni0E16
Encoding: 152 3606
OldEncoding: 3606
Width: 743
Flags: W
Fore
41 115 m 1
 115 346 l 1
 126.333 384 144.667 415.333 170 440 c 0
 194 462 218.667 477.667 244 487 c 1
 239.333 492.333 225 503.333 201 520 c 0
 176.333 536 146.333 545 111 547 c 1
 139.667 575.667 186.667 609.667 252 649 c 0
 316.667 689 391 709 475 709 c 0
 525 709 569.333 700.667 608 684 c 0
 646 668.667 672 643.333 686 608 c 0
 691.333 595.333 694 578.333 694 557 c 0
 694 535 690 510.333 682 483 c 1
 524 0 l 1
 438 0 l 1
 596 483 l 1
 600 498.333 602 512.667 602 526 c 0
 602 540.667 600 553 596 563 c 0
 585.333 587 567.667 604.667 543 616 c 0
 518.333 628.667 488.333 635 453 635 c 0
 379.667 635 309.333 612.333 242 567 c 1
 251.333 565.667 269.667 558.333 297 545 c 0
 321 532.333 341.333 514.667 358 492 c 1
 337.333 486.667 311 474.333 279 455 c 0
 246.333 435 221.667 400 205 350 c 2
 166 231 l 1
 171.333 237 185.667 240 209 240 c 0
 245.667 240 271.667 227.667 287 203 c 0
 295 187.667 299 173.333 299 160 c 0
 299 144 296.333 129 291 115 c 0
 279.667 83 258.333 53.6667 227 27 c 0
 197.667 1 164.333 -12 127 -12 c 0
 89.6667 -12 63 -0.333333 47 23 c 0
 37.6667 36.3333 33 52 33 70 c 0
 33 84.6667 35.6667 99.6667 41 115 c 1
145 51 m 0
 166.333 51 184.333 57.3333 199 70 c 0
 213.667 82.6667 223.667 97.6667 229 115 c 1
 233 133 l 1
 233 144.333 230.333 152.667 225 158 c 1
 219 170 206 176 186 176 c 0
 167.333 176 149.667 170 133 158 c 1
 119 145.333 108.667 131 102 115 c 1
 100 94 l 1
 100 84 102 76 106 70 c 0
 112.667 57.3333 125.667 51 145 51 c 0
EndSplineSet
EndChar
StartChar: uni0E17
Encoding: 153 3607
OldEncoding: 3607
Width: 757
Flags: W
Fore
94 0 m 1
 244 459 l 1
 230.667 455 217 453 203 453 c 0
 163 453 136.333 466 123 492 c 1
 113.667 505.333 109 521.667 109 541 c 0
 109 553.667 111.667 566.667 117 580 c 1
 127 614 147.333 643.333 178 668 c 0
 210 692.667 245.667 705 285 705 c 0
 308.333 705 328 699.333 344 688 c 0
 359.333 677.333 369 662.333 373 643 c 1
 375 625 l 1
 375 607.667 372.333 592 367 578 c 1
 289 334 l 1
 367 436 l 1
 393 471.333 429 513 475 561 c 0
 513.667 599.667 552 632.333 590 659 c 0
 626.667 683.667 662 696 696 696 c 0
 726.667 696 749.333 688.667 764 674 c 1
 776.667 658.667 784 638.667 786 614 c 1
 786 604 l 2
 786 584.667 782 563 774 539 c 1
 602 0 l 1
 514 0 l 1
 688 539 l 2
 694.667 559 698 574 698 584 c 0
 698 606.667 688 618 668 618 c 0
 644 618 609 597 563 555 c 0
 514.333 509 465.333 455 416 393 c 0
 360 323 311.333 254.667 270 188 c 0
 232.667 128 202.667 65.3333 180 0 c 1
 94 0 l 1
262 641 m 0
 242 641 225 635 211 623 c 0
 193.667 607 182.667 592 178 578 c 1
 174 557 l 1
 174 548.333 176 541 180 535 c 0
 187.333 521 201 514 221 514 c 0
 243 514 260.667 521 274 535 c 1
 290.667 547 301 561.333 305 578 c 1
 309 600 l 1
 309 608 307 615.667 303 623 c 0
 297 635 283.333 641 262 641 c 0
EndSplineSet
EndChar
StartChar: uni0E18
Encoding: 154 3608
OldEncoding: 3608
Width: 665
Flags: W
Fore
242 586 m 1
 273.333 584 322.333 575.667 389 561 c 0
 451 547.667 500.333 520.333 537 479 c 0
 551.667 462.333 559 444 559 424 c 0
 559 410 553 382 541 340 c 1
 475 133 l 1
 456.333 77 435.333 41 412 25 c 0
 385.333 8.33333 342.333 8.67362e-19 283 0 c 2
 -20 0 l 1
 4 74 l 1
 90 74 l 1
 209 444 l 1
 293 444 l 1
 172 74 l 1
 305 74 l 2
 333 74 352 78 362 86 c 1
 371.333 91.3333 380.333 107 389 133 c 2
 457 342 l 2
 465 367.333 469 387 469 401 c 0
 469 417.667 462.333 432.667 449 446 c 0
 423.667 473.333 385.333 494 334 508 c 0
 285.333 521.333 229.333 528 166 528 c 1
 98 524 l 1
 118 553.333 154.333 592.333 207 641 c 1
 258.333 686.333 319.667 709 391 709 c 0
 433 709 479.333 699.333 530 680 c 0
 581.333 660.667 613.667 651 627 651 c 0
 653 651 679 657.333 705 670 c 1
 715 610 l 1
 674.333 591.333 639.333 582 610 582 c 0
 591.333 582 571 586 549 594 c 2
 485 618 l 1
 430 637 l 2
 414 642.333 394.333 645 371 645 c 0
 338.333 645 310.333 637.667 287 623 c 0
 265.667 609 250.667 596.667 242 586 c 1
EndSplineSet
EndChar
StartChar: uni0E19
Encoding: 155 3609
OldEncoding: 3609
Width: 806
Flags: W
Fore
96 0 m 1
 246 459 l 1
 232.667 455 219 453 205 453 c 0
 165 453 138.333 466 125 492 c 1
 115.667 505.333 111 521.667 111 541 c 0
 111 553.667 113.667 566.667 119 580 c 1
 128.333 612.667 148.667 642 180 668 c 0
 212 692.667 247.667 705 287 705 c 0
 310.333 705 330 699.333 346 688 c 0
 360.667 678 371 663 377 643 c 1
 379 625 l 1
 379 607.667 376.333 592 371 578 c 1
 225 133 l 1
 325.667 226.333 435.667 283 555 303 c 1
 684 696 l 1
 770 696 l 1
 641 301 l 1
 684.333 295 712.333 279.333 725 254 c 1
 733 242 737 227 737 209 c 0
 737 191 733 168.333 725 141 c 1
 707.667 91.6667 681 53.6667 645 27 c 0
 609.667 -0.333333 574.333 -14 539 -14 c 0
 515.667 -14 497.667 -7.33333 485 6 c 0
 477 14 473 25 473 39 c 1
 477 63 l 1
 535 236 l 1
 484.333 227.333 434.333 207.333 385 176 c 0
 332.333 144 290.667 112.667 260 82 c 1
 229.333 53.3333 203.333 26 182 0 c 1
 96 0 l 1
264 641 m 0
 244 641 227 635 213 623 c 0
 195.667 607 184.667 592.667 180 580 c 1
 178 559 l 1
 178 549 180 541 184 535 c 0
 190 522.333 203.667 516 225 516 c 0
 246.333 516 264.333 522.333 279 535 c 0
 291.667 547.667 301 562.667 307 580 c 1
 311 598 l 1
 311 607.333 309 615.667 305 623 c 0
 299 635 285.333 641 264 641 c 0
569 78 m 1
 567 68 l 1
 567 59.3333 572 55 582 55 c 0
 592.667 55 606.333 63.3333 623 80 c 0
 638.333 96 650.333 116.333 659 141 c 0
 665 155.667 668 170 668 184 c 0
 668 213.333 652.333 230.667 621 236 c 1
 569 78 l 1
EndSplineSet
EndChar
StartChar: uni0E1A
Encoding: 156 3610
OldEncoding: 3610
Width: 802
Flags: W
Fore
119 74 m 1
 244 459 l 1
 230.667 455 217 453 203 453 c 0
 163 453 136.333 466 123 492 c 1
 113.667 505.333 109 521.667 109 541 c 0
 109 553.667 111.667 566.667 117 580 c 1
 127 614 147.333 643.333 178 668 c 0
 210 692.667 245.667 705 285 705 c 0
 308.333 705 328 699.333 344 688 c 0
 358.667 678 369 663 375 643 c 1
 377 625 l 1
 377 607.667 374.333 592 369 578 c 1
 205 74 l 1
 457 74 l 2
 483.667 74 502 78 512 86 c 0
 520 90.6667 529 106.333 539 133 c 1
 721 696 l 1
 807 696 l 1
 625 133 l 1
 605 75 583 39 559 25 c 1
 535.667 8.33333 493.333 8.67362e-19 432 0 c 2
 10 0 l 1
 35 74 l 1
 119 74 l 1
262 641 m 0
 242 641 225 635 211 623 c 0
 193.667 607 182.667 592 178 578 c 1
 174 557 l 1
 174 548.333 176 541 180 535 c 0
 187.333 521 201 514 221 514 c 0
 243 514 260.667 521 274 535 c 1
 290.667 547 301 561.333 305 578 c 1
 309 600 l 1
 309 608 307 615.667 303 623 c 0
 297 635 283.333 641 262 641 c 0
EndSplineSet
EndChar
StartChar: uni0E1B
Encoding: 157 3611
OldEncoding: 3611
Width: 802
Flags: W
Fore
80 74 m 1
 205 459 l 1
 193 455 179.333 453 164 453 c 0
 124 453 97.3333 466 84 492 c 1
 74.6667 505.333 70 521.667 70 541 c 0
 70 553.667 72.6667 566.667 78 580 c 1
 87.3333 612.667 107.667 642 139 668 c 0
 171 692.667 206.667 705 246 705 c 0
 269.333 705 289 699.333 305 688 c 0
 319.667 678 330 663 336 643 c 1
 338 625 l 1
 338 607.667 335.333 592 330 578 c 1
 166 74 l 1
 418 74 l 2
 444.667 74 463 78 473 86 c 1
 482.333 91.3333 491.333 107 500 133 c 2
 764 948 l 1
 850 948 l 1
 586 133 l 1
 566.667 77 544.667 41 520 25 c 0
 496.667 8.33333 454.333 8.67362e-19 393 0 c 2
 -29 0 l 1
 -4 74 l 1
 80 74 l 1
223 641 m 0
 203 641 186 635 172 623 c 0
 154.667 607 143.667 592.667 139 580 c 1
 137 559 l 1
 137 549 139 541 143 535 c 0
 149.667 522.333 163.333 516 184 516 c 0
 203.333 516 221.333 522.333 238 535 c 1
 250.667 547.667 260 562.667 266 580 c 1
 270 598 l 1
 270 607.333 268 615.667 264 623 c 0
 258 635 244.333 641 223 641 c 0
EndSplineSet
EndChar
StartChar: uni0E1C
Encoding: 158 3612
OldEncoding: 3612
Width: 768
Flags: W
Fore
227 461 m 1
 137 180 l 1
 395 389 l 1
 518 180 l 1
 686 696 l 1
 772 696 l 1
 547 0 l 1
 461 0 l 1
 469 26.6667 473 51.3333 473 74 c 0
 473 95.3333 469 113 461 127 c 2
 367 295 l 1
 162 127 l 1
 124.667 97.6667 96.6667 55.3333 78 0 c 1
 -8 0 l 1
 178 578 l 2
 190 614.667 211.333 645.333 242 670 c 1
 274 693.333 308 705 344 705 c 0
 384 705 411.333 692.667 426 668 c 0
 434 653.333 438 638.333 438 623 c 0
 438 607 435.333 592.667 430 580 c 1
 420 544.667 399.667 514.333 369 489 c 0
 337.667 465 302 453 262 453 c 0
 248.667 453 237 455.667 227 461 c 1
283 514 m 0
 305 514 323.333 521 338 535 c 0
 354 549 365 563.333 371 578 c 1
 373 598 l 1
 373 607.333 371 615.667 367 623 c 0
 358.333 635 344 641 324 641 c 0
 304 641 286.667 635 272 623 c 1
 257.333 607 247.333 592 242 578 c 1
 238 559 l 1
 238 551 240 543 244 535 c 0
 249.333 521 262.333 514 283 514 c 0
EndSplineSet
EndChar
StartChar: uni0E1D
Encoding: 159 3613
OldEncoding: 3613
Width: 768
Flags: W
Fore
188 461 m 1
 98 180 l 1
 356 389 l 1
 479 180 l 1
 729 948 l 1
 815 948 l 1
 508 0 l 1
 422 0 l 1
 430 26.6667 434 51.3333 434 74 c 0
 434 95.3333 430 113 422 127 c 2
 328 295 l 1
 123 127 l 1
 85.6667 97.6667 57.6667 55.3333 39 0 c 1
 -47 0 l 1
 139 578 l 1
 153 616 174.333 646.667 203 670 c 1
 235 693.333 269 705 305 705 c 0
 345 705 372.333 692.667 387 668 c 0
 395 653.333 399 638.333 399 623 c 0
 399 607 396.333 592.667 391 580 c 1
 381 544.667 360.667 514.333 330 489 c 0
 299.333 465 263.667 453 223 453 c 0
 209.667 453 198 455.667 188 461 c 1
246 516 m 0
 268 516 285.667 523 299 537 c 1
 315 549 326 563.333 332 580 c 1
 334 598 l 1
 334 606 332 614.333 328 623 c 1
 318.667 635 304.333 641 285 641 c 0
 265.667 641 248.333 635 233 623 c 1
 219 607.667 209 593.333 203 580 c 1
 199 559 l 1
 199 550.333 201 543 205 537 c 1
 210.333 523 224 516 246 516 c 0
EndSplineSet
EndChar
StartChar: uni0E1E
Encoding: 160 3614
OldEncoding: 3614
Width: 888
Flags: W
Fore
94 0 m 1
 244 459 l 1
 230.667 455 217 453 203 453 c 0
 163 453 136.333 466 123 492 c 1
 113.667 505.333 109 521.667 109 541 c 0
 109 553.667 111.667 566.667 117 580 c 1
 127 614 147.333 643.333 178 668 c 0
 210 692.667 245.667 705 285 705 c 0
 308.333 705 328 699.333 344 688 c 0
 358.667 678 369 663 375 643 c 1
 377 625 l 1
 377 607.667 374.333 592 369 578 c 1
 254 225 l 1
 612 696 l 1
 666 223 l 1
 819 696 l 1
 905 696 l 1
 680 0 l 1
 594 0 l 1
 602 39 l 1
 604 68 l 1
 604 86 l 1
 559 530 l 1
 223 86 l 2
 217.667 78 209 62.3333 197 39 c 1
 180 0 l 1
 94 0 l 1
262 641 m 0
 242 641 225 635 211 623 c 0
 193.667 607 182.667 592.667 178 580 c 1
 176 559 l 1
 176 549 178 541 182 535 c 0
 188 522.333 201.667 516 223 516 c 0
 245 516 262.667 522.333 276 535 c 0
 292 549.667 301.667 564.667 305 580 c 2
 309 598 l 1
 309 607.333 307 615.667 303 623 c 0
 297 635 283.333 641 262 641 c 0
EndSplineSet
EndChar
StartChar: uni0E1F
Encoding: 161 3615
OldEncoding: 3615
Width: 888
Flags: W
Fore
55 0 m 1
 205 459 l 1
 193 455 179.333 453 164 453 c 0
 124 453 97.3333 466 84 492 c 1
 74.6667 505.333 70 521.667 70 541 c 0
 70 553.667 72.6667 566.667 78 580 c 1
 87.3333 612.667 107.667 642 139 668 c 0
 171 692.667 206.667 705 246 705 c 0
 269.333 705 289 699.333 305 688 c 0
 319.667 678 330 663 336 643 c 1
 338 625 l 1
 338 607.667 335.333 592 330 578 c 1
 213 225 l 1
 573 696 l 1
 627 223 l 1
 862 948 l 1
 948 948 l 1
 641 0 l 1
 555 0 l 1
 563 39 l 1
 565 68 l 1
 565 86 l 1
 520 530 l 1
 184 86 l 2
 178.667 78 170 62.3333 158 39 c 1
 141 0 l 1
 55 0 l 1
223 641 m 0
 203.667 641 186 635 170 623 c 1
 154.667 608.333 144.333 593.333 139 578 c 1
 135 557 l 1
 135 548.333 137 541 141 535 c 0
 149.667 521 163.333 514 182 514 c 0
 204 514 222 521 236 535 c 1
 250 547 260 561.333 266 578 c 1
 270 600 l 1
 270 608 268 615.667 264 623 c 0
 258 635 244.333 641 223 641 c 0
EndSplineSet
EndChar
StartChar: uni0E20
Encoding: 162 3616
OldEncoding: 3616
Width: 827
Flags: W
Fore
164 231 m 1
 201 346 l 1
 209.667 374.667 220.333 398.667 233 418 c 1
 251 439.333 266.333 454.333 279 463 c 0
 295.667 473 312 481 328 487 c 1
 324.667 492.333 309.667 503.333 283 520 c 0
 258.333 536 228.333 545 193 547 c 1
 219.667 573.667 267.333 607.667 336 649 c 0
 404.667 689 479.667 709 561 709 c 0
 641.667 709 702.333 689.667 743 651 c 0
 766.333 629 778 598.333 778 559 c 0
 778 535.667 773.333 510.333 764 483 c 1
 608 0 l 1
 524 0 l 1
 680 483 l 1
 684 498.333 686 512.667 686 526 c 0
 688 540.667 686 553 680 563 c 1
 672 586.333 655 604 629 616 c 0
 604.333 628.667 574.333 635 539 635 c 0
 465.667 635 395.333 612.333 328 567 c 1
 334.667 565.667 353 558.333 383 545 c 1
 405 532.333 425.333 514.667 444 492 c 1
 423.333 486.667 397 474.333 365 455 c 0
 330.333 434.333 305 399.333 289 350 c 2
 211 111 l 1
 199 76.3333 178.667 47.6667 150 25 c 0
 119.333 0.333333 83.6667 -12 43 -12 c 0
 3.66667 -12 -23 0.333333 -37 25 c 1
 -43.6667 40.3333 -47 56 -47 72 c 0
 -47 85.3333 -45 99.6667 -41 115 c 0
 -31.6667 147.667 -11.3333 177 20 203 c 0
 52 227.667 87 240 125 240 c 0
 144.333 240 157.333 237 164 231 c 1
63 51 m 0
 83.6667 51 102.333 57.3333 119 70 c 0
 133 82 143.333 97 150 115 c 1
 154 135 l 1
 154 145 151 152.667 145 158 c 1
 137 170 123.333 176 104 176 c 0
 85.3333 176 67.6667 170 51 158 c 1
 37.6667 143.333 27.3333 129 20 115 c 1
 18 96 l 1
 18 85.3333 20.3333 77.3333 25 72 c 1
 30.3333 58 43 51 63 51 c 0
EndSplineSet
EndChar
StartChar: uni0E21
Encoding: 163 3617
OldEncoding: 3617
Width: 798
Flags: W
Fore
211 303 m 1
 260 459 l 1
 250 455 236.333 453 219 453 c 0
 182.333 453 156.333 465 141 489 c 1
 133 504.333 129 520.333 129 537 c 0
 129 551 131 565.333 135 580 c 0
 147 614 168.333 643.333 199 668 c 0
 229.667 692.667 263.667 705 301 705 c 0
 325.667 705 346 699.333 362 688 c 0
 377.333 678 387 663 391 643 c 1
 393 625 l 1
 393 607.667 390.333 592 385 578 c 1
 297 303 l 1
 342.333 299 381.333 288 414 270 c 1
 446.667 255.333 474.667 235.667 498 211 c 1
 517.333 187 531.667 165 541 145 c 1
 719 696 l 1
 805 696 l 1
 580 0 l 1
 494 0 l 1
 498 31 l 1
 498 51.6667 493 72 483 92 c 0
 466.333 129.333 439.667 160.667 403 186 c 1
 368.333 212 325.333 228.667 274 236 c 1
 231 106 l 2
 218.333 68.6667 199.333 40 174 20 c 0
 148 -1.33333 116.667 -12 80 -12 c 0
 38.6667 -12 11.3333 3 -2 33 c 0
 -8.66667 48.3333 -12 64 -12 80 c 0
 -12 96 -8.66667 115 -2 137 c 0
 12.6667 182.333 38.6667 220.667 76 252 c 0
 114 284 159 301 211 303 c 1
70 78 m 0
 76.6667 65.3333 86.6667 59 100 59 c 0
 120 59 134.333 70.6667 143 94 c 1
 190 240 l 1
 163.333 240 138.333 230.333 115 211 c 0
 93 191 78 167.667 70 141 c 0
 65.3333 124.333 63 112.667 63 106 c 0
 63 96.6667 65.3333 87.3333 70 78 c 0
281 641 m 0
 261.667 641 244.333 635 229 623 c 1
 214.333 607 204.333 592 199 578 c 1
 195 559 l 1
 195 551 197 543 201 535 c 0
 206.333 521 219.333 514 240 514 c 0
 262 514 280.333 521 295 535 c 0
 309 547 319.333 561.333 326 578 c 1
 330 600 l 1
 330 608 328 615.667 324 623 c 1
 314.667 635 300.333 641 281 641 c 0
EndSplineSet
EndChar
StartChar: uni0E22
Encoding: 164 3618
OldEncoding: 3618
Width: 712
Flags: W
Fore
197 330 m 1
 159 343.333 135 366.333 125 399 c 0
 119.667 414.333 117 431 117 449 c 0
 117 465 120.333 484.667 127 508 c 0
 143.667 560 175 606.333 221 647 c 0
 268.333 688.333 317 709 367 709 c 0
 403.667 709 429.333 697.333 444 674 c 0
 452.667 659.333 457 644.333 457 629 c 0
 457 614.333 454.333 600.667 449 588 c 0
 437.667 553.333 417.667 525.333 389 504 c 0
 357.667 480.667 324.333 469 289 469 c 0
 263.667 469 245 473.667 233 483 c 0
 221.667 493 215 501.333 213 508 c 1
 206.333 486.667 203 470.333 203 459 c 0
 203 436.333 210.333 417 225 401 c 1
 251 378.333 282.333 367 319 367 c 1
 295 291 l 1
 247.667 291 209.333 280 180 258 c 0
 150 236 129 206.667 117 170 c 2
 86 74 l 1
 367 74 l 2
 393.667 74 412 78 422 86 c 0
 430 90.6667 439 106.333 449 133 c 1
 631 696 l 1
 717 696 l 1
 535 133 l 1
 515 75 493 39 469 25 c 1
 444.333 8.33333 402 8.67362e-19 342 0 c 2
 -25 0 l 1
 31 170 l 1
 40.3333 202.667 54.6667 230.667 74 254 c 0
 94 276 112.333 291.667 129 301 c 2
 172 324 l 1
 197 330 l 1
309 530 m 0
 349 532 375 552 387 590 c 1
 391 610 l 1
 391 619.333 389 627 385 633 c 0
 378.333 643.667 366 649 348 649 c 0
 330 649 313.667 643.667 299 633 c 0
 286.333 622.333 276.667 608 270 590 c 1
 266 571 l 1
 266 562.333 268 555 272 549 c 0
 279.333 536.333 291.667 530 309 530 c 0
EndSplineSet
EndChar
StartChar: uni0E23
Encoding: 165 3619
OldEncoding: 3619
Width: 641
Flags: W
Fore
510 342 m 1
 434 111 l 1
 422.667 75 401 44.6667 369 20 c 0
 339 -1.33333 306 -12 270 -12 c 0
 230 -12 202.667 1 188 27 c 0
 180 41 176 56.6667 176 74 c 0
 176 86.6667 178.667 99.6667 184 113 c 0
 194 145 215.333 175 248 203 c 1
 280 227.667 314 240 350 240 c 0
 359.333 240 372.333 237.667 389 233 c 1
 422 338 l 1
 432.667 375.333 438 402 438 418 c 2
 438 422 l 1
 436 443.333 428.667 458.333 416 467 c 0
 401.333 475 380.667 483.333 354 492 c 0
 312 504.667 265 515.333 213 524 c 2
 106 543 l 1
 150.667 591 197.333 630.667 246 662 c 0
 297.333 693.333 346.333 709 393 709 c 0
 421.667 709 445 706.667 463 702 c 0
 494.333 691.333 514.667 684 524 680 c 2
 578 659 l 1
 592 655 606.333 653 621 653 c 0
 645.667 653 671.333 658.667 698 670 c 1
 690 598 l 1
 654.667 584.667 622.667 578 594 578 c 0
 573.333 578 557 580 545 584 c 2
 487 608 l 1
 424 633 l 2
 410 638.333 392.333 641 371 641 c 0
 351.667 641 327.667 635.667 299 625 c 1
 272.333 612.333 256 602 250 594 c 1
 250 594 l 1
 426 547 l 2
 486 531.667 520 509 528 479 c 1
 530 455 l 2
 532 430.333 525.333 392.667 510 342 c 1
291 51 m 0
 313 51 330.667 57.3333 344 70 c 0
 359.333 83.3333 369.667 98.3333 375 115 c 1
 379 135 l 1
 379 144.333 377 152 373 158 c 0
 367 170 353.333 176 332 176 c 0
 312 176 295 170 281 158 c 0
 265.667 144 254.667 129.667 248 115 c 1
 246 94 l 1
 246 85.3333 248 78 252 72 c 1
 257.333 58 270.333 51 291 51 c 0
EndSplineSet
EndChar
StartChar: uni0E24
Encoding: 166 3620
OldEncoding: 3620
Width: 743
Flags: W
Fore
98 115 m 1
 172 346 l 1
 182.667 382.667 201 414 227 440 c 1
 251 462 275.667 477.667 301 487 c 1
 295.667 494.333 281.333 505.333 258 520 c 0
 234 536 204 545 168 547 c 1
 202 579.667 248.333 613.667 307 649 c 0
 373.667 689 448.667 709 532 709 c 0
 582 709 627.333 700.667 668 684 c 0
 704 668.667 729 643.333 743 608 c 0
 749 596 752 579 752 557 c 0
 752 533.667 747.667 509 739 483 c 2
 465 -362 l 1
 379 -362 l 1
 653 483 l 1
 657 498.333 659 512.667 659 526 c 1
 661.667 539.333 659.667 551.667 653 563 c 1
 642.333 587 624.667 604.667 600 616 c 0
 575.333 628.667 546 635 512 635 c 0
 438.667 635 367.667 612.333 299 567 c 1
 310.333 565 328.667 557.667 354 545 c 0
 376 533.667 397.333 516 418 492 c 1
 397.333 487.333 370.667 475 338 455 c 0
 302 433 276 398 260 350 c 2
 221 231 l 1
 227.667 237 242.667 240 266 240 c 0
 306 240 332 227.667 344 203 c 0
 352 187.667 356 173.333 356 160 c 0
 356 144 353.333 129 348 115 c 0
 336.667 81 316.333 51.6667 287 27 c 0
 257 1 222.667 -12 184 -12 c 0
 148 -12 121.333 -0.333333 104 23 c 0
 94.6667 36.3333 90 52 90 70 c 0
 90 84.6667 92.6667 99.6667 98 115 c 1
205 51 m 0
 225.667 51 242.667 57.3333 256 70 c 0
 273.333 84.6667 284.333 99.6667 289 115 c 1
 291 133 l 1
 291 143.667 289 152 285 158 c 0
 276.333 170 262.667 176 244 176 c 0
 224 176 207 170 193 158 c 0
 176.333 145.333 166 131 162 115 c 1
 158 94 l 1
 158 84 160 76 164 70 c 0
 170 57.3333 183.667 51 205 51 c 0
EndSplineSet
EndChar
StartChar: uni0E25
Encoding: 167 3621
OldEncoding: 3621
Width: 716
Flags: W
Fore
295 440 m 1
 233.667 434 188 383 158 287 c 1
 139 223 l 1
 162 233 l 2
 171.333 237.667 185.667 240 205 240 c 0
 243 240 269.667 227.667 285 203 c 0
 293 187.667 297 172.667 297 158 c 0
 297 143.333 295 129 291 115 c 1
 274.333 74.3333 252.333 44.3333 225 25 c 1
 195.667 0.333333 161.667 -12 123 -12 c 0
 83 -12 56.3333 1 43 27 c 0
 33.6667 43.6667 29 63.3333 29 86 c 1
 33 117 l 1
 44.3333 169.667 60.6667 227.667 82 291 c 0
 101.333 350.333 130.667 400.667 170 442 c 0
 208.667 482.667 253.667 506 305 512 c 1
 359.667 512 400.667 494.333 428 459 c 0
 454.667 423 471 380.667 477 332 c 1
 489 240 l 1
 567 479 l 1
 574.333 505 578 523.667 578 535 c 0
 578 560.333 569.667 581.333 553 598 c 0
 526.333 626.667 484.667 641 428 641 c 0
 336.667 641 252 604 174 530 c 1
 133 573 l 1
 163 607 208 638.667 268 668 c 1
 331.333 695.333 393.667 709 455 709 c 0
 533.667 709 593 689 633 649 c 1
 656.333 623.667 668 593 668 557 c 0
 668 531.667 663 505.667 653 479 c 1
 498 0 l 1
 412 0 l 1
 419.333 22.6667 424 59.6667 426 111 c 1
 426 123 l 2
 426 175 422.667 220.667 416 260 c 0
 408.667 306 393.667 349 371 389 c 0
 352.333 423 327 440 295 440 c 1
184 176 m 0
 162.667 176 145 170 131 158 c 0
 115.667 143.333 105.333 128.333 100 113 c 1
 96 92 l 1
 96 83.3333 98 76 102 70 c 0
 108.667 56 122.333 49 143 49 c 0
 163 49 181 56 197 70 c 0
 211 82 221 96.3333 227 113 c 1
 231 135 l 1
 231 144.333 229 152 225 158 c 0
 217 170 203.333 176 184 176 c 0
EndSplineSet
EndChar
StartChar: uni0E26
Encoding: 168 3622
OldEncoding: 3622
Width: 827
Flags: W
Fore
221 231 m 1
 258 346 l 1
 264.667 369.333 276.333 393.333 293 418 c 1
 310.333 440 325.333 455 338 463 c 0
 350.667 471.667 366.333 479.667 385 487 c 1
 379.667 494.333 365.333 505.333 342 520 c 0
 317.333 536 286.667 545 250 547 c 1
 284 577.667 331.667 611.667 393 649 c 1
 463 689 538 709 618 709 c 0
 701.333 709 762.333 689.667 801 651 c 0
 824.333 627.667 836 597 836 559 c 0
 836 537 831 511.667 821 483 c 1
 549 -362 l 1
 463 -362 l 1
 737 483 l 1
 742.333 496.333 745 510.667 745 526 c 0
 745 542 742.333 554.333 737 563 c 1
 729 587 712 604.667 686 616 c 1
 662.667 628.667 633.333 635 598 635 c 0
 524.667 635 453.667 612.333 385 567 c 1
 396.333 565 414.667 557.667 440 545 c 0
 461.333 533 482 515.333 502 492 c 1
 481.333 487.333 454.667 475 422 455 c 0
 386 433 360 398 344 350 c 1
 268 111 l 1
 258 75 237.667 46.3333 207 25 c 1
 176.333 0.333333 140.667 -12 100 -12 c 0
 62.6667 -12 37 0.333333 23 25 c 0
 14.3333 38.3333 10 54 10 72 c 0
 10 85.3333 12 99.6667 16 115 c 1
 28.6667 149.667 50 179 80 203 c 0
 112 227.667 146 240 182 240 c 0
 202.667 240 215.667 237 221 231 c 1
123 51 m 0
 145 51 162.667 57.3333 176 70 c 0
 191.333 83.3333 201.667 98.3333 207 115 c 1
 211 135 l 1
 211 144.333 209 152 205 158 c 0
 197 170 182.667 176 162 176 c 0
 142 176 125 170 111 158 c 0
 95.6667 144 84.6667 129.667 78 115 c 1
 76 96 l 1
 76 86 78 78 82 72 c 1
 87.3333 58 101 51 123 51 c 0
EndSplineSet
EndChar
StartChar: uni0E27
Encoding: 169 3623
OldEncoding: 3623
Width: 679
Flags: W
Fore
612 479 m 1
 496 115 l 2
 485.333 81 466 51.6667 438 27 c 1
 412.667 1 377.333 -12 332 -12 c 0
 292.667 -12 266 0.333333 252 25 c 0
 244 39 240 54.6667 240 72 c 0
 240 85.3333 242 99.6667 246 115 c 0
 255.333 148.333 275.667 177.667 307 203 c 0
 337 227.667 372 240 412 240 c 0
 424 240 437 237.667 451 233 c 1
 528 479 l 2
 535.333 503 539 523 539 539 c 0
 539 563 532.667 583.333 520 600 c 1
 496 627.333 455 641 397 641 c 0
 352.333 641 306 629.333 258 606 c 0
 217.333 586 179.667 558.667 145 524 c 1
 106 567 l 1
 123.333 585.667 151.333 609 190 637 c 1
 220 656.333 256.333 673.333 299 688 c 0
 339.667 702 380 709 420 709 c 0
 500 709 558.667 688.333 596 647 c 1
 616.667 622.333 627 592.333 627 557 c 0
 627 531.667 622 505.667 612 479 c 1
389 176 m 0
 370.333 176 354 170 340 158 c 0
 324 142.667 313 128.333 307 115 c 1
 303 94 l 1
 303 85.3333 305 78 309 72 c 0
 316.333 58 330 51 350 51 c 0
 372 51 389.667 57.3333 403 70 c 0
 418.333 82.6667 428 97.6667 432 115 c 1
 436 135 l 1
 432 158 l 1
 426 170 411.667 176 389 176 c 0
EndSplineSet
EndChar
StartChar: uni0E28
Encoding: 170 3624
OldEncoding: 3624
Width: 751
Flags: W
Fore
668 633 m 1
 705 676 l 1
 752 739 l 1
 815 700 l 1
 794.333 668 772.667 642.333 750 623 c 0
 724.667 599.667 704 581.667 688 569 c 1
 690 547 l 1
 690 525 686 500.333 678 473 c 1
 524 0 l 1
 438 0 l 1
 590 465 l 2
 593.333 475 596.667 490 600 510 c 1
 543 481 l 2
 519.667 469 499.667 461 483 457 c 1
 481 438 l 1
 475 410 l 1
 465.667 378 444.667 350 412 326 c 0
 380.667 302.667 347 291 311 291 c 0
 275 291 252 299 242 315 c 1
 139 0 l 1
 55 0 l 1
 96 125 l 2
 104.667 152.333 109 174 109 190 c 0
 109 197.333 108 203 106 207 c 1
 104.667 222.333 98 251 86 293 c 0
 76 328.333 70 357.667 68 381 c 1
 68 391 l 2
 68 409 72.6667 433.667 82 465 c 0
 100 517.667 128.667 562.667 168 600 c 0
 208 638 253.667 666 305 684 c 0
 361.667 703.333 413.667 713 461 713 c 0
 557.667 713 626.667 686.333 668 633 c 1
588 567 m 1
 582.667 581 568.333 597.333 545 616 c 0
 521.667 635.333 486 645 438 645 c 0
 404 645 370.667 639.667 338 629 c 0
 305.333 619 271.333 599 236 569 c 0
 202.667 542.333 178.667 506.333 164 461 c 0
 158.667 445.667 156 428 156 408 c 1
 158 377 l 1
 162 326 l 1
 162 303 l 1
 182 369 l 1
 198 417 224.667 458.667 262 494 c 1
 299.333 526.667 343 543 393 543 c 0
 413 543 428 541 438 537 c 1
 450 529.667 458.333 522.667 463 516 c 2
 471 506 l 1
 489 511.333 508 519.333 528 530 c 1
 588 567 l 1
373 479 m 0
 352.333 479 334.333 473 319 461 c 0
 305 449 295 434 289 416 c 1
 285 395 l 1
 285 386.333 287 379 291 373 c 1
 296.333 359 310 352 332 352 c 0
 352.667 352 370.333 359 385 373 c 0
 400.333 385.667 410.667 400 416 416 c 1
 420 438 l 1
 420 447.333 418 455 414 461 c 0
 408 473 394.333 479 373 479 c 0
EndSplineSet
EndChar
StartChar: uni0E29
Encoding: 171 3625
OldEncoding: 3625
Width: 823
Flags: W
Fore
674 283 m 1
 625 133 l 1
 605 75 583 39 559 25 c 1
 535.667 8.33333 493.333 8.67362e-19 432 0 c 2
 10 0 l 1
 35 74 l 1
 119 74 l 1
 244 459 l 1
 230.667 455 217 453 203 453 c 0
 163 453 136.333 466 123 492 c 1
 113.667 505.333 109 521.667 109 541 c 0
 109 553.667 111.667 566.667 117 580 c 1
 127 614 147.333 643.333 178 668 c 0
 210 692.667 245.667 705 285 705 c 0
 308.333 705 328 699.333 344 688 c 0
 358.667 678 369 663 375 643 c 1
 377 625 l 1
 377 607.667 374.333 592 369 578 c 1
 205 74 l 1
 457 74 l 2
 483.667 74 502 78 512 86 c 0
 520 90.6667 529 106.333 539 133 c 1
 578 256 l 1
 563.333 253.333 544.667 252 522 252 c 0
 466.667 254 422.333 265 389 285 c 0
 364.333 299.667 352 322 352 352 c 1
 356 389 l 1
 368.667 419.667 386.667 445 410 465 c 0
 435.333 488.333 466.667 500 504 500 c 0
 541.333 500 566.667 489.667 580 469 c 1
 586.667 455.667 590 442 590 428 c 0
 590 418.667 588 406.333 584 391 c 1
 571.333 356.333 552 331 526 315 c 1
 598 317 l 1
 721 696 l 1
 807 696 l 1
 694 350 l 1
 709.333 358 728.667 374.333 752 399 c 0
 774 422.333 791.667 453.333 805 492 c 1
 872 492 l 1
 851.333 429.333 825 384.667 793 358 c 0
 760.333 332 720.667 307 674 283 c 1
451 336 m 0
 463.667 336 474.333 338.667 483 344 c 0
 493.667 350 502.667 357 510 365 c 0
 515.333 371.667 520 380.333 524 391 c 1
 528 412 l 1
 528 420 526 426 522 430 c 1
 515.333 440.667 503.667 446 487 446 c 0
 471.667 446 456 440.667 440 430 c 0
 427.333 420.667 418.667 407.667 414 391 c 2
 410 375 l 1
 410 365.667 412 358 416 352 c 0
 422.667 341.333 434.333 336 451 336 c 0
262 641 m 0
 242 641 225 635 211 623 c 0
 193.667 607 182.667 592 178 578 c 1
 174 557 l 1
 174 548.333 176 541 180 535 c 0
 187.333 521 201 514 221 514 c 0
 243 514 260.667 521 274 535 c 1
 290.667 547 301 561.333 305 578 c 1
 309 600 l 1
 309 608 307 615.667 303 623 c 0
 297 635 283.333 641 262 641 c 0
EndSplineSet
EndChar
StartChar: uni0E2A
Encoding: 172 3626
OldEncoding: 3626
Width: 716
Flags: W
Fore
174 176 m 0
 152.667 176 135 170 121 158 c 0
 105.667 144.667 95.3333 129.667 90 113 c 1
 86 92 l 1
 86 83.3333 88 76 92 70 c 1
 97.3333 56 111 49 133 49 c 0
 155 49 172.667 56 186 70 c 1
 200.667 82 211 96.3333 217 113 c 1
 221 135 l 1
 221 144.333 219 152 215 158 c 0
 209 170 195.333 176 174 176 c 0
561 563 m 1
 559 556.333 539.333 535.333 502 500 c 0
 463.333 465.333 442.667 444 440 436 c 1
 450 420 458.333 397 465 367 c 1
 475 293 l 1
 479 240 l 1
 557 479 l 2
 562.333 495.667 565 513.333 565 532 c 1
 561 563 l 1
420 485 m 2
 420.667 485 441 505 481 545 c 1
 541 602 l 1
 517 628 476.667 641 420 641 c 0
 327.333 641 242 604 164 530 c 1
 123 573 l 1
 153 607 198 638.667 258 668 c 1
 320 695.333 382 709 444 709 c 0
 505.333 709 556 696.667 596 672 c 1
 598.667 672 615.667 687.667 647 719 c 0
 678.333 750.333 697.667 766 705 766 c 1
 721 754 l 1
 743 731 l 2
 749 725.667 752 720.333 752 715 c 2
 752 713 l 1
 686 657 l 1
 656 635.667 641 623.667 641 621 c 1
 651.667 601 657 579 657 555 c 0
 657 535.667 652.333 510.333 643 479 c 1
 487 0 l 1
 401 0 l 1
 409 22 414 59 416 111 c 1
 416 123 l 2
 416 169 411.667 214.667 403 260 c 0
 395 312 380.667 355 360 389 c 1
 342.667 423 317.667 440 285 440 c 1
 222.333 434 175.667 383 145 287 c 1
 129 223 l 1
 152 233 l 2
 161.333 237.667 175.667 240 195 240 c 0
 233 240 259.333 227.667 274 203 c 0
 282.667 188.333 287 173.333 287 158 c 0
 287 142 284.333 127.667 279 115 c 0
 265 75.6667 243.667 45.6667 215 25 c 1
 184.333 0.333333 150.333 -12 113 -12 c 0
 73 -12 46.3333 1 33 27 c 0
 23 45 18 64.6667 18 86 c 1
 20 117 l 1
 33.3333 173.667 50 231.667 70 291 c 0
 92 351.667 122 402 160 442 c 0
 198.667 482.667 243.667 506 295 512 c 1
 336.333 512 365.667 506.667 383 496 c 1
 391 494 l 1
 410 489 l 1
 420 485 l 2
EndSplineSet
EndChar
StartChar: uni0E2B
Encoding: 173 3627
OldEncoding: 3627
Width: 823
Flags: W
Fore
94 0 m 1
 244 459 l 1
 230.667 455 217 453 203 453 c 0
 163 453 136.333 466 123 492 c 1
 113.667 505.333 109 521.667 109 541 c 0
 109 553.667 111.667 566.667 117 580 c 1
 127 614 147.333 643.333 178 668 c 0
 210 692.667 245.667 705 285 705 c 0
 308.333 705 328 699.333 344 688 c 0
 358.667 678 369 663 375 643 c 1
 377 625 l 1
 377 607.667 374.333 592 369 578 c 1
 264 260 l 1
 307.333 319.333 358 367 416 403 c 1
 476 442.333 520.333 467.667 549 479 c 1
 533.667 495.667 526 514.333 526 535 c 0
 526 551 529 565.333 535 578 c 1
 546.333 610 568 640 600 668 c 1
 632 692.667 667.667 705 707 705 c 0
 746.333 705 773.333 692.667 788 668 c 1
 795.333 652 799 637 799 623 c 0
 799 607 796.333 592.667 791 580 c 0
 784.333 558.667 772 537.333 754 516 c 1
 732 492.667 710 477 688 469 c 1
 698 465 707.667 452 717 430 c 1
 721 424 723 414.333 723 401 c 0
 723 379.667 718.333 356 709 330 c 1
 602 0 l 1
 516 0 l 1
 625 330 l 1
 633 352 637 371 637 387 c 0
 637 397.667 635 406 631 412 c 0
 623 426.667 614.667 436 606 440 c 1
 504.667 396 415.333 333.333 338 252 c 0
 260.667 170.667 210.667 95.6667 188 27 c 1
 180 0 l 1
 94 0 l 1
686 643 m 0
 666 643 649 637 635 625 c 0
 617 611 605.333 596 600 580 c 1
 598 561 l 1
 598 553 600 545 604 537 c 0
 611.333 523 625 516 645 516 c 0
 667 516 684.667 523 698 537 c 1
 713.333 549.667 723 564 727 580 c 1
 731 602 l 1
 727 625 l 1
 721 637 707.333 643 686 643 c 0
262 641 m 0
 242 641 225 635 211 623 c 0
 193.667 607 182.667 592 178 578 c 1
 174 555 l 1
 174 547.667 176 541 180 535 c 0
 187.333 521 201 514 221 514 c 0
 243 514 260.667 521 274 535 c 1
 290.667 547 301 561.333 305 578 c 1
 309 600 l 1
 309 608 307 615.667 303 623 c 0
 297 635 283.333 641 262 641 c 0
EndSplineSet
EndChar
StartChar: uni0E2C
Encoding: 174 3628
OldEncoding: 3628
Width: 888
Flags: W
Fore
80 0 m 1
 229 459 l 1
 219 455 205.333 453 188 453 c 0
 148.667 453 122.333 466 109 492 c 1
 99 504.667 94 521 94 541 c 0
 94 553.667 96.6667 566.667 102 580 c 0
 112.667 612.667 134 642 166 668 c 0
 198 692.667 232.667 705 270 705 c 0
 292 705 312.667 699.333 332 688 c 1
 344.667 678.667 353.333 663.667 358 643 c 1
 360 625 l 1
 360 607.667 357.333 592 352 578 c 1
 238 223 l 1
 588 666 l 1
 639 223 l 1
 756 582 l 1
 710.667 582 681.333 592.667 668 614 c 0
 659.333 626.667 655 640.333 655 655 c 0
 655 670.333 658 684 664 696 c 1
 674 726 693.667 751.333 723 772 c 0
 751.667 792.667 782.333 803 815 803 c 0
 844.333 803 866.333 792 881 770 c 1
 887.667 756.667 891 742.333 891 727 c 0
 891 712.333 888.333 698 883 684 c 1
 893 688 909.333 698.333 932 715 c 0
 954 732.333 973.667 754.667 991 782 c 1
 1038 748 l 1
 1016 712.667 984 680.333 942 651 c 0
 898.667 621.667 866.667 604 846 598 c 1
 653 0 l 1
 565 0 l 1
 565 0 l 1
 569 16 l 1
 580 53 l 1
 582 86 l 1
 530 492 l 1
 211 86 l 1
 196.333 66 186.667 51 182 41 c 1
 166 0 l 1
 80 0 l 1
250 641 m 0
 228.667 641 211 635 197 623 c 0
 181.667 610.333 171.333 595.333 166 578 c 1
 162 557 l 1
 162 548.333 164 541 168 535 c 1
 173.333 521 187 514 209 514 c 0
 229.667 514 246.667 521 260 535 c 1
 276 547 287 561.333 293 578 c 1
 297 600 l 1
 297 608 295 615.667 291 623 c 0
 283 635 269.333 641 250 641 c 0
758 641 m 0
 772 641 787 646.333 803 657 c 1
 814.333 669 821.667 681.333 825 694 c 1
 829 715 l 1
 825 733 l 1
 819 743 808.333 748 793 748 c 0
 777.667 748 763.333 742.333 750 731 c 0
 738 721.667 729 709.333 723 694 c 1
 719 678 l 1
 719 671.333 721 664.333 725 657 c 0
 731.667 646.333 742.667 641 758 641 c 0
EndSplineSet
EndChar
StartChar: uni0E2D
Encoding: 175 3629
OldEncoding: 3629
Width: 735
Flags: W
Fore
170 256 m 1
 129 133 l 1
 125 119 123 108 123 100 c 0
 123 93.3333 124.333 88.6667 127 86 c 0
 131 78 146 74 172 74 c 2
 387 74 l 2
 415 74 434 78 444 86 c 1
 453.333 91.3333 462.333 107 471 133 c 2
 584 479 l 1
 590.667 502.333 594 521 594 535 c 0
 594 561 585.667 582 569 598 c 1
 542.333 628 500.667 643 444 643 c 0
 354.667 645 269.333 607.333 188 530 c 1
 150 573 l 1
 179.333 607 224.333 638.667 285 668 c 1
 347 695.333 408.333 709 469 709 c 0
 520.333 709 564.667 700 602 682 c 0
 638.667 663.333 662.667 637.333 674 604 c 0
 679.333 591.333 682 575 682 555 c 0
 682 531.667 678 506.333 670 479 c 1
 557 133 l 2
 538.333 77 517.333 41 494 25 c 0
 467.333 8.33333 424.333 8.67362e-19 365 0 c 2
 150 0 l 2
 110.667 0 80.3333 3.33333 59 10 c 0
 41 16 31 28.3333 29 47 c 1
 27 57 l 1
 27 72.3333 32.3333 97.6667 43 133 c 1
 121 373 l 1
 129 395 138.667 412.667 150 426 c 0
 167.333 448.667 186.333 465.667 207 477 c 1
 229.667 492.333 257.667 500 291 500 c 0
 329 500 355.667 487.667 371 463 c 0
 379 449 383 433.333 383 416 c 0
 383 401.333 380.333 387.667 375 375 c 1
 365 339 344.333 309 313 285 c 1
 283.667 260.333 249.667 248 211 248 c 0
 199.667 248 186 250.667 170 256 c 1
227 311 m 0
 247 311 265 318 281 332 c 1
 295 342 305 355.667 311 373 c 1
 315 395 l 1
 315 404.333 313 412 309 418 c 0
 303 430 289.333 436 268 436 c 0
 247.333 436 229.667 430.667 215 420 c 1
 200.333 407.333 190 392.333 184 375 c 1
 180 352 l 1
 180 343.333 182 336 186 330 c 0
 194.667 317.333 208.333 311 227 311 c 0
EndSplineSet
EndChar
StartChar: uni0E2E
Encoding: 176 3630
OldEncoding: 3630
Width: 735
Flags: W
Fore
41 133 m 1
 96 303 l 1
 106 331.667 125.333 360.333 154 389 c 0
 182 417.667 219.333 432 266 432 c 0
 305.333 432 332 419.667 346 395 c 0
 354 381 358 365.333 358 348 c 0
 358 336 356 322.333 352 307 c 0
 342.667 274.333 322.333 244.333 291 217 c 1
 259 192.333 223.333 180 184 180 c 0
 169.333 180 156.333 182.667 145 188 c 1
 127 133 l 1
 123 119 121 108 121 100 c 0
 121 93.3333 122.333 88.6667 125 86 c 0
 129 78 144 74 170 74 c 2
 385 74 l 2
 413 74 432 78 442 86 c 1
 451.333 91.3333 460.333 107 469 133 c 2
 594 516 l 1
 572.667 502.667 540.667 491 498 481 c 0
 446 470.333 403 465 369 465 c 0
 305.667 465 253 475.333 211 496 c 0
 175.667 512 158 533 158 559 c 1
 162 582 l 1
 172.667 611.333 193 635 223 653 c 0
 255 671.667 292 686 334 696 c 0
 373.333 704.667 410.667 709 446 709 c 0
 496.667 709 539 703.333 573 692 c 0
 602.333 682.667 627 669.667 647 653 c 1
 663.667 641 672 634.333 672 633 c 1
 672 633 l 1
 705.333 657.667 737.333 684.333 768 713 c 1
 811 666 l 1
 782.333 637.333 757 615.333 735 600 c 2
 684 567 l 1
 686.667 564.333 688 560.333 688 555 c 1
 686 543 l 1
 555 133 l 1
 536.333 77 515.333 41 492 25 c 0
 465.333 8.33333 422 8.67362e-19 362 0 c 2
 147 0 l 2
 108.333 0 78.3333 3.33333 57 10 c 0
 39 16 29 28.3333 27 47 c 1
 25 57 l 1
 25 72.3333 30.3333 97.6667 41 133 c 1
391 535 m 0
 427.667 535 461.333 539 492 547 c 1
 526 553.667 550.333 560.333 565 567 c 2
 596 582 l 1
 590.667 590.667 575 604.333 549 623 c 1
 523 637.667 482 645 426 645 c 0
 385.333 645 347.667 640.333 313 631 c 0
 277 621 256 606 250 586 c 1
 248 578 l 1
 248 549.333 295.667 535 391 535 c 0
205 242 m 0
 225 242 242 248 256 260 c 1
 271.333 275.333 281.667 290.333 287 305 c 1
 291 330 l 1
 287 350 l 1
 278.333 362.667 264.667 369 246 369 c 0
 225.333 369 207.667 362.667 193 350 c 1
 177 339.333 166 324.333 160 305 c 1
 158 285 l 1
 158 274.333 160 266 164 260 c 0
 170 248 183.667 242 205 242 c 0
EndSplineSet
EndChar
StartChar: uni0E2F
Encoding: 177 3631
OldEncoding: 3631
Width: 684
Flags: W
Fore
328 709 m 0
 366.667 709 394 697.333 410 674 c 1
 416.667 657.333 420 642.333 420 629 c 0
 420 613 417.333 598.667 412 586 c 0
 400.667 552.667 380.667 524 352 500 c 0
 322.667 474 290.667 461 256 461 c 0
 236 461 221.667 463.667 213 469 c 2
 195 479 l 1
 197 453.667 206.333 432.667 223 416 c 0
 239 398 264.333 389 299 389 c 0
 336.333 389 375.333 403.333 416 432 c 0
 460 463.333 498 501 530 545 c 0
 565.333 592.333 590.667 642.667 606 696 c 1
 692 696 l 1
 539 217 l 1
 516.333 147.667 481.333 94.3333 434 57 c 0
 386.667 19.6667 321.333 -8.33333 238 -27 c 1
 244 51 l 1
 310 65.6667 357 85 385 109 c 1
 410.333 128.333 433 167 453 225 c 1
 528 457 l 1
 492.667 408.333 454 372.667 412 350 c 0
 366 325.333 321.667 313 279 313 c 0
 233 313 194.667 326 164 352 c 0
 131.333 378.667 115 413 115 455 c 2
 115 457 l 1
 117.667 483 122.333 507.333 129 530 c 0
 145 580.667 169.667 623 203 657 c 0
 235.667 691.667 277.333 709 328 709 c 0
270 520 m 0
 291.333 520 309.333 526.333 324 539 c 0
 338.667 551.667 348.667 566.667 354 584 c 1
 358 602 l 1
 358 612.667 356 621 352 627 c 0
 346 639 332.333 645 311 645 c 0
 291 645 274 639 260 627 c 0
 248.667 616.333 239 602 231 584 c 1
 227 561 l 1
 231 539 l 1
 237.667 526.333 250.667 520 270 520 c 0
EndSplineSet
EndChar
StartChar: uni0E30
Encoding: 178 3632
OldEncoding: 3632
Width: 567
Flags: W
Fore
264 457 m 0
 200 457 157 470 135 496 c 1
 120.333 510.667 113 529.667 113 553 c 0
 113 563 115 574.667 119 588 c 0
 128.333 619.333 148.667 648 180 674 c 1
 212.667 697.333 245.667 709 279 709 c 0
 320.333 709 348 698 362 676 c 1
 369.333 661.333 373 647 373 633 c 0
 373 620.333 371 608 367 596 c 0
 357.667 570 341 546 317 524 c 1
 339.667 524 373.333 534.333 418 555 c 1
 461.333 578.333 494 625.333 516 696 c 1
 602 696 l 1
 584.667 641.333 560.667 597.667 530 565 c 1
 501.333 531.667 462.667 504.333 414 483 c 0
 370.667 465.667 320.667 457 264 457 c 0
117 0 m 0
 53.6667 0 11.3333 13 -10 39 c 1
 -26.6667 55 -35 74 -35 96 c 0
 -35 107.333 -33 119 -29 131 c 0
 -17.6667 163 3 191 33 215 c 0
 65 241.667 97.6667 254 131 252 c 0
 157.667 252 179.667 245.667 197 233 c 0
 212.333 222.333 221 209 223 193 c 2
 225 176 l 1
 225 164 223 151.667 219 139 c 0
 211 113.667 194.667 90 170 68 c 1
 194.667 68 228 78.6667 270 100 c 0
 312.667 120.667 345.667 167.333 369 240 c 1
 455 240 l 1
 435 184.667 410.333 141 381 109 c 0
 348.333 72.3333 309.333 45 264 27 c 0
 223.333 9 174.333 0 117 0 c 0
113 197 m 0
 96.3333 197 79.6667 191.333 63 180 c 1
 49.6667 168.667 41 154.333 37 137 c 2
 33 119 l 1
 33 109.667 35 102 39 96 c 0
 45 84 56.6667 78 74 78 c 0
 93.3333 78 110.333 83.3333 125 94 c 1
 137 106 146.667 120.333 154 137 c 1
 158 160 l 1
 158 167.333 156 174 152 180 c 0
 144 191.333 131 197 113 197 c 0
260 653 m 0
 243.333 653 227.667 647.667 213 637 c 0
 200.333 626.333 190.667 612 184 594 c 1
 180 575 l 1
 180 566.333 182 559 186 553 c 0
 192.667 541 205 535 223 535 c 0
 241.667 535 258 541 272 553 c 1
 285.333 561.667 294.333 575.333 299 594 c 0
 303 604 305 612 305 618 c 0
 305 641.333 290 653 260 653 c 0
EndSplineSet
EndChar
StartChar: uni0E31
Encoding: 179 3633
OldEncoding: 3633
Width: 0
Flags: W
Fore
-428 975 m 1
 -416 1014.33 -395.667 1046.33 -367 1071 c 0
 -339 1097 -304.667 1110 -264 1110 c 0
 -227.333 1110 -201.333 1098.33 -186 1075 c 0
 -178 1061 -174 1045.33 -174 1028 c 0
 -174 1017.33 -176 1005.67 -180 993 c 0
 -189.333 959.667 -212 930.333 -248 905 c 1
 -213 899 l 1
 -178 895 l 1
 -136 897 -95 906 -55 922 c 1
 -13 936.667 25.6667 959 61 989 c 1
 97.6667 1017.67 127.333 1051.33 150 1090 c 1
 209 1055 l 1
 183 1015.67 148 978 104 942 c 0
 66 911.333 17 883.333 -43 858 c 0
 -101 834.667 -155.667 823 -207 823 c 0
 -272.333 821 -329.667 832.667 -379 858 c 0
 -414.333 877.333 -432 905.333 -432 942 c 1
 -428 975 l 1
-324 932 m 0
 -308 932 -292 937.333 -276 948 c 1
 -264 959.333 -254.667 973.667 -248 991 c 1
 -244 1016 l 1
 -242 1021.33 -243.333 1027.33 -248 1034 c 0
 -254.667 1045.33 -267 1051 -285 1051 c 0
 -300.333 1051 -316.667 1045.33 -334 1034 c 0
 -348 1024 -358.333 1009.67 -365 991 c 1
 -367 973 l 1
 -367 963 -364.667 955.333 -360 950 c 1
 -354 938 -342 932 -324 932 c 0
EndSplineSet
EndChar
StartChar: uni0E32
Encoding: 180 3634
OldEncoding: 3634
Width: 606
Flags: W
Fore
92 555 m 1
 133.333 604.333 175.667 642.667 219 670 c 0
 262.333 696 315 709 377 709 c 0
 447.667 709 499.333 691 532 655 c 0
 551.333 632.333 561 605.667 561 575 c 0
 561 553.667 557 530 549 504 c 1
 385 0 l 1
 299 0 l 1
 463 508 l 2
 468.333 524 471 540.333 471 557 c 0
 471 577.667 465.667 595.333 455 610 c 1
 433.667 633.333 400.667 645 356 645 c 0
 315.333 645 277.333 634 242 612 c 0
 206 590.667 173.667 561.333 145 524 c 1
 119 541 l 1
 92 555 l 1
EndSplineSet
EndChar
StartChar: uni0E33
Encoding: 181 3635
OldEncoding: 3635
Width: 606
Flags: W
Fore
-55 825 m 0
 -93.6667 825 -120.333 837.333 -135 862 c 0
 -143 876.667 -147 891.667 -147 907 c 0
 -147 923 -144.333 937.333 -139 950 c 1
 -128.333 986 -108.667 1015.33 -80 1038 c 0
 -49.3333 1062.67 -14.3333 1075 25 1075 c 0
 65 1075 92 1062.67 106 1038 c 1
 114.667 1026.67 119 1012.33 119 995 c 0
 119 980.333 116.333 965.333 111 950 c 0
 98.3333 915.333 77 886 47 862 c 0
 15 837.333 -19 825 -55 825 c 0
33 555 m 1
 75 605.667 118 644 162 670 c 0
 204.667 696 256.333 709 317 709 c 0
 387 709 439 691 473 655 c 1
 492.333 632.333 502 605.667 502 575 c 0
 502 553 497.667 529.333 489 504 c 1
 326 0 l 1
 240 0 l 1
 403 508 l 1
 410.333 526.667 414 543 414 557 c 0
 414 579 407.667 596.667 395 610 c 0
 375 633.333 343 645 299 645 c 0
 256.333 645 217.333 634 182 612 c 0
 147.333 591.333 115.333 562 86 524 c 1
 59 541 l 1
 33 555 l 1
6 1020 m 0
 -17.3333 1020 -35.6667 1013 -49 999 c 1
 -65.6667 986.333 -77.3333 970 -84 950 c 1
 -86 926 l 1
 -82 901 l 1
 -76 887.667 -61.6667 881 -39 881 c 0
 -25 881 -11.3333 884.333 2 891 c 0
 13.3333 895.667 25 904.667 37 918 c 0
 43.6667 926.667 49.6667 937.333 55 950 c 1
 59 975 l 1
 59 983 57 991 53 999 c 0
 45.6667 1013 30 1020 6 1020 c 0
EndSplineSet
EndChar
StartChar: uni0E34
Encoding: 182 3636
OldEncoding: 3636
Width: 0
Flags: W
Fore
-309 1106 m 1
 -221 1094 -168 1059 -150 1001 c 0
 -136 961 -129 916 -129 866 c 1
 -131 815 l 1
 -227 850 l 1
 -260.333 860.667 -308.333 870.333 -371 879 c 0
 -406.333 883 -443 885 -481 885 c 2
 -604 881 l 1
 -684 870 l 1
 -664.667 909.333 -634.667 948.333 -594 987 c 0
 -554 1025 -510.333 1053.67 -463 1073 c 1
 -416.333 1095 -365 1106 -309 1106 c 1
-346 1042 m 1
 -388 1042 -429.667 1031.33 -471 1010 c 1
 -515.667 984.667 -543.667 961.333 -555 940 c 1
 -512 944 l 1
 -432 946 l 1
 -362 944 l 1
 -310.667 940 -272 932 -246 920 c 0
 -224 911.333 -207 902.333 -195 893 c 1
 -205 978.333 -255.333 1028 -346 1042 c 1
EndSplineSet
EndChar
StartChar: uni0E35
Encoding: 183 3637
OldEncoding: 3637
Width: 81
Flags: W
Fore
-139 1026 m 1
 -86 1188 l 1
 -10 1188 l 1
 -102 903 l 1
 -102 903 l 1
 -100 881 l 1
 -100 864.333 -102 842.333 -106 815 c 1
 -134.667 827 -166.333 838.667 -201 850 c 0
 -234.333 860.667 -282 870.333 -344 879 c 0
 -378.667 883 -416.333 885 -457 885 c 0
 -513 885 -554 883.667 -580 881 c 0
 -569.333 881.667 -595.667 878 -659 870 c 1
 -639.667 909.333 -609.667 948.333 -569 987 c 0
 -531 1023 -486.667 1052.33 -436 1075 c 0
 -388 1095.67 -337.667 1106 -285 1106 c 1
 -253 1102 -226.333 1093.67 -205 1081 c 1
 -187 1073 -171.333 1062.33 -158 1049 c 0
 -148 1039 -141.667 1031.33 -139 1026 c 1
-322 1042 m 1
 -350.667 1042 -379.333 1036.67 -408 1026 c 0
 -439.333 1014.67 -463.667 1001.67 -481 987 c 1
 -502.333 974.333 -518.667 958.667 -530 940 c 1
 -487 944 l 1
 -406 946 l 1
 -336 944 l 1
 -285.333 940 -246.333 932 -219 920 c 0
 -193.667 909.333 -177.333 900.333 -170 893 c 1
 -172 928.333 -183.667 960.333 -205 989 c 0
 -225 1018.33 -264 1036 -322 1042 c 1
EndSplineSet
EndChar
StartChar: uni0E36
Encoding: 184 3638
OldEncoding: 3638
Width: 0
Flags: W
Fore
-49 1090 m 1
 -59 1063.33 -74 1040 -94 1020 c 0
 -116.667 999.333 -139.333 987 -162 983 c 1
 -159.333 977 -153.667 955.333 -145 918 c 1
 -143 877 l 1
 -143 857 -145.333 836.333 -150 815 c 1
 -174.667 825.667 -206 837.333 -244 850 c 0
 -277.333 860.667 -325 870.333 -387 879 c 0
 -422.333 883 -460 885 -500 885 c 2
 -621 881 l 1
 -700 870 l 1
 -680.667 911.333 -651 951.333 -611 990 c 2
 -610 991 l 1
 -608 993 l 2
 -568.667 1030.33 -526.333 1059 -481 1079 c 1
 -439 1099.67 -398.667 1110 -360 1110 c 1
 -317 1106 l 1
 -285 1098 l 1
 -270 1092 l 1
 -261.333 1119.33 -243 1143.67 -215 1165 c 1
 -187.667 1188.33 -158.333 1200 -127 1200 c 0
 -91.6667 1200 -67.6667 1189.67 -55 1169 c 0
 -48.3333 1155.67 -45 1141.33 -45 1126 c 1
 -49 1090 l 1
-141 1145 m 0
 -160.333 1145 -175.333 1140 -186 1130 c 1
 -200 1120.67 -209 1108.67 -213 1094 c 1
 -213 1079 l 1
 -209 1059 l 1
 -202.333 1047.67 -190.667 1042 -174 1042 c 0
 -160 1042 -146.333 1047.67 -133 1059 c 0
 -121 1069 -113 1080.67 -109 1094 c 0
 -105.667 1100.67 -104 1106.67 -104 1112 c 0
 -104 1117.33 -105.667 1123.33 -109 1130 c 0
 -114.333 1140 -125 1145 -141 1145 c 0
-365 1042 m 1
 -393.667 1042 -422.333 1036.67 -451 1026 c 0
 -482.333 1014.67 -506.667 1001.67 -524 987 c 1
 -544 973.667 -559.667 958 -571 940 c 1
 -528 944 l 1
 -449 946 l 1
 -379 944 l 1
 -327.667 940 -288.667 932 -262 920 c 0
 -234 908 -217 899 -211 893 c 1
 -213 927 -225.333 958.333 -248 987 c 1
 -268 1015.67 -307 1034 -365 1042 c 1
EndSplineSet
EndChar
StartChar: uni0E37
Encoding: 185 3639
OldEncoding: 3639
Width: 81
Flags: W
Fore
-102 901 m 1
 -100.667 901 -100 897 -100 889 c 1
 -106 815 l 1
 -134.667 827 -166.333 838.667 -201 850 c 0
 -234.333 860.667 -282 870.333 -344 879 c 0
 -378.667 883 -416.333 885 -457 885 c 0
 -513 885 -554 883.667 -580 881 c 0
 -569.333 881.667 -595.667 878 -659 870 c 1
 -640.333 912 -609.667 952.333 -567 991 c 0
 -523.667 1030.33 -481.333 1059 -440 1077 c 1
 -395.333 1099 -352.333 1110 -311 1110 c 0
 -295.667 1110 -281.333 1108 -268 1104 c 1
 -242 1188 l 1
 -164 1188 l 1
 -199 1079 l 1
 -171.667 1067 -151.667 1048.67 -139 1024 c 1
 -86 1188 l 1
 -10 1188 l 1
 -102 901 l 1
-322 1042 m 1
 -366 1042 -407.333 1031.33 -446 1010 c 0
 -489.333 988 -517.333 964.667 -530 940 c 1
 -487 944 l 1
 -406 946 l 1
 -336 944 l 1
 -285.333 940 -246.333 932 -219 920 c 0
 -193.667 909.333 -177.333 900.333 -170 893 c 1
 -180 978.333 -230.667 1028 -322 1042 c 1
EndSplineSet
EndChar
StartChar: uni0E38
Encoding: 186 3640
OldEncoding: 3640
Width: 0
Flags: W
Fore
-176 -512 m 1
 -262 -512 l 1
 -205 -332 l 1
 -219 -336 -234 -338 -250 -338 c 0
 -287.333 -338 -313.333 -325.667 -328 -301 c 1
 -334.667 -285.667 -338 -270.667 -338 -256 c 0
 -338 -240 -335.333 -225.667 -330 -213 c 0
 -319.333 -179.667 -298.667 -149.667 -268 -123 c 0
 -238.667 -98.3333 -204 -86 -164 -86 c 0
 -127.333 -86 -101.333 -97 -86 -119 c 0
 -76.6667 -130.333 -72 -146 -72 -166 c 0
 -72 -180.667 -74.6667 -195 -80 -209 c 1
 -176 -512 l 1
-223 -274 m 0
 -205 -274 -188 -268 -172 -256 c 0
 -157.333 -245.333 -147 -231 -141 -213 c 1
 -137 -190 l 1
 -137 -181.333 -139 -174 -143 -168 c 0
 -150.333 -156 -164 -150 -184 -150 c 0
 -205.333 -150 -224 -156.667 -240 -170 c 0
 -254.667 -182.667 -264 -197 -268 -213 c 1
 -272 -231 l 1
 -272 -241.667 -270 -250 -266 -256 c 0
 -258 -268 -243.667 -274 -223 -274 c 0
EndSplineSet
EndChar
StartChar: uni0E39
Encoding: 187 3641
OldEncoding: 3641
Width: 0
Flags: W
Fore
-418 -410 m 2
 -391 -332 l 1
 -406.333 -336 -421.333 -338 -436 -338 c 0
 -474.667 -338 -500.667 -325 -514 -299 c 0
 -522 -285 -526 -269.333 -526 -252 c 0
 -526 -237.333 -523.333 -223.667 -518 -211 c 1
 -508.667 -180.333 -488.333 -151 -457 -123 c 1
 -426.333 -98.3333 -391.333 -86 -352 -86 c 0
 -316 -86 -290 -97 -274 -119 c 0
 -264.667 -130.333 -260 -146 -260 -166 c 0
 -260 -184 -262 -198.333 -266 -209 c 1
 -332 -410 l 1
 -334 -426 l 1
 -334 -433.333 -332 -440 -328 -446 c 0
 -322.667 -456 -312.333 -461 -297 -461 c 0
 -279 -461 -264.667 -456 -254 -446 c 1
 -240.667 -436.667 -231 -424.667 -225 -410 c 1
 -125 -94 l 1
 -37 -94 l 1
 -139 -410 l 1
 -152.333 -446.667 -175.667 -476 -209 -498 c 0
 -243 -519.333 -279 -530 -317 -530 c 0
 -353.667 -530 -382.333 -518.667 -403 -496 c 0
 -417 -482 -424 -464.667 -424 -444 c 0
 -424 -433.333 -422 -422 -418 -410 c 2
-414 -274 m 0
 -392.667 -274 -374.667 -268 -360 -256 c 0
 -344.667 -242.667 -334 -228.333 -328 -213 c 1
 -324 -193 l 1
 -324 -183 -326.667 -175.333 -332 -170 c 1
 -338 -156.667 -351.667 -150 -373 -150 c 0
 -394.333 -150 -412 -156 -426 -168 c 0
 -441.333 -181.333 -451 -196.333 -455 -213 c 1
 -459 -233 l 1
 -459 -242.333 -457 -250 -453 -256 c 0
 -445.667 -268 -432.667 -274 -414 -274 c 0
EndSplineSet
EndChar
StartChar: uni0E3A
Encoding: 188 3642
OldEncoding: 3642
Width: 0
Flags: W
Fore
-129 -127 m 0
 -107.667 -127 -94 -133 -88 -145 c 1
 -84 -168 l 1
 -88 -193 l 1
 -93.3333 -207.667 -103.667 -222.667 -119 -238 c 1
 -133 -250 -150.667 -256 -172 -256 c 0
 -193.333 -256 -207 -250 -213 -238 c 0
 -217 -228.667 -219 -220.333 -219 -213 c 1
 -215 -193 l 1
 -211 -177 -200.667 -161.667 -184 -147 c 0
 -170.667 -135.667 -152.333 -129 -129 -127 c 0
EndSplineSet
EndChar
StartChar: uni0E3F
Encoding: 192 3647
OldEncoding: 3647
Width: 842
Flags: W
Fore
465 453 m 1
 517 700 l 1
 407 700 l 1
 355 453 l 1
 465 453 l 1
391 108 m 1
 448 376 l 1
 339 376 l 1
 282 108 l 1
 391 108 l 1
524 376 m 1
 467 108 l 1
 527 108 l 2
 617 108 671.667 153.667 691 245 c 1
 695 282 l 1
 695 344.667 641.333 376 534 376 c 2
 524 376 l 1
592 700 m 1
 540 453 l 1
 559 453 l 2
 598.333 453 633 463 663 483 c 0
 697 504.333 718 533.333 726 570 c 1
 730 605 l 1
 730 668.333 684 700 592 700 c 1
552 864 m 1
 627 864 l 1
 608 775 l 1
 659 775 l 2
 701.667 775 737.667 762 767 736 c 0
 796.333 709.333 811 675 811 633 c 0
 811 619 809.667 604 807 588 c 0
 791 516 744 462 666 426 c 1
 707 403 l 2
 748.333 379.667 769.333 342.667 770 292 c 0
 770 276 767.667 258.667 763 240 c 0
 749.667 174.667 715.667 121.333 661 80 c 0
 619.667 48 580.333 32 543 32 c 2
 451 32 l 1
 430 -68 l 1
 355 -68 l 1
 375 32 l 1
 191 32 l 1
 348 775 l 1
 533 775 l 1
 552 864 l 1
EndSplineSet
EndChar
StartChar: uni0E40
Encoding: 193 3648
OldEncoding: 3648
Width: 409
Flags: W
Fore
229 696 m 1
 315 696 l 1
 166 233 l 1
 177.333 237.667 192.333 240 211 240 c 0
 249 240 275.667 227.667 291 203 c 1
 296.333 189.667 299 174.667 299 158 c 0
 299 144 297 129 293 113 c 0
 283 79 262.333 49.6667 231 25 c 0
 201.667 0.333333 167 -12 127 -12 c 0
 89 -12 62.3333 -1.33333 47 20 c 0
 39 33.3333 35 49.3333 35 68 c 0
 35 85.3333 37 99.6667 41 111 c 1
 229 696 l 1
188 176 m 0
 169.333 176 151.667 170 135 158 c 1
 121 145.333 110.667 131 104 115 c 1
 102 94 l 1
 102 86 103.333 78 106 70 c 1
 114.667 57.3333 128.333 51 147 51 c 0
 168.333 51 186.333 57.3333 201 70 c 0
 215.667 82.6667 225.667 97.6667 231 115 c 1
 233 133 l 1
 233 143.667 231 152 227 158 c 0
 221 170 208 176 188 176 c 0
EndSplineSet
EndChar
StartChar: uni0E41
Encoding: 194 3649
OldEncoding: 3649
Width: 739
Flags: W
Fore
229 696 m 1
 317 696 l 1
 168 233 l 1
 177.333 237.667 191.667 240 211 240 c 0
 249 240 275.667 227.667 291 203 c 1
 297.667 186.333 301 171.333 301 158 c 0
 301 144 299 129 295 113 c 1
 283 78.3333 261.667 49 231 25 c 0
 201.667 0.333333 167 -12 127 -12 c 0
 89 -12 62.3333 -1.33333 47 20 c 0
 39 33.3333 35 49.3333 35 68 c 0
 35 85.3333 37 99.6667 41 111 c 1
 229 696 l 1
559 696 m 1
 645 696 l 1
 496 233 l 1
 507.333 237.667 521.667 240 539 240 c 0
 577 240 603.333 227.667 618 203 c 1
 625.333 187 629 171.333 629 156 c 0
 629 141.333 627 127 623 113 c 0
 612.333 80.3333 591 51.6667 559 27 c 1
 529 1 494.333 -12 455 -12 c 0
 417.667 -12 392.333 -1.33333 379 20 c 0
 367.667 37.3333 362 54 362 70 c 0
 362 80 364.333 93.6667 369 111 c 1
 559 696 l 1
514 176 m 0
 495.333 176 479 170 465 158 c 0
 449 142.667 438 128.333 432 115 c 1
 428 94 l 1
 428 85.3333 430 78 434 72 c 0
 441.333 58 455 51 475 51 c 0
 497 51 515.333 58 530 72 c 1
 544.667 84 555 98.3333 561 115 c 1
 563 133 l 1
 563 141.667 561 150 557 158 c 0
 549 170 534.667 176 514 176 c 0
188 176 m 0
 169.333 176 151.667 170 135 158 c 1
 121 145.333 110.667 131 104 115 c 1
 102 94 l 1
 102 86 103.333 78 106 70 c 1
 114.667 57.3333 128.333 51 147 51 c 0
 168.333 51 186.333 57.3333 201 70 c 0
 215.667 82.6667 225.667 97.6667 231 115 c 2
 236 133 l 1
 236 143.667 233 152 227 158 c 1
 221 170 208 176 188 176 c 0
EndSplineSet
EndChar
StartChar: uni0E42
Encoding: 195 3650
OldEncoding: 3650
Width: 440
Flags: W
Fore
2 111 m 1
 272 944 l 1
 283.333 976 289 1000.67 289 1018 c 2
 289 1026 l 1
 287 1040 274 1057 250 1077 c 0
 231.333 1092.33 185.667 1119 113 1157 c 1
 136.333 1177.67 171 1201 217 1227 c 0
 266.333 1254.33 315.667 1268 365 1268 c 0
 393.667 1268 425 1259.67 459 1243 c 0
 493 1225.67 518.333 1217 535 1217 c 0
 557.667 1217 583.333 1225.67 612 1243 c 1
 629 1184 l 1
 587.667 1158 548.667 1145 512 1145 c 0
 490 1145 461.333 1153.67 426 1171 c 0
 392 1187.67 364 1196 342 1196 c 0
 322 1196 303 1192.67 285 1186 c 0
 269 1179.33 258 1173.67 252 1169 c 1
 292 1144.33 323.333 1124 346 1108 c 1
 361.333 1094.67 371 1076.33 375 1053 c 1
 377 1036 l 1
 377 1011.33 370.667 982 358 948 c 1
 129 233 l 1
 138.333 237.667 152.667 240 172 240 c 0
 210.667 240 237.333 227.667 252 203 c 1
 258.667 186.333 262 171.333 262 158 c 0
 262 144 260 129 256 113 c 1
 244 78.3333 223 49 193 25 c 0
 162.333 0.333333 127.333 -12 88 -12 c 0
 54.6667 -12 28.6667 -1.33333 10 20 c 1
 0.666667 34 -4 51.3333 -4 72 c 0
 -4 82.6667 -2 95.6667 2 111 c 1
150 176 m 0
 131.333 176 113.333 170 96 158 c 1
 82 144.667 72 130.333 66 115 c 0
 64 111 63 104 63 94 c 0
 63 88 64.6667 80 68 70 c 1
 76 57.3333 89.6667 51 109 51 c 0
 129.667 51 147.333 57.3333 162 70 c 0
 176 82 186.333 97 193 115 c 1
 197 133 l 1
 197 144.333 194 152.667 188 158 c 1
 182 170 169.333 176 150 176 c 0
EndSplineSet
EndChar
StartChar: uni0E43
Encoding: 196 3651
OldEncoding: 3651
Width: 440
Flags: W
Fore
2 111 m 1
 328 1112 l 1
 334.667 1135.33 338 1152.33 338 1163 c 0
 338 1195.67 319.667 1212 283 1212 c 0
 257 1212 236.333 1206 221 1194 c 1
 212.333 1185.33 203 1174.33 193 1161 c 1
 228.333 1161 253.333 1151.67 268 1133 c 0
 276.667 1121 281 1108.67 281 1096 c 0
 281 1083.33 278.667 1072.33 274 1063 c 1
 264.667 1035 247 1011 221 991 c 0
 197.667 973.667 172.333 965 145 965 c 0
 122.333 965 104 971 90 983 c 0
 79.3333 993.667 74 1008.67 74 1028 c 2
 74 1034 l 2
 74 1055.33 78 1077.33 86 1100 c 1
 100 1148.67 126.667 1189.67 166 1223 c 0
 206 1255.67 250.333 1272 299 1272 c 0
 348.333 1272 384 1258.33 406 1231 c 0
 418 1214.33 424 1195.33 424 1174 c 0
 424 1150.67 420.667 1129.33 414 1110 c 1
 129 233 l 1
 138.333 237.667 152.667 240 172 240 c 0
 210.667 240 237.333 227.667 252 203 c 1
 258.667 186.333 262 171.333 262 158 c 0
 262 144 260 129 256 113 c 1
 244 78.3333 223 49 193 25 c 0
 162.333 0.333333 127.333 -12 88 -12 c 0
 54.6667 -12 28.6667 -1.33333 10 20 c 1
 0.666667 34 -4 51.3333 -4 72 c 0
 -4 82.6667 -2 95.6667 2 111 c 1
190 1112 m 0
 174 1112 161.333 1107.33 152 1098 c 0
 138.667 1086.67 130.333 1075 127 1063 c 1
 125 1047 l 1
 129 1028 l 1
 133 1018.67 143.333 1014 160 1014 c 0
 175.333 1014 189 1018.67 201 1028 c 1
 211.667 1038.67 219.667 1050.33 225 1063 c 1
 227 1079 l 1
 223 1098 l 1
 217.667 1107.33 206.667 1112 190 1112 c 0
150 176 m 0
 131.333 176 113.333 170 96 158 c 1
 82 144.667 72 130.333 66 115 c 0
 64 111 63 104 63 94 c 0
 63 88 64.6667 80 68 70 c 1
 76 57.3333 89.6667 51 109 51 c 0
 129.667 51 147.333 57.3333 162 70 c 0
 176 82 186.333 97 193 115 c 1
 197 133 l 1
 197 144.333 194 152.667 188 158 c 1
 182 170 169.333 176 150 176 c 0
EndSplineSet
EndChar
StartChar: uni0E44
Encoding: 197 3652
OldEncoding: 3652
Width: 512
Flags: W
Fore
76 111 m 1
 420 1174 l 1
 422 1186 l 1
 422 1188.67 420.667 1190 418 1190 c 0
 413.333 1190 408.333 1186.67 403 1180 c 1
 244 918 l 1
 221.333 883.333 198 866 174 866 c 0
 152 866 141 880.333 141 909 c 1
 143 922 l 1
 158 1174 l 1
 158 1182 l 2
 158 1204.67 150.333 1219 135 1225 c 1
 193 1272 l 1
 213 1264 223 1242.67 223 1208 c 2
 223 1196 l 1
 207 961 l 1
 346 1200 l 1
 373.333 1245.33 409.667 1268 455 1268 c 0
 480.333 1268 498 1260.33 508 1245 c 0
 512 1239 514 1230.33 514 1219 c 0
 514 1207 512 1194 508 1180 c 1
 201 233 l 1
 212.333 237.667 227.333 240 246 240 c 0
 284 240 310.667 227.667 326 203 c 1
 332.667 186.333 336 172 336 160 c 0
 336 142.667 333.333 127.667 328 115 c 1
 316.667 77.6667 296 47.6667 266 25 c 1
 236.667 0.333333 201.333 -12 160 -12 c 0
 122.667 -12 97.3333 -1.33333 84 20 c 1
 74.6667 32 70 48 70 68 c 0
 70 85.3333 72 99.6667 76 111 c 1
221 176 m 0
 201 176 184 170 170 158 c 0
 154 142.667 143 128.333 137 115 c 1
 135 96 l 1
 135 86 137 78 141 72 c 1
 146.333 58 159.333 51 180 51 c 0
 202 51 219.667 57.3333 233 70 c 0
 247.667 82 258 97 264 115 c 1
 266 133 l 1
 266 143.667 264 152 260 158 c 0
 254 170 241 176 221 176 c 0
EndSplineSet
EndChar
StartChar: uni0E45
Encoding: 198 3653
OldEncoding: 3653
Width: 606
Flags: W
Fore
152 555 m 1
 194 605.667 237 644 281 670 c 0
 324.333 696 376 709 436 709 c 0
 506 709 558 691 592 655 c 1
 611.333 631.667 621 605 621 575 c 0
 621 555.667 616.667 532 608 504 c 1
 328 -362 l 1
 242 -362 l 1
 522 508 l 2
 528.667 528 532 544.333 532 557 c 0
 532 578.333 526 596 514 610 c 0
 494 633.333 462 645 418 645 c 0
 375.333 645 336.333 634 301 612 c 0
 264.333 590 232.333 560.667 205 524 c 1
 178 541 l 1
 152 555 l 1
EndSplineSet
EndChar
StartChar: uni0E46
Encoding: 199 3654
OldEncoding: 3654
Width: 815
Flags: W
Fore
711 709 m 1
 744.333 702.333 771 689.333 791 670 c 0
 807.667 652.667 817 629.333 819 600 c 1
 819 594 l 2
 819 571.333 813.667 541.333 803 504 c 1
 627 -39 l 2
 611 -89 590.333 -128.667 565 -158 c 0
 535.667 -192 504.333 -217 471 -233 c 1
 433 -253.667 386.667 -270.333 332 -283 c 1
 334 -205 l 1
 398 -190.333 445 -171 475 -147 c 0
 502.333 -126.333 525.667 -87.6667 545 -31 c 1
 713 492 l 1
 723.667 528 729 556.667 729 578 c 2
 729 584 l 1
 727 606 713.333 623.667 688 637 c 1
 590 586 l 1
 590 586 l 1
 561 604 l 2
 541 618 524 629 510 637 c 1
 478 625.667 450 606.667 426 580 c 0
 404 554 387 521.667 375 483 c 1
 379.667 487.667 392 495.333 412 506 c 0
 426.667 515.333 447 520 473 520 c 0
 507.667 520 532.333 509 547 487 c 1
 553.667 473.667 557 461 557 449 c 0
 557 437 555 424 551 410 c 0
 541 379.333 522.667 352.667 496 330 c 0
 468.667 306.667 437 295 401 295 c 0
 366.333 295 340 304.667 322 324 c 0
 307.333 338 297.667 362.333 293 397 c 1
 291 414 l 1
 291 442.667 295.667 471.333 305 500 c 0
 321.667 550.667 351.667 595.667 395 635 c 0
 437 673 483.667 697.667 535 709 c 1
 584 678 l 2
 602.667 665.333 612 658.333 612 657 c 1
 612 657 l 1
 711 709 l 1
457 465 m 0
 439.667 465 424.667 459.667 412 449 c 0
 396.667 437.667 387 424.667 383 410 c 1
 381 393 l 1
 385 373 l 1
 391 360.333 402.667 354 420 354 c 0
 438 354 454.333 359.667 469 371 c 0
 478.333 379 487.333 392 496 410 c 1
 500 430 l 1
 500 436.667 498 443.667 494 451 c 0
 487.333 460.333 475 465 457 465 c 0
EndSplineSet
EndChar
StartChar: uni0E47
Encoding: 200 3655
OldEncoding: 3655
Width: 0
Flags: W
Fore
-266 815 m 0
 -288.667 815 -305.667 819.667 -317 829 c 0
 -333.667 841 -348 854 -360 868 c 0
 -373.333 885.333 -385.667 898.333 -397 907 c 0
 -409 915.667 -421.333 920 -434 920 c 0
 -465.333 918 -491.333 903.667 -512 877 c 0
 -534.667 846.333 -549 824.333 -555 811 c 1
 -577.667 823 -592 847 -598 883 c 1
 -603.333 895.667 -606 911.333 -606 930 c 0
 -606 948 -602.667 967 -596 987 c 0
 -592 1003 -583.667 1020 -571 1038 c 0
 -530.333 1095.33 -465 1124 -375 1124 c 1
 -319 1122 l 1
 -289 1118 -259.667 1116 -231 1116 c 0
 -189.667 1116 -158.333 1123 -137 1137 c 1
 -113 1150.33 -96 1174.67 -86 1210 c 1
 -16 1210 l 1
 -35.3333 1154.67 -64.6667 1115.33 -104 1092 c 0
 -146 1067.33 -200.667 1055 -268 1055 c 0
 -296.667 1055 -328 1057 -362 1061 c 1
 -410.667 1061 -447.667 1056.33 -473 1047 c 0
 -500.333 1035.67 -518 1017 -526 991 c 0
 -530 979 -532 965.333 -532 950 c 2
 -532 924 l 1
 -525.333 932 -511 945 -489 963 c 1
 -468.333 977.667 -443.333 985 -414 985 c 0
 -390.667 985 -370 979.667 -352 969 c 1
 -338.667 957.667 -327.667 947.333 -319 938 c 1
 -307.667 960 -291.333 977 -270 989 c 0
 -248.667 1001.67 -227 1008 -205 1008 c 0
 -173.667 1008 -151.667 999 -139 981 c 0
 -132.333 969.667 -129 958 -129 946 c 0
 -129 936.667 -131 925.667 -135 913 c 0
 -145.667 885 -162 862 -184 844 c 0
 -207.333 824.667 -234.667 815 -266 815 c 0
-250 864 m 0
 -233.333 864 -220.333 869 -211 879 c 0
 -203 887 -194.667 898.333 -186 913 c 1
 -182 930 l 1
 -182 936 -184 942 -188 948 c 0
 -194.667 958 -204.333 963 -217 963 c 0
 -234.333 963 -248 958 -258 948 c 0
 -269.333 936.667 -277 925 -281 913 c 1
 -283 897 l 1
 -281 881 l 1
 -273.667 869.667 -263.333 864 -250 864 c 0
EndSplineSet
EndChar
StartChar: uni0E48
Encoding: 201 3656
OldEncoding: 3656
Width: 0
Flags: W
Fore
-225 1268 m 1
 -150 1507 l 1
 -72 1507 l 1
 -150 1268 l 1
 -225 1268 l 1
EndSplineSet
EndChar
StartChar: uni0E49
Encoding: 202 3657
OldEncoding: 3657
Width: 0
Flags: W
Fore
-168 1395 m 0
 -177.333 1363 -192.333 1334.33 -213 1309 c 0
 -229.667 1287.67 -244 1273.33 -256 1266 c 1
 -196.667 1266 -145.333 1281 -102 1311 c 0
 -70 1334.33 -45.6667 1360.33 -29 1389 c 0
 -11.6667 1416.33 3.33333 1451.67 16 1495 c 1
 92 1495 l 1
 51.3333 1367.67 -19.6667 1282.33 -121 1239 c 0
 -172.333 1217 -227.667 1206 -287 1206 c 1
 -350 1210 l 1
 -385 1219 l 1
 -344 1243 l 1
 -322 1260.33 -305 1280.33 -293 1303 c 1
 -303 1300 l 1
 -322 1298 l 1
 -346 1303 l 1
 -376 1313 -391 1332.67 -391 1362 c 0
 -391 1372.67 -389 1385.67 -385 1401 c 0
 -377.667 1422.33 -367.333 1439.33 -354 1452 c 1
 -340 1468 -323.667 1481 -305 1491 c 0
 -287 1499 -267.333 1503 -246 1503 c 0
 -210 1503 -185.333 1492 -172 1470 c 0
 -165.333 1456.67 -162 1444 -162 1432 c 0
 -162 1419.33 -164 1407 -168 1395 c 0
-262 1450 m 0
 -278.667 1450 -291.667 1445.33 -301 1436 c 0
 -314.333 1424 -323.333 1412.33 -328 1401 c 1
 -330 1382 l 1
 -326 1366 l 1
 -318.667 1355.33 -308.333 1350 -295 1350 c 0
 -278.333 1350 -264.667 1355.33 -254 1366 c 1
 -240 1374 -231 1385.67 -227 1401 c 2
 -223 1417 l 1
 -227 1436 l 1
 -232.333 1445.33 -244 1450 -262 1450 c 0
EndSplineSet
EndChar
StartChar: uni0E4A
Encoding: 203 3658
OldEncoding: 3658
Width: 0
Flags: W
Fore
-426 1225 m 0
 -449.333 1227 -466.333 1234.33 -477 1247 c 0
 -489 1262.33 -496 1281 -498 1303 c 1
 -498 1313 l 2
 -498 1335.67 -495 1354.67 -489 1370 c 0
 -475 1407.33 -454 1437.33 -426 1460 c 0
 -398.667 1483.33 -369.333 1495 -338 1495 c 0
 -323.333 1495 -311 1493 -301 1489 c 1
 -291 1483 -283.667 1477.67 -279 1473 c 1
 -270 1460 l 1
 -240 1483 l 1
 -225.333 1491 -207.333 1495 -186 1495 c 0
 -154.667 1495 -135 1483.33 -127 1460 c 1
 -123 1432 l 1
 -123 1416 -126.333 1395.33 -133 1370 c 1
 -143 1342 -160.667 1312.67 -186 1282 c 1
 -145 1303 l 2
 -131.667 1310.33 -115.333 1323 -96 1341 c 1
 -71.3333 1368.33 -54.3333 1396.33 -45 1425 c 0
 -39 1441.67 -35 1459.67 -33 1479 c 1
 33 1499 l 1
 33 1489.67 29.6667 1472.67 23 1448 c 1
 4.33333 1393.33 -24.3333 1346.33 -63 1307 c 0
 -113.667 1256.33 -191 1231 -295 1231 c 1
 -242 1282 l 2
 -220 1304 -204.333 1329.33 -195 1358 c 0
 -187.667 1378.67 -184 1395.67 -184 1409 c 2
 -184 1417 l 1
 -186 1432.33 -197 1440 -217 1440 c 0
 -233.667 1440 -247.333 1435 -258 1425 c 2
 -287 1401 l 1
 -289 1407 -293 1415 -299 1425 c 1
 -308.333 1435 -323.333 1440 -344 1440 c 0
 -360.667 1440 -376.333 1434.33 -391 1423 c 0
 -405.667 1411.67 -416 1396 -422 1376 c 1
 -401 1384 l 1
 -373 1389 l 1
 -349 1389 -331 1381.33 -319 1366 c 0
 -313.667 1357.33 -311 1347 -311 1335 c 0
 -311 1325.67 -313 1315 -317 1303 c 0
 -323.667 1284.33 -337.333 1266.33 -358 1249 c 1
 -380.667 1233 -403.333 1225 -426 1225 c 0
-385 1352 m 0
 -400.333 1352 -412.667 1347 -422 1337 c 0
 -434 1325.67 -440.667 1315.67 -442 1307 c 1
 -446 1292 l 1
 -446 1285.33 -444 1280 -440 1276 c 1
 -436 1266.67 -427.333 1262 -414 1262 c 0
 -397.333 1262 -384.333 1266.67 -375 1276 c 1
 -365.667 1281.33 -358 1291.67 -352 1307 c 1
 -350 1323 l 1
 -354 1339 l 1
 -360 1347.67 -370.333 1352 -385 1352 c 0
EndSplineSet
EndChar
StartChar: uni0E4B
Encoding: 204 3659
OldEncoding: 3659
Width: 0
Flags: W
Fore
-199 1331 m 1
 -326 1331 l 1
 -303 1401 l 1
 -176 1401 l 1
 -143 1503 l 1
 -68 1503 l 1
 -100 1401 l 1
 27 1401 l 1
 4 1331 l 1
 -123 1331 l 1
 -156 1231 l 1
 -231 1231 l 1
 -199 1331 l 1
EndSplineSet
EndChar
StartChar: uni0E4C
Encoding: 205 3660
OldEncoding: 3660
Width: 0
Flags: W
Fore
-262 1292 m 1
 -256 1301.33 -246.333 1310.33 -233 1319 c 0
 -221 1327.67 -201.333 1333 -174 1335 c 1
 -144 1333 -124.333 1323.67 -115 1307 c 0
 -107.667 1293.67 -104 1282.67 -104 1274 c 0
 -104 1261.33 -106.333 1250.33 -111 1241 c 1
 -119.667 1215.67 -135.333 1194 -158 1176 c 0
 -182 1155.33 -208 1145 -236 1145 c 0
 -276.667 1143 -305.333 1154.67 -322 1180 c 1
 -330 1190 -334 1204.33 -334 1223 c 0
 -334 1237.67 -331.333 1253.33 -326 1270 c 0
 -314.667 1302 -299.667 1329.33 -281 1352 c 1
 -255 1376.67 -229 1394.33 -203 1405 c 1
 -169.667 1416.33 -131.333 1423 -88 1425 c 0
 -44.6667 1427 -10 1432.67 16 1442 c 1
 39.3333 1448 56.6667 1467 68 1499 c 1
 129 1499 l 1
 119.667 1469.67 104 1445.67 82 1427 c 0
 58 1408.33 36 1396.33 16 1391 c 1
 -11.3333 1380.33 -48 1374 -94 1372 c 0
 -136.667 1370 -171.667 1364.67 -199 1356 c 1
 -223 1346 -244 1324.67 -262 1292 c 1
-190 1286 m 0
 -218.667 1286 -238 1271.67 -248 1243 c 1
 -250 1231 l 1
 -246 1214 l 1
 -240.667 1204.67 -231 1200 -217 1200 c 0
 -204.333 1200 -192.667 1204 -182 1212 c 1
 -170.667 1224.67 -163.333 1235 -160 1243 c 1
 -156 1257 l 1
 -156 1264.33 -158 1270 -162 1274 c 0
 -168 1282 -177.333 1286 -190 1286 c 0
EndSplineSet
EndChar
StartChar: uni0E4D
Encoding: 206 3661
OldEncoding: 3661
Width: 0
Flags: W
Fore
-262 782 m 0
 -301.333 782 -328 795 -342 821 c 0
 -350 836.333 -354 852 -354 868 c 0
 -354 882.667 -351.333 896.333 -346 909 c 1
 -336 941.667 -315.667 970.333 -285 995 c 0
 -255 1021 -220 1034 -180 1034 c 0
 -141.333 1034 -114.667 1021.67 -100 997 c 0
 -92 983 -88 968 -88 952 c 0
 -88 936.667 -90.6667 922.333 -96 909 c 1
 -106 874.333 -126.667 844.333 -158 819 c 0
 -188.667 794.333 -223.333 782 -262 782 c 0
-199 977 m 0
 -222.333 977 -241.333 970 -256 956 c 1
 -274 942 -285.667 926.333 -291 909 c 1
 -295 889 l 1
 -295 877 -292.333 867.333 -287 860 c 0
 -279.667 846.667 -265.333 840 -244 840 c 0
 -221.333 840 -202 846.667 -186 860 c 0
 -169.333 874.667 -158 891 -152 909 c 1
 -147 932 l 1
 -147 936 -148 938.667 -150 940 c 1
 -152.667 953.333 -158 962.333 -166 967 c 0
 -174.667 973.667 -185.667 977 -199 977 c 0
EndSplineSet
EndChar
StartChar: uni0E4E
Encoding: 207 3662
OldEncoding: 3662
Width: 0
Flags: W
Fore
99 963 m 1
 63.6667 937.667 17.3333 925 -40 925 c 0
 -105.333 925 -138 945.667 -138 987 c 1
 -136 1007 l 1
 -130.667 1033 -117 1055.33 -95 1074 c 0
 -57 1108 -8.66667 1125 50 1125 c 0
 33.3333 1125 18.6667 1130 6 1140 c 0
 -6 1150.67 -12 1164 -12 1180 c 1
 -11 1194 l 1
 8.33333 1238.67 61 1267.33 147 1280 c 1
 185 1282 l 2
 220.333 1283.33 245.667 1279 261 1269 c 1
 213 1238 l 1
 198 1241 l 1
 172 1246 l 1
 138 1241 l 1
 102.667 1231.67 80 1213.33 70 1186 c 1
 68 1175 l 1
 68 1163.67 73.3333 1154.33 84 1147 c 1
 106 1138 l 1
 135 1135 l 1
 111 1097 l 1
 75.6667 1097 43.3333 1090.67 14 1078 c 0
 -24 1060.67 -43 1036.67 -43 1006 c 0
 -43 981.333 -28 969 2 969 c 0
 29.3333 969 52 976.667 70 992 c 1
 99 963 l 1
EndSplineSet
EndChar
StartChar: uni0E4F
Encoding: 208 3663
OldEncoding: 3663
Width: 696
Flags: W
Fore
236 0 m 0
 127.333 0 53.3333 34.6667 14 104 c 0
 -7.33333 142 -18 184.333 -18 231 c 0
 -18 269.667 -11.3333 308.667 2 348 c 0
 33.3333 444 90 526 172 594 c 0
 256 662 352.333 696 461 696 c 0
 534.333 696 592.333 679.667 635 647 c 0
 676.333 615 701.667 572 711 518 c 1
 715 467 l 1
 715 425.667 708 386 694 348 c 1
 675.333 287.333 644.667 230.667 602 178 c 0
 560 126 506 83 440 49 c 0
 377.333 16.3333 309.333 -1.73472e-18 236 0 c 0
438 627 m 0
 352 627 275.667 599.667 209 545 c 0
 139.667 488.333 93.3333 422.667 70 348 c 0
 58.6667 314 53 282 53 252 c 1
 57 213 l 1
 63 169.667 83.6667 135 119 109 c 1
 152.333 81.6667 198 68 256 68 c 0
 316.667 68 372.667 81.6667 424 109 c 0
 476.667 135.667 519.667 169.667 553 211 c 0
 586.333 251.667 611.667 297.333 629 348 c 0
 638.333 378.667 643 410 643 442 c 1
 641 483 l 1
 635 525.667 614.667 560.667 580 588 c 0
 545.333 614 498 627 438 627 c 0
285 152 m 0
 243 152 210 161.333 186 180 c 0
 166 197.333 152.333 222 145 254 c 1
 141 283 l 1
 141 305 145.333 326.667 154 348 c 1
 163.333 380 181 411.333 207 442 c 1
 229 470.667 259 494.667 297 514 c 0
 334.333 533.333 372.667 543 412 543 c 0
 450.667 543 483.333 533.333 510 514 c 1
 533.333 494.667 547 470.667 551 442 c 1
 553 416 l 1
 553 390 549.667 367.333 543 348 c 0
 526.333 295.333 494 249.667 446 211 c 0
 398.667 171.667 345 152 285 152 c 0
EndSplineSet
EndChar
StartChar: uni0E50
Encoding: 209 3664
OldEncoding: 3664
Width: 724
Flags: W
Fore
276 -8 m 0
 184 -8 120.667 18 86 70 c 0
 65.3333 100.667 55 134.667 55 172 c 0
 55 196.667 59.3333 222 68 248 c 0
 82.6667 294 107 335.667 141 373 c 0
 176.333 412.333 220 444.333 272 469 c 1
 326.667 492.333 384 504 444 504 c 0
 504.667 504 554.667 492.333 594 469 c 1
 630 443.667 653.333 411.667 664 373 c 0
 668 356.333 670 340 670 324 c 0
 670 298.667 665.667 273.333 657 248 c 0
 643.667 206.667 618.667 165 582 123 c 0
 545.333 82.3333 501.667 51 451 29 c 0
 397.667 4.33333 339.333 -8 276 -8 c 0
418 424 m 0
 354 424 299.333 407 254 373 c 0
 205.333 337 174 295.333 160 248 c 0
 154.667 231.333 152 214.333 152 197 c 0
 152 169.667 158.667 145.667 172 125 c 0
 197.333 89.6667 241 72 303 72 c 0
 366.333 72 421.667 89.6667 469 125 c 0
 517.667 161 549.667 202 565 248 c 0
 570.333 264 573 281.667 573 301 c 0
 573 325 565.667 349 551 373 c 1
 527 407 482.667 424 418 424 c 0
EndSplineSet
EndChar
StartChar: uni0E51
Encoding: 210 3665
OldEncoding: 3665
Width: 724
Flags: W
Fore
166 256 m 0
 160.667 240 158 223.667 158 207 c 0
 158 188.333 162 170 170 152 c 0
 184 121.333 210.667 106 250 106 c 0
 272.667 106 298.667 113 328 127 c 1
 308 127 284.667 133 258 145 c 1
 240 156.333 231 172.333 231 193 c 0
 231 203 233.333 213.667 238 225 c 0
 250 263 271.667 293 303 315 c 0
 334.333 338.333 366.333 350 399 350 c 0
 445 350 475 337.667 489 313 c 0
 496.333 300.333 500 285.333 500 268 c 0
 500 250.667 497.333 233.667 492 217 c 0
 478.667 181.667 458.667 149.667 432 121 c 0
 405.333 93 375.333 71 342 55 c 0
 304.667 39 268.333 31 233 31 c 0
 167 31 121.333 50.6667 96 90 c 0
 81.3333 112.667 74 141.333 74 176 c 0
 74 200 78 226.667 86 256 c 1
 102 304.667 130 349 170 389 c 1
 211.333 433 255.667 465 303 485 c 0
 355 508.333 405.667 520 455 520 c 0
 548.333 518 615 490.667 655 438 c 0
 677 409.333 688 372.667 688 328 c 0
 688 296 682 261.667 670 225 c 0
 650.667 163.667 622 113.333 584 74 c 1
 546 32 494.667 -9.66667 430 -51 c 1
 393 -8 l 1
 494.333 56.6667 560 134.333 590 225 c 1
 599.333 259 604 285 604 303 c 0
 604 332.333 596.667 359 582 383 c 0
 555.333 423.667 504.667 444 430 444 c 0
 371.333 444 317.333 426.333 268 391 c 0
 218 355 184 310 166 256 c 0
383 295 m 0
 365.667 295 350.667 289.667 338 279 c 0
 322.667 267 313 254 309 240 c 1
 305 223 l 1
 305 215.667 307 209 311 203 c 0
 317 190.333 328.667 184 346 184 c 0
 364 184 379.667 190.333 393 203 c 1
 407 212.333 416 224.667 420 240 c 1
 424 258 l 1
 420 279 l 1
 413.333 289.667 401 295 383 295 c 0
EndSplineSet
EndChar
